<?xml version="1.0" encoding="utf-8"?>
<!-- Generator: Adobe Illustrator 23.0.3, SVG Export Plug-In . SVG Version: 6.00 Build 0)  -->
<svg version="1.1" id="Capa_1" xmlns="http://www.w3.org/2000/svg" xmlns:xlink="http://www.w3.org/1999/xlink" x="0px" y="0px"
	 viewBox="0 0 612 612" style="enable-background:new 0 0 612 612;" xml:space="preserve">
<style type="text/css">
	.st0{fill:#2E9FFA;}
</style>
<g id="twitter">
	<g>
		<path class="st0" d="M606,114.2c-4.9-3.4-11.4-3.2-16.1,0.3c-3.3,2.5-8.2,4.6-13.9,6.5c18.8-23.3,19.1-38.9,18.8-42.8
			c-0.4-5-3.4-9.4-7.9-11.5c-4.5-2.1-9.9-1.7-14,1.3c-25.7,18.4-51.3,22.4-66.3,22.9c-24.4-22.6-55.9-35.1-89.4-35.1
			c-72.5,0-131.5,59-131.5,131.5c0,5.2,0.3,10.5,0.9,15.7c-121-3-219.1-117-220.1-118.2c-2.9-3.4-7.3-5.3-11.8-4.9
			c-4.5,0.4-8.5,2.9-10.8,6.8c-30.8,52.6-18.2,102.5,2.9,137.4c-3.9-2.1-8.7-2.2-12.7-0.2c-4.6,2.3-7.6,7-7.7,12.2
			c-0.9,55.3,24.4,88.4,49.8,107.7c-1.9,0.8-3.6,1.9-5,3.5c-3.3,3.6-4.5,8.8-3,13.5c17.7,57.1,59.3,78.5,88.5,86.6
			c-33.5,23.6-74.9,29.1-106.4,29.1c-20.1,0-33.9-2.4-34.1-2.4c-6.3-1.1-12.6,2.3-15.1,8.1c-2.6,5.9-0.7,12.7,4.4,16.6
			c63.1,47.5,139.4,57.4,192.3,57.4c41.8,0,70.8-6.1,72.3-6.4c271.3-63.4,281.6-306.6,281.2-350.9c50.9-46.7,59-65,60.2-69.5
			C613.1,123.6,610.8,117.5,606,114.2z"/>
	</g>
</g>
</svg>
