<?xml version="1.0" encoding="utf-8"?>
<!-- Generator: Adobe Illustrator 23.0.3, SVG Export Plug-In . SVG Version: 6.00 Build 0)  -->
<svg version="1.1" id="Layer_1" xmlns="http://www.w3.org/2000/svg" xmlns:xlink="http://www.w3.org/1999/xlink" x="0px" y="0px"
	 viewBox="0 0 511 511" style="enable-background:new 0 0 511 511;" xml:space="preserve">
<style type="text/css">
	.st0{fill:#3493FF;}
</style>
<path class="st0" d="M462.1,121.8H383V99.1c0-4.2-3.4-7.6-7.6-7.6h-6.5V81c0-35.3-28.7-64-64-64H204.1c-35.3,0-64,28.7-64,64v10.6
	h-6.6c-4.2,0-7.6,3.4-7.6,7.6v22.7H97.1c-4.2,0-7.6,3.4-7.6,7.6c0,4.2,3.4,7.6,7.6,7.6h365c18.1,0,32.8,14.7,32.8,32.8v66.5
	c0,15.6-11.1,29.1-26.4,32.1L286,302.3h-63.1l-182.3-34c-15.3-3-26.5-16.5-26.5-32.1v-66.5c0-18.1,14.7-32.8,32.8-32.8h15.2
	c4.2,0,7.6-3.4,7.6-7.6s-3.4-7.6-7.6-7.6H46.9C20.5,121.8-1,143.3-1,169.7v66.5c0,15.9,7.8,30.2,20.2,39v172.7
	c0,26.4,21.5,47.9,47.9,47.9h296.8c4.2,0,7.6-3.4,7.6-7.6s-3.4-7.6-7.6-7.6H67c-18.1,0-32.8-14.7-32.8-32.8V282.4
	c1.1,0.3,2.3,0.6,3.5,0.8l177,32.8v79.4c0,3.3,2.1,6.2,5.3,7.2l32.3,10.1c0.7,0.2,1.5,0.3,2.3,0.3s1.5-0.1,2.3-0.3l32.3-10.1
	c3.2-1,5.3-3.9,5.3-7.2V316l177-32.8c1.1-0.2,2.3-0.5,3.4-0.8v165.5c0,18.1-14.7,32.8-32.8,32.8h-42.8c-4.2,0-7.6,3.4-7.6,7.6
	s3.4,7.6,7.6,7.6H442c26.4,0,47.9-21.5,47.9-47.9V275.2c12.3-8.8,20.2-23.1,20.2-39v-66.5C510,143.3,488.5,121.8,462.1,121.8z
	 M155.2,81c0-27,21.9-48.9,48.9-48.9h100.8c27,0,48.9,21.9,48.9,48.9v10.6h-17.1V81c0-17.5-14.2-31.7-31.8-31.7h-16.8
	c-4.2,0-7.6,3.4-7.6,7.6s3.4,7.6,7.6,7.6h16.8c9.2,0,16.6,7.5,16.6,16.6v10.6H315c-4.2,0-7.6,3.4-7.6,7.6V122H201.6V99.1
	c0-4.2-3.4-7.6-7.6-7.6h-6.5V81c0-9.2,7.5-16.6,16.6-16.6H253c4.2,0,7.6-3.4,7.6-7.6s-3.4-7.6-7.6-7.6h-48.9
	c-17.5,0-31.8,14.2-31.8,31.7v10.6h-17.1V81z M141.1,121.8v-15.1h45.4v15.1H141.1z M322.5,121.8v-15.1h45.4v15.1H322.5z
	 M229.8,317.2h49.4v29.2h-49.4L229.8,317.2L229.8,317.2z M279.2,389.8l-24.7,7.7l-24.7-7.7v-28.2h49.4V389.8z"/>
</svg>
