<?xml version="1.0" encoding="utf-8"?>
<!-- Generator: Adobe Illustrator 23.0.3, SVG Export Plug-In . SVG Version: 6.00 Build 0)  -->
<svg version="1.1" id="Capa_1" xmlns="http://www.w3.org/2000/svg" xmlns:xlink="http://www.w3.org/1999/xlink" x="0px" y="0px"
	 viewBox="0 0 612 612" style="enable-background:new 0 0 612 612;" xml:space="preserve">
<style type="text/css">
	.st0{fill:#AAAAAA;}
</style>
<g>
	<g id="youtube">
		<g>
			<path class="st0" d="M489.6,81.6H122.4C54.9,81.6,0,136.5,0,204v204c0,67.5,54.9,122.4,122.4,122.4h367.2
				c67.5,0,122.4-54.9,122.4-122.4V204C612,136.5,557.1,81.6,489.6,81.6z M584.8,408c0,52.5-42.7,95.2-95.2,95.2H122.4
				c-52.5,0-95.2-42.7-95.2-95.2V204c0-52.5,42.7-95.2,95.2-95.2h367.2c52.5,0,95.2,42.7,95.2,95.2V408z M217.6,421.1L416.9,306
				L217.6,190.9V421.1z M244.8,238l117.7,68L244.8,374V238z"/>
		</g>
	</g>
</g>
</svg>
