<?xml version="1.0" encoding="utf-8"?>
<!-- Generator: Adobe Illustrator 23.0.3, SVG Export Plug-In . SVG Version: 6.00 Build 0)  -->
<svg version="1.1" id="Capa_1" xmlns="http://www.w3.org/2000/svg" xmlns:xlink="http://www.w3.org/1999/xlink" x="0px" y="0px"
	 viewBox="0 0 612 612" style="enable-background:new 0 0 612 612;" xml:space="preserve">
<style type="text/css">
	.st0{fill:#D62B7F;}
</style>
<g>
	
		<ellipse transform="matrix(0.7071 -0.7071 0.7071 0.7071 -173.1355 325.2138)" class="st0" cx="306" cy="371.6" rx="72.9" ry="72.9"/>
	<path class="st0" d="M480.9,7.3H131.1C58.8,7.3,0,66.1,0,138.4v335.1c0,72.3,58.8,131.1,131.1,131.1h349.7
		c72.3,0,131.1-58.8,131.1-131.1V138.4C612,66.1,553.2,7.3,480.9,7.3z M423.9,118.2c0-18.4,15-33.3,33.3-33.3h56.2
		c18.3,0,33.3,14.9,33.3,33.3v56.1c0,18.4-15,33.3-33.3,33.3h-56.2c-18.4,0-33.3-15-33.3-33.3V118.2z M306,225.9
		c80.3,0,145.7,65.4,145.7,145.7S386.3,517.3,306,517.3s-145.7-65.4-145.7-145.7C160.3,291.2,225.7,225.9,306,225.9z M582.9,473.6
		c0,56.2-45.8,102-102,102H131.1c-56.2,0-102-45.8-102-102V255H176c-27.8,31-44.9,71.8-44.9,116.6c0,96.4,78.4,174.9,174.9,174.9
		S480.9,468,480.9,371.6c0-44.8-17.1-85.6-44.9-116.6h146.9V473.6z"/>
</g>
<circle class="st0" cx="306" cy="371.6" r="102"/>
</svg>
