<?xml version="1.0" encoding="utf-8"?>
<!-- Generator: Adobe Illustrator 23.0.3, SVG Export Plug-In . SVG Version: 6.00 Build 0)  -->
<svg version="1.1" id="Capa_1" xmlns="http://www.w3.org/2000/svg" xmlns:xlink="http://www.w3.org/1999/xlink" x="0px" y="0px"
	 viewBox="0 0 622 576" style="enable-background:new 0 0 622 576;" xml:space="preserve">
<style type="text/css">
	.st0{fill:none;}
	.st1{fill:#AAAAAA;}
	.st2{fill:#F49C0F;}
</style>
<g>
	<path class="st0" d="M592.2,442.6l0,0.7C592.2,443.1,592.2,442.9,592.2,442.6z"/>
	<path class="st0" d="M591.7,130.9c0,0-2.4-7.7-7-12.1c-4.6-4.3-12.7-6.7-12.7-6.7L311,328.5L50,112.1c0,0-8.4,2-13,6.4
		c-4.6,4.4-6.7,12.4-6.7,12.4l170.6,141.5l-171.1,171c0,0,0.7,7.5,5.3,12.5c4.6,5,13.1,7.5,13.1,7.5l173.6-173.6l80.5,66.7
		c2.4,2,5.5,3.2,8.7,3.2c3.2,0,6.3-1.1,8.7-3.2l80.5-66.7L570,460.4l0,0l0,0l2.9,2.9l-0.1,0.3c0.4-0.1,0.7-0.2,1.1-0.3
		c0,0,7.4-1.8,12.1-6.9c4.7-5.1,6.3-13,6.3-13l-171.1-171L591.7,130.9z"/>
	<polygon class="st1" points="570,460.4 572.8,463.6 572.8,463.3 	"/>
	<polygon class="st1" points="570,460.4 570,460.4 570,460.4 	"/>
	<path class="st2" d="M619.9,135.2c-0.7-12-5.5-23.4-13.8-32.6c-0.1-0.2-0.3-0.5-0.5-0.8c-0.3-0.3-0.5-0.5-0.8-0.7
		c-10.4-10.8-24.3-16.7-39.2-16.7H56.4c-14.9,0-28.8,5.9-39.3,16.7c-0.2,0.1-0.5,0.4-0.8,0.7c-0.2,0.3-0.4,0.6-0.5,0.8
		c-9,10-13.9,22.6-13.9,35.6v299.5c0,13.5,5.2,26.4,14.6,36.4c0.1,0.2,0.3,0.6,0.7,0.9c0.1,0.1,0.3,0.2,0.4,0.3
		c10.4,10.4,24.1,16.2,38.8,16.2h509.1c14.7,0,28.4-5.7,38.8-16.2c0.1-0.1,0.2-0.1,0.2-0.2l0.1-0.1c0.3-0.3,0.6-0.7,0.7-0.9
		c9.4-10.1,14.6-23,14.6-36.5L619.9,135.2L619.9,135.2z M592.2,443.4c0,0-1.6,8-6.3,13c-4.7,5.1-12.1,6.9-12.1,6.9
		c-0.4,0.1-0.7,0.2-1.1,0.3l-2.8-3.2l0,0L400.2,289.7l-80.5,66.7c-2.4,2-5.5,3.2-8.7,3.2c-3.2,0-6.3-1.1-8.7-3.2l-80.5-66.7
		L48.2,463.3c0,0-8.5-2.5-13.1-7.5c-4.6-5-5.3-12.5-5.3-12.5l171.1-171L30.3,130.9c0,0,2.1-7.9,6.7-12.4c4.6-4.4,13-6.4,13-6.4
		l261,216.4l261-216.4c0,0,8.2,2.4,12.7,6.7c4.6,4.3,7,12.1,7,12.1L421.1,272.4L592.2,443.4l0-0.7
		C592.2,442.9,592.2,443.1,592.2,443.4z"/>
</g>
</svg>
