<?xml version="1.0" encoding="utf-8"?>
<!-- Generator: Adobe Illustrator 23.0.3, SVG Export Plug-In . SVG Version: 6.00 Build 0)  -->
<svg version="1.1" id="Layer_1" xmlns="http://www.w3.org/2000/svg" xmlns:xlink="http://www.w3.org/1999/xlink" x="0px" y="0px"
	 viewBox="0 0 1050.6 499.9" style="enable-background:new 0 0 1050.6 499.9;" xml:space="preserve">
<style type="text/css">
	.st0{fill:#F17269;}
	.st1{fill:#98322C;}
	.st2{enable-background:new    ;}
</style>
<g>
	<path class="st0" d="M-2119.7-897.3c3.3,3.1,5.9,6.9,7.7,11.2c1.8,4.3,2.6,9,2.6,14.1c0,5-0.9,9.8-2.6,14.2
		c-1.7,4.5-4.3,8.3-7.6,11.4c-3.6,3.4-7.8,6-12.8,7.8s-10.6,2.7-17,2.7c-5.5,0-10.6-0.8-15.2-2.4c-4.6-1.6-8.7-4-12.3-7.1
		c-3.4-3-6.2-6.8-8.1-11.2c-2-4.5-3-9.4-3-15c0-5.4,0.9-10.3,2.6-14.5s4.4-8,7.8-11.3c3.3-3.2,7.5-5.6,12.4-7.4
		c4.9-1.7,10.4-2.6,16.5-2.6c6.3,0,11.9,0.9,16.7,2.6C-2127.2-902.9-2123.1-900.5-2119.7-897.3z M-2137.1-850.3
		c1-2.5,1.7-5.6,2.2-9.2s0.7-7.8,0.7-12.6c0-3.2-0.2-6.8-0.7-10.9c-0.5-4.1-1.1-7.3-2-9.6c-1.1-2.9-2.6-5.1-4.5-6.7
		c-1.9-1.6-4.4-2.4-7.3-2.4c-3.2,0-5.8,0.9-7.7,2.6c-1.9,1.8-3.4,4-4.4,6.9c-1,2.6-1.6,5.6-2,9.1s-0.5,7.1-0.5,10.8
		c0,4.9,0.2,9,0.5,12.2c0.3,3.2,1.1,6.5,2.3,9.7c1,2.8,2.5,5,4.5,6.7c1.9,1.6,4.4,2.4,7.4,2.4c2.7,0,5-0.8,7-2.3
		C-2139.7-845.1-2138.2-847.3-2137.1-850.3z"/>
	<path class="st0" d="M-2023.2-900.3c-2,0.3-4,1.1-5.9,2.3s-3.5,3.1-4.8,5.7c-3.2,6.6-6.3,13.3-9.3,20c-3.1,6.7-6.1,13.2-9,19.5
		c-0.9,1.9-1.9,4.3-3.1,7.3c-1.2,3-2.1,5.7-2.9,8.1h-12.5c-5.2-12.1-9.6-22.1-13.3-30.1s-7.6-16.5-11.7-25.7c-1-2.1-2.4-3.8-4.4-5
		s-4.1-2-6.1-2.2v-5h41.8v5c-1.5,0-3.3,0.4-5.4,1s-3.1,1.4-3.1,2.4c0,0.3,0.1,0.7,0.3,1.2c0.2,0.5,0.4,1.2,0.7,1.8
		c1.5,3.4,3.6,8.4,6.6,14.9s6,13.3,9.3,20.4c2.3-4.9,4.4-9.8,6.5-14.5c2.1-4.7,4.6-10.8,7.6-18.1c0.4-1.1,0.6-2,0.7-2.6
		s0.1-1.1,0.1-1.4c0-0.8-0.4-1.5-1.2-2.1c-0.8-0.6-1.7-1.1-2.8-1.6c-1.1-0.5-2.2-0.8-3.3-1c-1-0.2-1.9-0.4-2.6-0.5v-5h28v5.2
		L-2023.2-900.3L-2023.2-900.3z"/>
	<path class="st0" d="M-1948.8-854.2c-1.6,2.6-3.5,5-5.7,7.3s-4.8,4.2-7.6,5.9c-3,1.7-6.1,3-9.2,3.9s-6.7,1.3-10.7,1.3
		c-6.7,0-12.5-1-17.3-2.9c-4.9-1.9-8.9-4.5-12-7.7c-3.2-3.2-5.5-7-7.1-11.4s-2.3-9.1-2.3-14.2c0-4.6,0.8-9,2.5-13.3
		c1.7-4.2,4.1-8,7.2-11.3c3.1-3.2,7-5.8,11.6-7.8s9.9-3,15.7-3c6.3,0,11.5,0.8,15.6,2.3s7.4,3.7,10.1,6.4c2.6,2.6,4.5,5.6,5.6,9.1
		c1.2,3.5,1.8,7.2,1.8,11v4.4h-45.9c0,9.3,1.8,16.3,5.4,21.2c3.6,4.8,9.3,7.3,17,7.3c4.3,0,8.1-1.2,11.5-3.5s6.3-5.3,8.7-8.9
		L-1948.8-854.2z M-1974.8-880c0-2.7-0.1-5.5-0.4-8.3s-0.7-5.2-1.4-7c-0.8-2.1-1.8-3.7-3.2-4.8c-1.3-1.1-3-1.6-5.1-1.6
		c-3.5,0-6.3,1.8-8.3,5.3c-2.1,3.5-3.2,9.1-3.4,16.8L-1974.8-880z"/>
	<path class="st0" d="M-1874.7-892.9c0,3.4-1.1,6.5-3.2,9.1s-4.9,3.9-8.4,3.9c-3.3,0-6.1-0.8-8.4-2.5s-3.4-4.1-3.4-7.4
		c0-1.6,0.1-2.8,0.3-3.7c0.2-0.9,0.4-1.7,0.6-2.5c-2.1,0.1-4.3,0.8-6.6,2.2c-2.3,1.3-4.3,3.1-6.1,5.4v37.3c0,1.6,0.2,2.9,0.7,3.9
		s1.3,1.9,2.5,2.4c1,0.5,2.6,0.9,4.9,1.3c2.2,0.3,3.9,0.5,4.9,0.6v5h-45.4v-5c1.1-0.1,2.3-0.2,3.4-0.4c1.2-0.2,2.1-0.4,3-0.6
		c1.4-0.5,2.4-1.3,3-2.3c0.5-1,0.8-2.4,0.8-4.1v-39.5c0-1.6-0.4-3.1-1.2-4.4c-0.8-1.3-1.7-2.3-2.8-3.1c-0.8-0.5-1.8-1-3.1-1.4
		c-1.2-0.4-2.6-0.6-4.1-0.7v-5l32.4-1.8l1,1v9.8h0.3c3.1-3.6,6.4-6.5,9.9-8.5c3.5-2.1,7.2-3.1,11-3.1c4.2,0,7.6,1.3,10.1,3.9
		C-1876-900.4-1874.7-897-1874.7-892.9z"/>
</g>
<g>
	<path class="st0" d="M-2095.1-372h-42.9v-5c1.2-0.1,2.3-0.2,3.5-0.3c1.1-0.1,2.1-0.4,2.9-0.7c1.4-0.5,2.5-1.3,3.1-2.3
		s0.9-2.4,0.9-4v-39.5c0-1.6-0.4-3-1.1-4.2s-1.6-2.2-2.7-2.9c-0.8-0.5-2-1.1-3.7-1.6c-1.7-0.5-3.2-0.8-4.5-1v-5l33.3-1.8l1,1v53.9
		c0,1.6,0.3,2.9,1,4c0.7,1.1,1.7,1.9,2.9,2.5c0.9,0.4,1.9,0.8,3,1.1s2.2,0.5,3.4,0.7L-2095.1-372L-2095.1-372z M-2105-464.5
		c0,3.4-1.3,6.4-4,8.8c-2.7,2.4-5.8,3.6-9.4,3.6c-3.7,0-6.8-1.2-9.5-3.6c-2.7-2.4-4-5.4-4-8.8s1.3-6.4,4-8.8
		c2.7-2.4,5.8-3.7,9.5-3.7c3.7,0,6.8,1.2,9.4,3.7C-2106.3-470.9-2105-468-2105-464.5z"/>
	<path class="st0" d="M-1999.2-372h-40.8v-5c0.9-0.1,1.9-0.2,3.1-0.3s2.1-0.4,2.8-0.7c1-0.5,1.6-1.2,2-2.2s0.6-2.4,0.6-4.2v-31.8
		c0-4.6-0.9-8.1-2.6-10.4s-4.2-3.5-7.5-3.5c-1.8,0-3.5,0.3-5.1,0.8s-3.1,1.3-4.6,2.4c-1.3,0.9-2.4,1.8-3.2,2.8c-0.8,1-1.5,1.8-2,2.5
		v36.4c0,1.6,0.2,2.9,0.7,4s1.2,1.9,2.2,2.4c0.7,0.4,1.6,0.8,2.7,1.1s2.1,0.5,3.2,0.7v5h-41.3v-5c1.1-0.1,2.3-0.2,3.4-0.4
		c1.2-0.2,2.1-0.4,3-0.6c1.4-0.5,2.4-1.3,3-2.3c0.5-1,0.8-2.4,0.8-4.1v-39.5c0-1.4-0.4-2.8-1.1-4.1c-0.7-1.4-1.7-2.5-2.9-3.3
		c-0.8-0.5-1.8-1-3.1-1.4c-1.2-0.4-2.6-0.6-4.1-0.7v-5l32.4-1.8l1,1v9.8h0.3c1.3-1.1,2.8-2.5,4.6-4.1c1.8-1.6,3.5-2.9,5-3.9
		c1.7-1.1,3.9-2,6.6-2.8s5.6-1.2,8.7-1.2c7.4,0,12.9,2.1,16.6,6.3c3.7,4.2,5.5,9.7,5.5,16.7v33.3c0,1.7,0.2,3,0.7,4s1.4,1.8,2.8,2.4
		c0.7,0.3,1.6,0.6,2.7,1c1.1,0.3,2.3,0.5,3.6,0.7v5L-1999.2-372L-1999.2-372z"/>
	<path class="st0" d="M-1880.1-373.4c-2,0.9-4.3,1.7-7,2.4c-2.7,0.7-5.6,1.1-8.6,1.1c-5.6,0-9.6-0.8-12.3-2.5
		c-2.6-1.7-4.4-4-5.4-7.1h-0.4c-1.5,1.5-3,2.9-4.5,3.9s-3,2-4.6,2.8c-2.1,1-4.2,1.7-6.2,2.2s-4.7,0.7-8.3,0.7
		c-5.3,0-9.7-1.6-13.5-4.7c-3.7-3.1-5.6-7.2-5.6-12.3c0-2.9,0.4-5.4,1.2-7.5c0.8-2.1,2-3.9,3.5-5.5c1.4-1.5,2.9-2.7,4.7-3.6
		c1.8-1,3.8-1.8,5.9-2.7c4.1-1.5,9-3,14.7-4.7c5.7-1.6,9.9-3,12.5-4.3v-6.5c0-1.1-0.1-2.6-0.3-4.5c-0.2-1.9-0.6-3.4-1.2-4.7
		c-0.6-1.4-1.6-2.7-3-3.7s-3.1-1.5-5.4-1.5c-2,0-3.7,0.3-5,0.8c-1.3,0.6-2.4,1.1-3.2,1.7c0.1,0.9,0.5,2.3,1.2,4.1
		c0.6,1.9,1,3.6,1,5.4c0,0.8-0.2,1.7-0.6,2.9c-0.4,1.2-1,2.1-1.8,2.7c-1,0.9-2.2,1.6-3.5,2.1s-3.3,0.7-6,0.7c-3.8,0-6.7-0.9-8.6-2.7
		c-2-1.8-2.9-4.2-2.9-7.2c0-2.5,1-4.8,3-6.8s4.5-3.7,7.4-5c2.9-1.4,6.1-2.4,9.8-3.2c3.7-0.7,7.1-1.1,10.3-1.1
		c4.4,0,8.4,0.3,12.1,0.8s7,1.6,9.9,3.2c2.8,1.6,5,3.9,6.7,6.9s2.5,6.9,2.5,11.8c0,5.1-0.1,11.2-0.3,18.2s-0.3,11.6-0.3,13.8
		c0,2,0.3,3.6,0.9,4.8c0.6,1.2,1.5,2.1,2.8,2.6c0.8,0.4,2,0.6,3.6,0.6c1.7,0.1,3.2,0.1,4.5,0.1v5.5L-1880.1-373.4L-1880.1-373.4z
		 M-1913.7-408.8c-2.5,0.9-5.1,1.8-7.6,3c-2.5,1.1-4.5,2.3-6.1,3.5c-1.7,1.3-3,2.9-4,4.9s-1.4,4.3-1.4,7c0,3.5,0.8,6.1,2.4,7.7
		s3.6,2.4,6,2.4c2.5,0,4.6-0.5,6.2-1.5s3-2.3,4.3-3.8L-1913.7-408.8z"/>
	<path class="st0" d="M-1843.4-369.7c-4.4,0-8.7-0.6-12.9-1.9c-4.2-1.3-7.4-2.7-9.7-4.1l-2,4.6h-5.3l-0.9-25.3h5
		c0.7,2,1.8,4.3,3.4,6.9s3.4,4.9,5.4,6.9c2.1,2,4.6,3.8,7.3,5.2c2.7,1.4,5.7,2.1,8.8,2.1c4.1,0,7.2-0.8,9.2-2.4s3-4.1,3-7.4
		c0-1.8-0.5-3.3-1.4-4.5s-2.1-2.2-3.7-3.1c-1.8-0.9-3.7-1.7-5.8-2.3c-2.1-0.6-4.7-1.4-7.8-2.3c-3.1-0.9-5.7-1.8-7.9-2.7
		c-2.2-0.9-4.5-2.4-6.8-4.4c-2-1.8-3.7-3.9-4.9-6.4s-1.8-5.5-1.8-8.9c0-6.4,2.7-11.5,8-15.5s12.4-5.9,21.1-5.9
		c4.1,0,7.9,0.4,11.4,1.3c3.5,0.8,6.4,1.8,8.7,2.7l1.4-4h5.2l1.1,23.1h-4.8c-1.6-4.7-4.3-8.8-8.1-12.2c-3.8-3.4-8-5.1-12.4-5.1
		c-3.5,0-6.2,0.7-8.2,2.2c-2,1.4-3,3.5-3,6c0,3.4,1.5,5.9,4.4,7.5c2.9,1.5,7,3,12.2,4.3c8.1,2.1,14,4.9,17.8,8.5
		c3.7,3.6,5.6,8.2,5.6,13.7c0,7.4-2.9,13.2-8.7,17.2C-1826.5-371.7-1834-369.7-1843.4-369.7z"/>
	<path class="st0" d="M-1772.2-369.7c-4.4,0-8.7-0.6-12.9-1.9c-4.2-1.3-7.4-2.7-9.7-4.1l-2,4.6h-5.3l-0.9-25.3h5
		c0.7,2,1.8,4.3,3.4,6.9s3.4,4.9,5.4,6.9c2.1,2,4.6,3.8,7.3,5.2c2.7,1.4,5.7,2.1,8.8,2.1c4.1,0,7.2-0.8,9.2-2.4s3-4.1,3-7.4
		c0-1.8-0.5-3.3-1.4-4.5s-2.1-2.2-3.7-3.1c-1.8-0.9-3.7-1.7-5.8-2.3c-2.1-0.6-4.7-1.4-7.8-2.3c-3.1-0.9-5.7-1.8-7.9-2.7
		c-2.2-0.9-4.5-2.4-6.8-4.4c-2-1.8-3.7-3.9-4.9-6.4s-1.8-5.5-1.8-8.9c0-6.4,2.7-11.5,8-15.5s12.4-5.9,21.1-5.9
		c4.1,0,7.9,0.4,11.4,1.3c3.5,0.8,6.4,1.8,8.7,2.7l1.4-4h5.2l1.1,23.1h-4.8c-1.6-4.7-4.3-8.8-8.1-12.2c-3.8-3.4-8-5.1-12.4-5.1
		c-3.5,0-6.2,0.7-8.2,2.2c-2,1.4-3,3.5-3,6c0,3.4,1.5,5.9,4.4,7.5c2.9,1.5,7,3,12.2,4.3c8.1,2.1,14,4.9,17.8,8.5
		c3.7,3.6,5.6,8.2,5.6,13.7c0,7.4-2.9,13.2-8.7,17.2C-1755.2-371.7-1762.8-369.7-1772.2-369.7z"/>
	<path class="st0" d="M-1659.3-388.2c-1.6,2.6-3.5,5-5.7,7.3s-4.8,4.2-7.6,5.9c-3,1.7-6.1,3-9.2,3.9s-6.7,1.3-10.7,1.3
		c-6.7,0-12.5-1-17.3-2.9c-4.9-1.9-8.9-4.5-12-7.7c-3.2-3.2-5.5-7-7.1-11.4s-2.3-9.1-2.3-14.2c0-4.6,0.8-9,2.5-13.3
		c1.7-4.2,4.1-8,7.2-11.3c3.1-3.2,7-5.8,11.6-7.8s9.9-3,15.7-3c6.3,0,11.5,0.8,15.6,2.3s7.4,3.7,10.1,6.4c2.6,2.6,4.5,5.6,5.6,9.1
		c1.2,3.5,1.8,7.2,1.8,11v4.4h-45.9c0,9.3,1.8,16.3,5.4,21.2c3.6,4.8,9.3,7.3,17,7.3c4.3,0,8.1-1.2,11.5-3.5s6.3-5.3,8.7-8.9
		L-1659.3-388.2z M-1685.3-414c0-2.7-0.1-5.5-0.4-8.3s-0.7-5.2-1.4-7c-0.8-2.1-1.8-3.7-3.2-4.8c-1.3-1.1-3-1.6-5.1-1.6
		c-3.5,0-6.3,1.8-8.3,5.3c-2.1,3.5-3.2,9.1-3.4,16.8L-1685.3-414z"/>
	<path class="st0" d="M-1602.3-375.1c-2.9,1.3-6,2.4-9.3,3.4s-7.3,1.5-12.1,1.5c-7.1,0-12.3-1.7-15.7-5.2c-3.4-3.4-5.1-8.3-5.1-14.7
		v-41.6h-12.2v-7.4h12.5v-20.6h22v20.6h19.1v7.4h-18.9v37.1c0,5.3,0.7,9,2.2,11.3c1.5,2.2,4.1,3.3,7.9,3.3c1.2,0,2.9-0.1,5.1-0.3
		s3.7-0.4,4.6-0.6L-1602.3-375.1L-1602.3-375.1z"/>
	<path class="st0" d="M-1566.2-369.7c-4.4,0-8.7-0.6-12.9-1.9c-4.2-1.3-7.4-2.7-9.7-4.1l-2,4.6h-5.3l-0.9-25.3h5
		c0.7,2,1.8,4.3,3.4,6.9s3.4,4.9,5.4,6.9c2.1,2,4.6,3.8,7.3,5.2c2.7,1.4,5.7,2.1,8.8,2.1c4.1,0,7.2-0.8,9.2-2.4s3-4.1,3-7.4
		c0-1.8-0.5-3.3-1.4-4.5s-2.1-2.2-3.7-3.1c-1.8-0.9-3.7-1.7-5.8-2.3c-2.1-0.6-4.7-1.4-7.8-2.3c-3.1-0.9-5.7-1.8-7.9-2.7
		c-2.2-0.9-4.5-2.4-6.8-4.4c-2-1.8-3.7-3.9-4.9-6.4s-1.8-5.5-1.8-8.9c0-6.4,2.7-11.5,8-15.5s12.4-5.9,21.1-5.9
		c4.1,0,7.9,0.4,11.4,1.3c3.5,0.8,6.4,1.8,8.7,2.7l1.4-4h5.2l1.1,23.1h-4.8c-1.6-4.7-4.3-8.8-8.1-12.2c-3.8-3.4-8-5.1-12.4-5.1
		c-3.5,0-6.2,0.7-8.2,2.2c-2,1.4-3,3.5-3,6c0,3.4,1.5,5.9,4.4,7.5c2.9,1.5,7,3,12.2,4.3c8.1,2.1,14,4.9,17.8,8.5
		c3.7,3.6,5.6,8.2,5.6,13.7c0,7.4-2.9,13.2-8.7,17.2C-1549.2-371.7-1556.8-369.7-1566.2-369.7z"/>
</g>
<g>
	<path class="st0" d="M-2142.4-605.7c0,30.1-11.5,54.4-34.5,72.9s-51.4,28.9-85.2,31.2v68.2h-24v-68.2c-34.1-0.6-63.2-8.5-87.3-23.4
		c-24.1-15-36.2-32.3-36.2-52c0-11.5,3.5-21.2,10.5-29.1c7-7.9,16.6-11.9,29-11.9c12.8,0,23,3.4,30.5,10.1
		c7.5,6.7,11.3,15.8,11.3,27.3c0,8.2-1.4,16.5-4.1,24.9c-2.8,8.3-5,14.8-6.8,19.5c4.3,2.3,11.6,5.2,21.6,8.7
		c10.1,3.6,20.6,5.3,31.5,5.3v-108.9c-2.3-0.3-4.5-0.6-6.6-0.8s-4.5-0.5-7.3-0.8c-31.1-2.9-55.6-12.3-73.5-28.1
		c-18-15.9-26.9-36.6-26.9-62.1c0-11.3,2.1-22.4,6.3-33.2c4.2-10.8,10.7-20.9,19.4-30.3c8.9-9.7,20.7-17.8,35.3-24.4
		c14.6-6.6,32.4-10.5,53.3-11.8v-52.9h24v52.9c33.2,1.3,60,8.2,80.6,20.7c20.5,12.5,30.8,28,30.8,46.5c0,11-3.4,20.3-10.1,28
		s-16,11.5-27.8,11.5c-12.3,0-22-3.2-29.1-9.7s-10.7-15.2-10.7-26.2c0-7.6,1.3-15,3.8-22.3s4.7-13.8,6.7-19.7
		c-4.4-2.3-10.5-4.1-18.3-5.6c-7.8-1.5-16.5-2.3-25.8-2.7v99.2c2.4,0.2,5.5,0.6,9.2,1.2c3.7,0.6,7,1.1,9.7,1.5
		c33.2,4.9,58.2,15.4,75.2,31.5C-2150.9-652.6-2142.4-631.6-2142.4-605.7z M-2286-705.2v-97.1c-18.5,1.9-32.7,7.4-42.5,16.3
		c-9.8,8.9-14.7,19.6-14.7,32c0,14.4,4,25.3,12.1,32.8c8,7.4,19.7,12.3,35,14.6c2.4,0.3,4.3,0.6,5.5,0.8
		C-2289.5-705.6-2288-705.4-2286-705.2z M-2199.4-577.1c0-13.4-4-24.3-11.8-32.6c-7.9-8.3-20.4-14.1-37.5-17.3
		c-1.8-0.3-3.9-0.6-6.3-1c-2.4-0.3-4.8-0.6-7-1v106.8c22.1-2.1,38-8.2,47.9-18.3C-2204.3-550.7-2199.4-562.9-2199.4-577.1z"/>
	<path class="st0" d="M-1887.4-506h-200.2v-18.4c4.9-0.3,12.6-1.1,23.2-2.4c10.6-1.3,17.8-2.6,21.7-3.9c4.9-1.6,8.7-4.4,11.4-8.2
		c2.7-3.9,4.1-9.2,4.1-16v-153.8h-61.4v-23.1h13.3c14.1,0,26.2-1.5,36.5-4.6s18.8-6.8,25.6-11.2c7-4.5,12.7-9.2,17.1-14.1
		c4.4-4.9,8-9.1,10.6-12.9h42.7c-0.5,10.5-1,22.8-1.5,36.9c-0.5,14.1-0.7,26.7-0.7,37.9v142.2c0,5.8,1.3,10.9,3.8,15.2
		s6.1,7.6,10.8,9.8c4.2,1.9,11.2,3.7,21.1,5.3c9.9,1.6,17.1,2.6,21.8,2.9L-1887.4-506L-1887.4-506z"/>
	<path class="st0" d="M-1552.8-664c10.4,7.1,18.8,16.1,25.2,26.8c6.5,10.8,9.7,23.4,9.7,38c0,17.5-3.7,32.2-11,44.3
		c-7.4,12.1-17.9,21.6-31.7,28.5c-14.6,7.4-31.3,12.7-50.3,15.8c-19,3.1-41.4,4.6-67.1,4.6h-178.8v-18.9c5-0.5,11.3-1.2,18.9-2.2
		s12.9-2.1,16-3.4c6-2.4,10.1-5.6,12.3-9.6c2.2-4,3.3-9.1,3.3-15.4v-242.6c0-5.8-0.9-10.7-2.7-14.6c-1.8-3.9-6.1-7.3-12.9-10.2
		c-5-2.1-10.8-3.8-17.5-5.2c-6.6-1.4-12.5-2.5-17.5-3.3v-18.9h187.1c47.1,0,81,6.5,101.9,19.4s31.3,32,31.3,57.3
		c0,11.6-2.3,21.9-7,30.7s-11.4,16.5-20.1,22.9c-7.9,6-17.4,11.2-28.4,15.5c-11,4.4-22.8,8-35.4,10.9v4.6
		c12.6,1.3,25.7,4.1,39.3,8.4C-1574.6-676.3-1562.8-670.8-1552.8-664z M-1630.9-767.6c0-19.1-5.4-34-16.1-44.6
		c-10.8-10.7-26.9-16-48.4-16c-3.1,0-7.1,0.1-12,0.4c-4.9,0.2-9.2,0.4-12.7,0.6v127.6h12.6c26.2,0,45.5-6.1,58-18.3
		C-1637.1-730.2-1630.9-746.7-1630.9-767.6z M-1613.9-602.2c0-24-7.1-42.4-21.4-55.2c-14.2-12.8-34.7-19.2-61.4-19.2
		c-3.1,0-7.2,0.1-12.3,0.4s-8.9,0.4-11.3,0.6v126.1c1.5,6,6,11.1,13.6,15.2s16.8,6.2,27.7,6.2c19.2,0,34.9-6.5,47-19.4
		C-1619.9-560.5-1613.9-578.7-1613.9-602.2z"/>
</g>
<g>
	<path class="st0" d="M-970.1-372h-42.9v-5c1.2-0.1,2.3-0.2,3.5-0.3c1.1-0.1,2.1-0.4,2.9-0.7c1.4-0.5,2.5-1.3,3.1-2.3s0.9-2.4,0.9-4
		v-39.5c0-1.6-0.4-3-1.1-4.2c-0.7-1.2-1.6-2.2-2.7-2.9c-0.8-0.5-2-1.1-3.7-1.6s-3.2-0.8-4.5-1v-5l33.3-1.8l1,1v53.9
		c0,1.6,0.3,2.9,1,4s1.7,1.9,2.9,2.5c0.9,0.4,1.9,0.8,3,1.1s2.2,0.5,3.4,0.7v5.1L-970.1-372L-970.1-372z M-980-464.5
		c0,3.4-1.3,6.4-4,8.8s-5.8,3.6-9.4,3.6c-3.7,0-6.8-1.2-9.5-3.6s-4-5.4-4-8.8s1.3-6.4,4-8.8s5.8-3.7,9.5-3.7s6.8,1.2,9.4,3.7
		C-981.3-470.9-980-468-980-464.5z"/>
	<path class="st0" d="M-874.2-372H-915v-5c0.9-0.1,1.9-0.2,3.1-0.3c1.2-0.1,2.1-0.4,2.8-0.7c1-0.5,1.6-1.2,2-2.2s0.6-2.4,0.6-4.2
		v-31.8c0-4.6-0.9-8.1-2.6-10.4c-1.7-2.3-4.2-3.5-7.5-3.5c-1.8,0-3.5,0.3-5.1,0.8s-3.1,1.3-4.6,2.4c-1.3,0.9-2.4,1.8-3.2,2.8
		s-1.5,1.8-2,2.5v36.4c0,1.6,0.2,2.9,0.7,4s1.2,1.9,2.2,2.4c0.7,0.4,1.6,0.8,2.7,1.1s2.1,0.5,3.2,0.7v5H-964v-5
		c1.1-0.1,2.3-0.2,3.4-0.4c1.2-0.2,2.1-0.4,3-0.6c1.4-0.5,2.4-1.3,3-2.3c0.5-1,0.8-2.4,0.8-4.1v-39.5c0-1.4-0.4-2.8-1.1-4.1
		c-0.7-1.4-1.7-2.5-2.9-3.3c-0.8-0.5-1.8-1-3.1-1.4c-1.2-0.4-2.6-0.6-4.1-0.7v-5l32.4-1.8l1,1v9.8h0.3c1.3-1.1,2.8-2.5,4.6-4.1
		s3.5-2.9,5-3.9c1.7-1.1,3.9-2,6.6-2.8c2.7-0.8,5.6-1.2,8.7-1.2c7.4,0,12.9,2.1,16.6,6.3c3.7,4.2,5.5,9.7,5.5,16.7v33.3
		c0,1.7,0.2,3,0.7,4s1.4,1.8,2.8,2.4c0.7,0.3,1.6,0.6,2.7,1s2.3,0.5,3.6,0.7v5L-874.2-372L-874.2-372z"/>
	<path class="st0" d="M-790.6-434.3c-2,0.3-4,1.1-5.9,2.3s-3.5,3.1-4.8,5.7c-3.2,6.6-6.3,13.3-9.3,20c-3.1,6.7-6.1,13.2-9,19.5
		c-0.9,1.9-1.9,4.3-3.1,7.3c-1.2,3-2.1,5.7-2.9,8.1h-12.5c-5.2-12.1-9.6-22.1-13.3-30.1s-7.6-16.5-11.7-25.7c-0.9-2.1-2.4-3.8-4.4-5
		s-4.1-2-6.1-2.2v-5h41.8v5c-1.5,0-3.3,0.4-5.4,1c-2.1,0.6-3.1,1.4-3.1,2.4c0,0.3,0.1,0.7,0.3,1.2s0.4,1.2,0.7,1.8
		c1.5,3.4,3.6,8.4,6.6,14.9s6,13.3,9.3,20.4c2.3-4.9,4.4-9.8,6.5-14.5s4.6-10.8,7.6-18.1c0.4-1.1,0.6-2,0.7-2.6
		c0.1-0.7,0.1-1.1,0.1-1.4c0-0.8-0.4-1.5-1.2-2.1s-1.7-1.1-2.8-1.6s-2.2-0.8-3.3-1c-1-0.2-1.9-0.4-2.6-0.5v-5h28v5.2L-790.6-434.3
		L-790.6-434.3z"/>
	<path class="st0" d="M-716.2-388.2c-1.6,2.6-3.5,5-5.7,7.3s-4.8,4.2-7.6,5.9c-3,1.7-6.1,3-9.2,3.9c-3.1,0.9-6.7,1.3-10.7,1.3
		c-6.7,0-12.5-1-17.3-2.9c-4.9-1.9-8.9-4.5-12-7.7c-3.2-3.2-5.5-7-7.1-11.4s-2.3-9.1-2.3-14.2c0-4.6,0.8-9,2.5-13.3
		c1.7-4.2,4.1-8,7.2-11.3c3.1-3.2,7-5.8,11.6-7.8s9.9-3,15.7-3c6.3,0,11.5,0.8,15.6,2.3s7.4,3.7,10.1,6.4c2.6,2.6,4.5,5.6,5.6,9.1
		c1.2,3.5,1.8,7.2,1.8,11v4.4h-45.9c0,9.3,1.8,16.3,5.4,21.2c3.6,4.8,9.3,7.3,17,7.3c4.3,0,8.1-1.2,11.5-3.5s6.3-5.3,8.7-8.9
		L-716.2-388.2z M-742.1-414c0-2.7-0.1-5.5-0.4-8.3s-0.7-5.2-1.4-7c-0.8-2.1-1.8-3.7-3.2-4.8s-3-1.6-5.1-1.6c-3.5,0-6.3,1.8-8.3,5.3
		c-2.1,3.5-3.2,9.1-3.4,16.8L-742.1-414z"/>
	<path class="st0" d="M-678.2-369.7c-4.4,0-8.7-0.6-12.9-1.9s-7.4-2.7-9.7-4.1l-2,4.6h-5.3l-0.9-25.3h5c0.7,2,1.8,4.3,3.4,6.9
		c1.6,2.6,3.4,4.9,5.4,6.9c2.1,2,4.6,3.8,7.3,5.2c2.7,1.4,5.7,2.1,8.8,2.1c4.1,0,7.2-0.8,9.2-2.4s3-4.1,3-7.4c0-1.8-0.5-3.3-1.4-4.5
		s-2.1-2.2-3.7-3.1c-1.8-0.9-3.7-1.7-5.8-2.3c-2.1-0.6-4.7-1.4-7.8-2.3s-5.7-1.8-7.9-2.7c-2.2-0.9-4.5-2.4-6.8-4.4
		c-2-1.8-3.7-3.9-4.9-6.4s-1.8-5.5-1.8-8.9c0-6.4,2.7-11.5,8-15.5s12.4-5.9,21.1-5.9c4.1,0,7.9,0.4,11.4,1.3
		c3.5,0.8,6.4,1.8,8.7,2.7l1.4-4h5.2l1.1,23.1h-4.8c-1.6-4.7-4.3-8.8-8.1-12.2c-3.8-3.4-8-5.1-12.4-5.1c-3.5,0-6.2,0.7-8.2,2.2
		c-2,1.4-3,3.5-3,6c0,3.4,1.5,5.9,4.4,7.5c2.9,1.5,7,3,12.2,4.3c8.1,2.1,14,4.9,17.8,8.5c3.7,3.6,5.6,8.2,5.6,13.7
		c0,7.4-2.9,13.2-8.7,17.2C-661.3-371.7-668.9-369.7-678.2-369.7z"/>
	<path class="st0" d="M-587.9-375.1c-2.9,1.3-6,2.4-9.3,3.4s-7.3,1.5-12.1,1.5c-7.1,0-12.3-1.7-15.7-5.2c-3.4-3.4-5.1-8.3-5.1-14.7
		v-41.6h-12.2v-7.4h12.5v-20.6h22v20.6h19.1v7.4h-18.9v37.1c0,5.3,0.7,9,2.2,11.3c1.5,2.2,4.1,3.3,7.9,3.3c1.2,0,2.9-0.1,5.1-0.3
		c2.2-0.2,3.7-0.4,4.6-0.6L-587.9-375.1L-587.9-375.1z"/>
	<path class="st0" d="M-513.9-431.3c3.3,3.1,5.9,6.9,7.7,11.2c1.8,4.3,2.6,9,2.6,14.1c0,5-0.9,9.8-2.6,14.2
		c-1.7,4.5-4.3,8.3-7.6,11.4c-3.6,3.4-7.8,6-12.8,7.8s-10.6,2.7-17,2.7c-5.5,0-10.6-0.8-15.2-2.4c-4.6-1.6-8.7-4-12.3-7.1
		c-3.4-3-6.2-6.8-8.1-11.2c-2-4.5-3-9.4-3-15c0-5.4,0.9-10.3,2.6-14.5c1.7-4.2,4.4-8,7.8-11.3c3.3-3.2,7.5-5.6,12.4-7.4
		c4.9-1.7,10.4-2.6,16.5-2.6c6.3,0,11.9,0.9,16.7,2.6C-521.4-436.9-517.3-434.5-513.9-431.3z M-531.2-384.3c1-2.5,1.7-5.6,2.2-9.2
		s0.7-7.8,0.7-12.6c0-3.2-0.2-6.8-0.7-10.9s-1.1-7.3-2-9.6c-1.1-2.9-2.6-5.1-4.5-6.7s-4.4-2.4-7.3-2.4c-3.2,0-5.8,0.9-7.7,2.6
		c-1.9,1.8-3.4,4-4.4,6.9c-1,2.6-1.6,5.6-2,9.1c-0.4,3.5-0.5,7.1-0.5,10.8c0,4.9,0.2,9,0.5,12.2c0.3,3.2,1.1,6.5,2.3,9.7
		c1,2.8,2.5,5,4.5,6.7s4.4,2.4,7.4,2.4c2.7,0,5-0.8,7-2.3C-533.9-379.1-532.4-381.3-531.2-384.3z"/>
	<path class="st0" d="M-427.2-426.9c0,3.4-1.1,6.5-3.2,9.1s-4.9,3.9-8.4,3.9c-3.3,0-6.1-0.8-8.4-2.5s-3.4-4.1-3.4-7.4
		c0-1.6,0.1-2.8,0.3-3.7c0.2-0.9,0.4-1.7,0.6-2.5c-2.1,0.1-4.3,0.8-6.6,2.2c-2.3,1.3-4.3,3.1-6.1,5.4v37.3c0,1.6,0.2,2.9,0.7,3.9
		s1.3,1.9,2.5,2.4c1,0.5,2.6,0.9,4.9,1.3c2.2,0.3,3.9,0.5,4.9,0.6v5h-45.4v-5c1.1-0.1,2.3-0.2,3.4-0.4c1.2-0.2,2.1-0.4,3-0.6
		c1.4-0.5,2.4-1.3,3-2.3c0.5-1,0.8-2.4,0.8-4.1v-39.5c0-1.6-0.4-3.1-1.2-4.4c-0.8-1.3-1.7-2.3-2.8-3.1c-0.8-0.5-1.8-1-3.1-1.4
		c-1.2-0.4-2.6-0.6-4.1-0.7v-5l32.4-1.8l1,1v9.8h0.3c3.1-3.6,6.4-6.5,9.9-8.5c3.5-2.1,7.2-3.1,11-3.1c4.2,0,7.6,1.3,10.1,3.9
		C-428.5-434.4-427.2-431-427.2-426.9z"/>
	<path class="st0" d="M-391.1-369.7c-4.4,0-8.7-0.6-12.9-1.9c-4.2-1.3-7.4-2.7-9.7-4.1l-2,4.6h-5.3l-0.9-25.3h5
		c0.7,2,1.8,4.3,3.4,6.9s3.4,4.9,5.4,6.9c2.1,2,4.6,3.8,7.3,5.2c2.7,1.4,5.7,2.1,8.8,2.1c4.1,0,7.2-0.8,9.2-2.4s3-4.1,3-7.4
		c0-1.8-0.5-3.3-1.4-4.5s-2.1-2.2-3.7-3.1c-1.8-0.9-3.7-1.7-5.8-2.3c-2.1-0.6-4.7-1.4-7.8-2.3c-3.1-0.9-5.7-1.8-7.9-2.7
		c-2.2-0.9-4.5-2.4-6.8-4.4c-2-1.8-3.7-3.9-4.9-6.4c-1.2-2.5-1.8-5.5-1.8-8.9c0-6.4,2.7-11.5,8-15.5c5.4-3.9,12.4-5.9,21.1-5.9
		c4.1,0,7.9,0.4,11.4,1.3c3.5,0.8,6.4,1.8,8.7,2.7l1.4-4h5.2l1.1,23.1h-4.8c-1.6-4.7-4.3-8.8-8.1-12.2c-3.8-3.4-8-5.1-12.4-5.1
		c-3.5,0-6.2,0.7-8.2,2.2c-2,1.4-3,3.5-3,6c0,3.4,1.5,5.9,4.4,7.5c2.9,1.5,7,3,12.2,4.3c8.1,2.1,14,4.9,17.8,8.5s5.6,8.2,5.6,13.7
		c0,7.4-2.9,13.2-8.7,17.2S-381.7-369.7-391.1-369.7z"/>
</g>
<g>
	<path class="st1" d="M-1064.1-1444.2h-200.2v-18.4c4.9-0.3,12.6-1.1,23.2-2.4s17.8-2.6,21.7-3.9c4.9-1.6,8.7-4.4,11.4-8.2
		c2.7-3.9,4.1-9.2,4.1-16v-153.8h-61.3v-23.1h13.3c14.1,0,26.2-1.5,36.5-4.6s18.8-6.8,25.6-11.2c7-4.5,12.7-9.2,17.1-14.1
		s8-9.1,10.6-12.9h42.7c-0.5,10.5-1,22.8-1.5,36.9s-0.7,26.7-0.7,37.9v142.2c0,5.8,1.2,10.9,3.8,15.2c2.5,4.3,6.1,7.6,10.8,9.8
		c4.2,1.9,11.2,3.7,21.1,5.3s17.1,2.6,21.8,2.9V-1444.2L-1064.1-1444.2z"/>
	<path class="st1" d="M-816.4-1559.2c12.1,8.1,22.3,19,30.6,32.6c8.2,13.7,12.4,30.6,12.4,50.8c0,35.6-13.8,64.7-41.4,87.2
		c-27.6,22.6-62.8,33.8-105.7,33.8c-33.2,0-60.8-7.1-83-21.4c-22.2-14.2-33.2-31.1-33.2-50.5c0-11.5,3.7-21.2,11-29.1
		c7.4-7.9,17.2-11.9,29.5-11.9c12.8,0,23.3,3.4,31.4,10.3c8.2,6.9,12.3,16.1,12.3,27.5c0,8.1-1.4,16.9-4.1,26.4
		c-2.8,9.5-5,16.8-6.8,21.8c3.9,1.5,8.4,2.5,13.6,3.3c5.2,0.7,10,1.1,14.6,1.1c9.2,0,18.3-2.1,27.2-6.2s16.5-10.2,22.8-18.1
		c7.3-9.1,12.8-19.8,16.5-32.1c3.7-12.4,5.6-26.4,5.6-42.1c0-22.8-6.1-41.5-18.3-56.2c-12.2-14.6-28.1-22-47.5-22
		c-15.1,0-27.7,3-37.9,9.1s-19.4,14-27.5,23.9l-18.7-6.3l23.4-178.2h205v67H-972l-10.1,80.1c8.7-5.5,20-10.7,33.7-15.8
		c13.7-5,29.9-7.5,48.5-7.5c14.4,0,28.6,1.6,42.6,4.7S-829.6-1568-816.4-1559.2z"/>
	<path class="st1" d="M-465.3-1670.3c12.3,12.9,21.4,27.7,27.3,44.3c5.9,16.6,8.9,33.8,8.9,51.6c0,21.2-3.7,40.3-11,57.4
		c-7.4,17.1-17.4,31.5-30.2,43.3c-13.4,12.3-29,21.7-46.8,28.1c-17.8,6.5-38.3,9.7-61.4,9.7c-24.4,0-46-3.8-64.7-11.4
		s-34.3-17.6-46.7-30.1c-12.3-12.3-21.6-26.8-28-43.4c-6.4-16.7-9.6-34.5-9.6-53.6c0-18.9,3-36.5,9.1-52.7s15.4-30.8,28-43.9
		c12.3-12.8,27.9-23,46.8-30.7c18.9-7.7,40.7-11.5,65.3-11.5c25.4,0,47.6,4,66.5,11.9C-492.9-1693.5-477.4-1683.1-465.3-1670.3z
		 M-533.7-1489.6c4.7-10.8,8-22.9,10.1-36.3c2-13.3,3-29.6,3-48.6c0-17.1-0.9-32.6-2.8-46.3c-1.9-13.7-5-26-9.3-36.6
		c-4.5-11-10.5-19.5-18-25.5c-7.4-6-16.6-9-27.4-9c-11,0-20.2,3-27.7,8.9c-7.4,5.9-13.5,14.3-18.2,25.1c-4.2,9.9-7.3,22-9.2,36.3
		s-2.9,30-2.9,47.2c0,18,0.8,33.2,2.5,45.9c1.7,12.6,4.8,24.7,9.3,36.4c4,10.5,9.9,19,17.5,25.5s17,9.7,28.1,9.7
		c10.4,0,19.3-2.9,26.9-8.7C-544-1471.6-538.1-1479.5-533.7-1489.6z"/>
</g>
<g>
	<path class="st1" d="M-699.6-1372.5c-2,0.3-4,1.1-5.9,2.3c-1.9,1.2-3.5,3.1-4.8,5.7c-3.9,8.2-7.9,17-12,26.3s-8.7,19.4-13.7,30.2
		c-2.8,6.1-5.5,10.9-8.1,14.5s-5.1,6.4-7.4,8.3c-2.2,1.8-4.3,3.1-6.4,3.9c-2.1,0.8-4.3,1.2-6.4,1.2c-4.3,0-7.8-1.2-10.4-3.6
		c-2.6-2.4-4-5.1-4-8.1c0-1.3,0.1-2.4,0.4-3.5c0.3-1.1,0.9-2.2,1.9-3.4c0.7-1,1.8-1.8,3.4-2.5c1.5-0.7,3.2-1.1,5.1-1.1
		c2.5,0,5,0.9,7.3,2.6c2.3,1.8,4.7,4.2,7.2,7.3c1.5-1.5,3.3-3.7,5.5-6.7s3.8-6,4.8-9.2c-5.4-11.3-10.2-21.1-14.3-29.4
		c-4.2-8.3-8.8-17.6-14-27.8c-1.1-2.2-2.6-3.9-4.5-5.1s-3.9-1.9-6-2.2v-5h41.3v5c-1.5,0-3.3,0.4-5.3,1s-3,1.4-3,2.4
		c0,0.4,0.1,0.8,0.2,1.2c0.1,0.4,0.4,1.1,0.7,1.9c1.5,3.2,3.7,7.5,6.5,13.2c2.8,5.6,6.1,12.2,9.9,19.7c2.8-6.4,5.2-11.9,7.1-16.5
		c2-4.6,3.9-9.2,5.7-13.6c0.5-1.1,0.7-2,0.8-2.7s0.1-1.1,0.1-1.3c0-0.8-0.4-1.5-1.2-2.1s-1.7-1.1-2.8-1.6s-2.2-0.8-3.2-1
		s-1.9-0.4-2.6-0.5v-5h28L-699.6-1372.5L-699.6-1372.5z"/>
	<path class="st1" d="M-625.2-1326.4c-1.6,2.6-3.5,5-5.7,7.3s-4.8,4.2-7.6,5.9c-3,1.7-6.1,3-9.2,3.9c-3.1,0.9-6.7,1.3-10.7,1.3
		c-6.7,0-12.5-1-17.3-2.9s-8.9-4.5-12-7.7s-5.5-7-7.1-11.4s-2.3-9.1-2.3-14.2c0-4.6,0.8-9,2.5-13.3c1.7-4.2,4.1-8,7.2-11.3
		c3.1-3.2,7-5.8,11.6-7.8c4.7-2,9.9-3,15.7-3c6.3,0,11.5,0.8,15.6,2.3s7.4,3.7,10.1,6.4c2.6,2.6,4.5,5.6,5.6,9.1
		c1.2,3.5,1.8,7.2,1.8,11v4.4h-45.9c0,9.3,1.8,16.3,5.4,21.2c3.6,4.8,9.3,7.3,17,7.3c4.3,0,8.1-1.2,11.5-3.5s6.3-5.3,8.7-8.9
		L-625.2-1326.4z M-651.2-1352.2c0-2.7-0.1-5.5-0.4-8.3c-0.3-2.8-0.7-5.2-1.4-7c-0.8-2.1-1.8-3.7-3.2-4.8c-1.3-1.1-3-1.6-5.1-1.6
		c-3.5,0-6.3,1.8-8.3,5.3c-2.1,3.5-3.2,9.1-3.4,16.8L-651.2-1352.2z"/>
	<path class="st1" d="M-541.1-1311.6c-2,0.9-4.3,1.7-7,2.4c-2.7,0.7-5.6,1.1-8.6,1.1c-5.6,0-9.6-0.8-12.3-2.5
		c-2.6-1.7-4.4-4-5.4-7.1h-0.4c-1.5,1.5-3,2.9-4.5,3.9s-3,2-4.6,2.8c-2.1,1-4.2,1.7-6.2,2.2s-4.7,0.7-8.3,0.7
		c-5.3,0-9.7-1.6-13.5-4.7c-3.7-3.1-5.6-7.2-5.6-12.3c0-2.9,0.4-5.4,1.2-7.5s2-3.9,3.5-5.5c1.4-1.5,2.9-2.7,4.7-3.6
		c1.8-1,3.8-1.8,5.9-2.7c4.1-1.5,9-3,14.7-4.7c5.7-1.6,9.9-3,12.5-4.3v-6.5c0-1.1-0.1-2.6-0.3-4.5s-0.6-3.4-1.2-4.7
		c-0.6-1.4-1.6-2.7-3-3.7s-3.1-1.5-5.4-1.5c-2,0-3.7,0.3-5,0.8c-1.3,0.6-2.4,1.1-3.2,1.7c0.1,0.9,0.5,2.3,1.2,4.1
		c0.6,1.9,1,3.6,1,5.4c0,0.8-0.2,1.7-0.6,2.9c-0.4,1.2-1,2.1-1.8,2.7c-1,0.9-2.2,1.6-3.5,2.1s-3.3,0.7-6,0.7c-3.8,0-6.7-0.9-8.6-2.7
		c-2-1.8-2.9-4.2-2.9-7.2c0-2.5,1-4.8,3-6.8s4.5-3.7,7.4-5c2.9-1.4,6.1-2.4,9.8-3.2c3.7-0.7,7.1-1.1,10.3-1.1
		c4.4,0,8.4,0.3,12.1,0.8c3.7,0.5,7,1.6,9.9,3.2c2.8,1.6,5,3.9,6.7,6.9s2.5,6.9,2.5,11.8c0,5.1-0.1,11.2-0.3,18.2
		s-0.3,11.6-0.3,13.8c0,2,0.3,3.6,0.9,4.8c0.6,1.2,1.5,2.1,2.8,2.6c0.8,0.4,2,0.6,3.6,0.6c1.7,0.1,3.2,0.1,4.5,0.1v5.5
		L-541.1-1311.6L-541.1-1311.6z M-574.8-1347c-2.5,0.9-5.1,1.8-7.6,3s-4.5,2.3-6.1,3.5c-1.7,1.3-3,2.9-3.9,4.9c-1,2-1.4,4.3-1.4,7
		c0,3.5,0.8,6.1,2.4,7.7c1.6,1.6,3.6,2.4,6,2.4c2.5,0,4.6-0.5,6.2-1.5c1.6-1,3-2.3,4.3-3.8L-574.8-1347z"/>
	<path class="st1" d="M-468.3-1365.1c0,3.4-1.1,6.5-3.2,9.1s-4.9,3.9-8.4,3.9c-3.3,0-6.1-0.8-8.4-2.5s-3.4-4.1-3.4-7.4
		c0-1.6,0.1-2.8,0.3-3.7s0.4-1.7,0.6-2.5c-2.1,0.1-4.3,0.8-6.6,2.2c-2.3,1.3-4.3,3.1-6.1,5.4v37.3c0,1.6,0.2,2.9,0.7,3.9
		s1.3,1.9,2.5,2.4c1,0.5,2.6,0.9,4.9,1.3c2.2,0.3,3.9,0.5,4.9,0.6v5h-45.4v-5c1.1-0.1,2.3-0.2,3.4-0.4c1.2-0.2,2.1-0.4,3-0.6
		c1.4-0.5,2.4-1.3,3-2.3c0.5-1,0.8-2.4,0.8-4.1v-39.5c0-1.6-0.4-3.1-1.2-4.4c-0.8-1.3-1.7-2.3-2.8-3.1c-0.8-0.5-1.8-1-3.1-1.4
		c-1.2-0.4-2.6-0.6-4.1-0.7v-5l32.4-1.8l1,1v9.8h0.3c3.1-3.6,6.4-6.5,9.9-8.5c3.5-2.1,7.2-3.1,11-3.1c4.2,0,7.6,1.3,10.1,3.9
		C-469.6-1372.6-468.3-1369.2-468.3-1365.1z"/>
	<path class="st1" d="M-432.2-1307.9c-4.4,0-8.7-0.6-12.9-1.9c-4.2-1.3-7.4-2.7-9.7-4.1l-2,4.6h-5.3l-0.9-25.3h5
		c0.7,2,1.8,4.3,3.4,6.9s3.4,4.9,5.4,6.9c2.1,2,4.6,3.8,7.3,5.2s5.7,2.1,8.8,2.1c4.1,0,7.2-0.8,9.2-2.4s3-4.1,3-7.4
		c0-1.8-0.5-3.3-1.4-4.5s-2.2-2.2-3.7-3.1c-1.8-0.9-3.7-1.7-5.8-2.3s-4.7-1.4-7.8-2.3c-3.1-0.9-5.7-1.8-7.9-2.7s-4.5-2.4-6.8-4.4
		c-2-1.8-3.7-3.9-4.9-6.4s-1.8-5.5-1.8-8.9c0-6.4,2.7-11.5,8-15.5s12.4-5.9,21.1-5.9c4.1,0,7.9,0.4,11.4,1.3
		c3.5,0.8,6.4,1.8,8.7,2.7l1.4-4h5.2l1.1,23.1h-4.8c-1.6-4.7-4.3-8.8-8.1-12.2s-8-5.1-12.4-5.1c-3.5,0-6.2,0.7-8.2,2.2
		c-2,1.4-3,3.5-3,6c0,3.4,1.5,5.9,4.4,7.5c2.9,1.5,7,3,12.2,4.3c8.1,2.1,14,4.9,17.8,8.5c3.7,3.6,5.6,8.2,5.6,13.7
		c0,7.4-2.9,13.2-8.7,17.2C-415.3-1309.9-422.8-1307.9-432.2-1307.9z"/>
	<path class="st1" d="M-1101.6-1186.4c-1.6,2.6-3.5,5-5.7,7.3s-4.8,4.2-7.6,5.9c-3,1.7-6.1,3-9.2,3.9s-6.7,1.3-10.7,1.3
		c-6.7,0-12.5-1-17.3-2.9c-4.9-1.9-8.9-4.5-12-7.7c-3.2-3.2-5.5-7-7.1-11.4s-2.3-9.1-2.3-14.2c0-4.6,0.8-9,2.5-13.3
		c1.7-4.2,4.1-8,7.2-11.3c3.1-3.2,7-5.8,11.6-7.8c4.7-2,9.9-3,15.7-3c6.3,0,11.5,0.8,15.6,2.3s7.4,3.7,10.1,6.4
		c2.6,2.6,4.5,5.6,5.6,9.1c1.2,3.5,1.8,7.2,1.8,11v4.4h-45.9c0,9.3,1.8,16.3,5.4,21.2s9.3,7.3,17,7.3c4.3,0,8.1-1.2,11.5-3.5
		s6.3-5.3,8.7-8.9L-1101.6-1186.4z M-1127.6-1212.2c0-2.7-0.1-5.5-0.4-8.3s-0.7-5.2-1.4-7c-0.8-2.1-1.8-3.7-3.2-4.8
		c-1.3-1.1-3-1.6-5.1-1.6c-3.5,0-6.3,1.8-8.3,5.3c-2.1,3.5-3.2,9.1-3.4,16.8L-1127.6-1212.2z"/>
	<path class="st1" d="M-1017.7-1170.2h-42.4v-5c2.2-0.1,4.1-0.3,5.6-0.6c1.5-0.2,2.2-0.8,2.2-1.5c0-0.4-0.2-0.9-0.6-1.7
		c-0.4-0.8-0.9-1.6-1.5-2.6c-0.9-1.4-2.3-3.6-4.5-6.7c-2.1-3-4.1-5.9-5.9-8.4c-2.6,3-4.8,5.6-6.6,7.8c-1.8,2.2-3.6,4.5-5.6,7
		c-0.7,0.8-1.2,1.6-1.4,2.2c-0.2,0.6-0.4,1.1-0.4,1.2c0,1,0.7,1.8,2.2,2.4c1.5,0.5,3.2,0.8,5.3,0.8v5h-27.6v-5
		c3.7-0.8,6.6-2,8.8-3.7c2.2-1.7,3.7-3,4.5-3.9c3.3-3.5,6.1-6.5,8.4-8.8s5.4-5.6,9.2-9.9c-2.6-3.6-5.7-7.9-9.4-13.1
		c-3.7-5.1-6.7-9.4-9.2-12.6c-1.2-1.6-2.7-2.9-4.5-3.8s-4.1-1.5-6.9-1.7v-5h41.5v5c-1.5,0-3,0.1-4.4,0.3c-1.4,0.2-2.2,0.5-2.2,1
		c0,0.4,0.1,0.8,0.3,1.4s0.5,1.1,0.9,1.7c0.9,1.4,2.2,3.6,4.1,6.4c1.9,2.8,3.8,5.7,6,8.8c2-2.5,3.7-4.5,5.1-6.1s3.2-3.8,5.3-6.7
		c0.8-1.1,1.3-1.9,1.5-2.4c0.2-0.5,0.3-0.9,0.3-1c0-0.8-0.5-1.5-1.5-2.1s-2.9-1-5.7-1.1v-5h27v5c-2.2,0.4-4.4,1.1-6.4,2.2
		c-2.1,1.1-4.3,2.9-6.5,5.3c-3.5,3.7-6.1,6.3-7.7,8c-1.6,1.7-4.3,4.5-8,8.4c2.1,2.9,5.1,7.2,9,12.8c3.9,5.6,7.3,10.3,10.2,14.2
		c1.2,1.7,2.6,3.1,4.1,4.2c1.5,1.1,3.9,1.8,7.2,2.2v5.1L-1017.7-1170.2L-1017.7-1170.2z"/>
	<path class="st1" d="M-930.7-1203.2c0,9.5-3.2,17.7-9.6,24.6c-6.4,6.9-14.4,10.2-24.2,10.2c-4.3,0-7.9-0.4-10.6-1.3s-4.9-2-6.7-3.2
		h-0.5v19.1c0,1.6,0.3,3,1.1,4.1c0.7,1.2,1.7,2,3,2.6c1.2,0.5,3,1,5.2,1.4s4.1,0.7,5.6,0.7v5h-49.2v-5c1.1-0.1,2.6-0.3,4.3-0.5
		s3-0.5,3.9-0.8c1.4-0.5,2.4-1.3,3-2.5c0.5-1.2,0.8-2.6,0.8-4.1v-69.4c-0.1-1.5-0.5-2.8-1.1-3.9s-1.5-2.1-2.7-3
		c-0.9-0.6-2.1-1.1-3.6-1.5s-3-0.6-4.4-0.8v-5l33.1-1.8l1,0.9v7.5l0.5,0.1c3-3,6.3-5.4,9.9-7.1c3.6-1.7,7.2-2.5,10.8-2.5
		c9.4,0,16.7,3.3,22.2,9.9C-933.4-1222.8-930.7-1214-930.7-1203.2z M-955.1-1203c0-3.4-0.2-6.6-0.7-9.7s-1.4-5.9-2.6-8.3
		s-2.8-4.4-4.8-5.8s-4.5-2.2-7.3-2.2c-2.9,0-5.3,0.5-7,1.5c-1.8,1-3.3,2.3-4.6,4v38.5c0.3,0.9,0.8,2.1,1.6,3.5s1.5,2.6,2.3,3.4
		c1.1,1.2,2.4,2.1,3.9,2.7c1.4,0.6,3,0.9,4.7,0.9c4.5,0,8-2.4,10.7-7.2C-956.4-1186.6-955.1-1193.6-955.1-1203z"/>
	<path class="st1" d="M-849-1186.4c-1.6,2.6-3.5,5-5.7,7.3s-4.8,4.2-7.6,5.9c-3,1.7-6.1,3-9.2,3.9c-3.1,0.9-6.7,1.3-10.7,1.3
		c-6.7,0-12.5-1-17.3-2.9c-4.9-1.9-8.9-4.5-12-7.7c-3.2-3.2-5.5-7-7.1-11.4s-2.3-9.1-2.3-14.2c0-4.6,0.8-9,2.5-13.3
		c1.7-4.2,4.1-8,7.2-11.3c3.1-3.2,7-5.8,11.6-7.8c4.7-2,9.9-3,15.7-3c6.3,0,11.5,0.8,15.6,2.3s7.4,3.7,10.1,6.4
		c2.6,2.6,4.5,5.6,5.6,9.1c1.2,3.5,1.8,7.2,1.8,11v4.4h-45.9c0,9.3,1.8,16.3,5.4,21.2c3.6,4.9,9.3,7.3,17,7.3
		c4.3,0,8.1-1.2,11.5-3.5s6.3-5.3,8.7-8.9L-849-1186.4z M-874.9-1212.2c0-2.7-0.1-5.5-0.4-8.3c-0.3-2.8-0.7-5.2-1.4-7
		c-0.8-2.1-1.8-3.7-3.2-4.8c-1.3-1.1-3-1.6-5.1-1.6c-3.5,0-6.3,1.8-8.3,5.3c-2.1,3.5-3.2,9.1-3.4,16.8L-874.9-1212.2z"/>
	<path class="st1" d="M-774.9-1225.1c0,3.4-1.1,6.5-3.2,9.1c-2.1,2.6-4.9,3.9-8.4,3.9c-3.3,0-6.1-0.8-8.4-2.5s-3.4-4.1-3.4-7.4
		c0-1.6,0.1-2.8,0.3-3.7c0.2-0.9,0.4-1.7,0.6-2.5c-2.1,0.1-4.3,0.8-6.6,2.2c-2.3,1.3-4.3,3.1-6.1,5.4v37.3c0,1.6,0.2,2.9,0.7,3.9
		s1.3,1.9,2.5,2.4c1,0.5,2.6,0.9,4.9,1.3c2.2,0.3,3.9,0.5,4.9,0.6v5h-45.4v-5c1.1-0.1,2.3-0.2,3.4-0.4c1.2-0.2,2.1-0.4,3-0.6
		c1.4-0.5,2.4-1.3,3-2.3c0.5-1,0.8-2.4,0.8-4.1v-39.5c0-1.6-0.4-3.1-1.2-4.4s-1.7-2.3-2.8-3.1c-0.8-0.5-1.8-1-3.1-1.4
		c-1.2-0.4-2.6-0.6-4.1-0.7v-5l32.4-1.8l1,1v9.8h0.3c3.1-3.6,6.4-6.5,9.9-8.5c3.5-2.1,7.2-3.1,11-3.1c4.2,0,7.6,1.3,10.1,3.9
		C-776.2-1232.6-774.9-1229.2-774.9-1225.1z"/>
	<path class="st1" d="M-727.3-1170.2h-42.9v-5c1.2-0.1,2.3-0.2,3.5-0.3s2.1-0.4,2.9-0.7c1.4-0.5,2.5-1.3,3.1-2.3s0.9-2.4,0.9-4
		v-39.5c0-1.6-0.4-3-1.1-4.2c-0.7-1.2-1.6-2.2-2.7-2.9c-0.8-0.5-2-1.1-3.7-1.6s-3.2-0.8-4.5-1v-5l33.3-1.8l1,1v53.9
		c0,1.6,0.3,2.9,1,4s1.7,1.9,2.9,2.5c0.9,0.4,1.9,0.8,3,1.1c1.1,0.3,2.2,0.5,3.4,0.7v5.1L-727.3-1170.2L-727.3-1170.2z
		 M-737.2-1262.7c0,3.4-1.3,6.4-4,8.8c-2.6,2.4-5.8,3.6-9.4,3.6c-3.7,0-6.8-1.2-9.5-3.6c-2.6-2.4-4-5.4-4-8.8s1.3-6.4,4-8.8
		c2.6-2.4,5.8-3.7,9.5-3.7s6.8,1.2,9.4,3.7C-738.5-1269.1-737.2-1266.2-737.2-1262.7z"/>
	<path class="st1" d="M-648.1-1186.4c-1.6,2.6-3.5,5-5.7,7.3s-4.8,4.2-7.6,5.9c-3,1.7-6.1,3-9.2,3.9c-3.1,0.9-6.7,1.3-10.7,1.3
		c-6.7,0-12.5-1-17.3-2.9c-4.9-1.9-8.9-4.5-12-7.7c-3.2-3.2-5.5-7-7.1-11.4s-2.3-9.1-2.3-14.2c0-4.6,0.8-9,2.5-13.3
		c1.7-4.2,4.1-8,7.2-11.3c3.1-3.2,7-5.8,11.6-7.8s9.9-3,15.7-3c6.3,0,11.5,0.8,15.6,2.3s7.4,3.7,10.1,6.4c2.6,2.6,4.5,5.6,5.6,9.1
		c1.2,3.5,1.8,7.2,1.8,11v4.4h-45.9c0,9.3,1.8,16.3,5.4,21.2c3.6,4.8,9.3,7.3,17,7.3c4.3,0,8.1-1.2,11.5-3.5s6.3-5.3,8.7-8.9
		L-648.1-1186.4z M-674-1212.2c0-2.7-0.1-5.5-0.4-8.3c-0.3-2.8-0.7-5.2-1.4-7c-0.8-2.1-1.8-3.7-3.2-4.8s-3-1.6-5.1-1.6
		c-3.5,0-6.3,1.8-8.3,5.3c-2.1,3.5-3.2,9.1-3.4,16.8L-674-1212.2z"/>
	<path class="st1" d="M-552-1170.2h-40.8v-5c0.9-0.1,1.9-0.2,3.1-0.3c1.2-0.1,2.1-0.4,2.8-0.7c1-0.5,1.6-1.2,2-2.2s0.6-2.4,0.6-4.2
		v-31.8c0-4.6-0.9-8.1-2.6-10.4c-1.7-2.3-4.2-3.5-7.5-3.5c-1.8,0-3.5,0.3-5.1,0.8s-3.1,1.3-4.6,2.4c-1.3,0.9-2.4,1.8-3.2,2.8
		s-1.5,1.8-2,2.5v36.4c0,1.6,0.2,2.9,0.7,4s1.2,1.9,2.2,2.4c0.7,0.4,1.6,0.8,2.7,1.1s2.1,0.5,3.2,0.7v5h-41.1v-5
		c1.1-0.1,2.3-0.2,3.4-0.4c1.2-0.2,2.1-0.4,3-0.6c1.4-0.5,2.4-1.3,3-2.3c0.5-1,0.8-2.4,0.8-4.1v-39.5c0-1.4-0.4-2.8-1.1-4.1
		s-1.7-2.5-2.9-3.3c-0.8-0.5-1.8-1-3.1-1.4c-1.2-0.4-2.6-0.6-4.1-0.7v-5l32.4-1.8l1,1v9.8h0.3c1.3-1.1,2.8-2.5,4.6-4.1
		s3.5-2.9,5-3.9c1.7-1.1,3.9-2,6.6-2.8c2.7-0.8,5.6-1.2,8.7-1.2c7.4,0,12.9,2.1,16.6,6.3c3.7,4.2,5.5,9.7,5.5,16.7v33.3
		c0,1.7,0.2,3,0.7,4s1.4,1.8,2.8,2.4c0.7,0.3,1.6,0.6,2.7,1c1.1,0.3,2.3,0.5,3.6,0.7L-552-1170.2L-552-1170.2z"/>
	<path class="st1" d="M-506.9-1168c-6.3,0-11.8-0.9-16.7-2.7c-4.8-1.8-8.8-4.3-11.9-7.5c-3.1-3.2-5.5-7-7-11.4s-2.3-9.2-2.3-14.3
		c0-4.7,0.9-9.2,2.8-13.4c1.9-4.3,4.4-8,7.6-11.2c3.3-3.3,7.4-5.9,12.3-7.9s10.3-3,16.3-3c8.3,0,14.9,1.6,19.8,4.7
		c4.8,3.1,7.3,7.4,7.3,12.7c0,3.3-0.9,5.9-2.6,7.9s-4.7,3-8.9,3c-3.4,0-6.2-0.8-8.5-2.4s-3.4-3.8-3.4-6.4c0-2.2,0.4-4.4,1.1-6.6
		s1.2-3.8,1.3-5c-0.5-0.8-1.1-1.4-1.9-1.9c-0.8-0.4-2-0.6-3.6-0.6c-2,0-3.9,0.5-5.6,1.4c-1.7,0.9-3.2,2.6-4.7,5
		c-1.4,2.3-2.5,5.3-3.4,9.1c-0.8,3.8-1.3,8.4-1.3,13.7c0,8.1,1.9,14.5,5.7,19.5c3.8,4.9,8.3,7.4,13.5,7.4c5,0,9-1.1,12-3.4
		c3-2.2,5.6-5.4,7.9-9.5l5.1,3.5c-1.4,2.8-3.1,5.3-5,7.6s-4.3,4.3-7,6.1c-2.9,1.9-5.7,3.3-8.7,4.2
		C-499.6-1168.5-503-1168-506.9-1168z"/>
	<path class="st1" d="M-398.9-1186.4c-1.6,2.6-3.5,5-5.7,7.3s-4.8,4.2-7.6,5.9c-3,1.7-6.1,3-9.2,3.9s-6.7,1.3-10.7,1.3
		c-6.7,0-12.5-1-17.3-2.9c-4.9-1.9-8.9-4.5-12-7.7s-5.5-7-7.1-11.4s-2.3-9.1-2.3-14.2c0-4.6,0.8-9,2.5-13.3c1.7-4.2,4.1-8,7.2-11.3
		c3.1-3.2,7-5.8,11.6-7.8s9.9-3,15.7-3c6.3,0,11.5,0.8,15.6,2.3s7.4,3.7,10.1,6.4c2.6,2.6,4.5,5.6,5.6,9.1c1.2,3.5,1.8,7.2,1.8,11
		v4.4h-45.9c0,9.3,1.8,16.3,5.4,21.2c3.6,4.8,9.3,7.3,17,7.3c4.3,0,8.1-1.2,11.5-3.5s6.3-5.3,8.7-8.9L-398.9-1186.4z M-424.8-1212.2
		c0-2.7-0.1-5.5-0.4-8.3s-0.7-5.2-1.4-7c-0.8-2.1-1.8-3.7-3.2-4.8c-1.3-1.1-3-1.6-5.1-1.6c-3.5,0-6.3,1.8-8.3,5.3
		c-2.1,3.5-3.2,9.1-3.4,16.8L-424.8-1212.2z"/>
</g>
<g>
	<path class="st0" d="M-1008.6-618.3c0,34.3-12.9,63-38.7,86.1c-25.8,23.1-58.8,34.7-98.9,34.7c-41.9,0-75.5-13.1-100.9-39.4
		s-38.1-61.6-38.1-105.9c0-59.2,20-108.1,59.9-146.8c40-38.7,94.2-62,162.8-70.1l5.6,24l-25.7,4.4c-19.6,5.3-36,12.7-49.1,22
		c-13.2,9.3-24.1,19.9-32.6,31.9c-8.2,11.5-14.7,24.5-19.4,38.9c-4.7,14.5-8.2,28.8-10.7,42.8c14.1-12.6,28-21.1,41.9-25.5
		c13.8-4.4,28.7-6.6,44.5-6.6c27.8,0,51.4,10.2,70.6,30.5C-1018.3-677-1008.6-650.7-1008.6-618.3z M-1098.4-611.8
		c0-25.6-4.5-45.9-13.5-60.9s-21-22.6-36-22.6c-10,0-18.7,1.7-26.1,5.1c-7.4,3.4-14.8,10.5-22.2,21.4c0,0.8,0,2.2-0.1,4.2
		s-0.2,4.7-0.4,7.9c-0.2,3.6-0.3,6.9-0.4,9.9c-0.1,3.1-0.1,5.7-0.1,7.8c0,38.8,4.7,68.5,14.2,89.2c9.5,20.6,21.6,30.9,36.5,30.9
		c14.4,0,26-8.1,34.8-24.3C-1102.8-559.3-1098.4-582.2-1098.4-611.8z"/>
	<path class="st0" d="M-662.9-506h-114.3c-14.1-24.7-26.9-45.6-38.5-62.8s-22.6-33.1-33-47.8l-14.3,12.1v52.9
		c0,5.8,0.8,10.6,2.5,14.3s5,6.5,9.8,8.2c2.9,1.3,6.3,2.4,10.2,3.4s7.8,1.6,11.6,1.9v17.7h-150.7v-17.7c4.1-0.3,8.1-0.8,12.2-1.3
		c4.1-0.6,7.7-1.3,10.7-2.3c5.2-1.8,8.8-4.5,10.6-8.2c1.9-3.7,2.8-8.6,2.8-14.6v-270.5c0-5.3-1.2-10.9-3.5-16.6
		c-2.3-5.7-5.8-10.1-10.3-13c-3.1-1.9-7.7-3.6-13.8-4.9c-6.1-1.3-11.7-2.1-16.7-2.4v-17.7l120.8-6.3l3.6,3.9v250.4
		c12-10.7,25.4-23,40.3-37.1c14.9-14.1,26.9-25.7,36-34.9c5.3-5.5,8.3-9.7,8.9-12.5c0.6-2.8,0.8-4.6,0.8-5.2c0-2.9-2.6-5.3-7.7-7.3
		c-5.1-1.9-12.8-3.6-23.1-5.1v-17.2h123.3v16.7c-16.2,4.5-28.5,8.8-36.9,12.7c-8.5,4-17.7,9.3-27.7,15.9c-6.6,4.4-13,8.9-19.2,13.7
		s-13.3,10.7-21.4,17.9c15.8,23,30.4,44.2,43.8,63.8c13.4,19.6,27.5,40.3,42.1,62.1c5,7.6,11.2,12.7,18.7,15.3
		c7.4,2.6,14.9,4.2,22.3,4.9v17.6L-662.9-506L-662.9-506z"/>
	<path class="st0" d="M-365.2-625.4H-480v114.8h-39.8v-114.8h-114.8v-39.8h114.8V-780h39.8v114.8h114.8V-625.4z"/>
</g>
<text transform="matrix(1 0 0 1 1112.2225 -730.9579)" class="st0" style="font-family:'Georgia-Bold'; font-size:494.0601px;">1971</text>
<text transform="matrix(1 0 0 1 1136.5223 -1032.2422)" class="st0" style="font-family:'Georgia-Bold'; font-size:141.2228px;">since</text>
<g>
	<g class="st2">
		<path class="st0" d="M214.6,408h-199v-18.3c4.8-0.3,12.5-1.1,23-2.4s17.7-2.6,21.6-3.9c4.8-1.6,8.6-4.3,11.3-8.2
			c2.7-3.9,4.1-9.2,4.1-15.9v-153h-61v-22.9h13.3c14,0,26.1-1.5,36.3-4.6s18.7-6.8,25.5-11.1c6.9-4.5,12.6-9.2,17-14
			s7.9-9.1,10.5-12.8h42.5c-0.5,10.5-1,22.7-1.4,36.7c-0.5,14-0.7,26.5-0.7,37.6v141.4c0,5.8,1.2,10.8,3.7,15.1
			c2.5,4.3,6.1,7.5,10.7,9.8c4.2,1.9,11.2,3.7,21,5.3c9.8,1.6,17,2.6,21.7,2.9V408H214.6z"/>
		<path class="st0" d="M523.6,285.5c0,58.5-19.8,106.4-59.3,143.7s-93.6,60.3-162.1,69.4l-5.5-23.9l25.6-4.3
			c19.8-5.6,36.2-12.9,49.2-21.7c13-8.8,23.7-19.1,32.1-30.9c8.7-12.1,15.3-24.8,19.8-38.4c4.5-13.5,7.9-27.4,10.1-41.7
			c-14.2,12.4-27.9,20.5-41.1,24.5c-13.3,3.9-28.2,5.9-44.8,5.9c-13.8,0-26.8-2.7-38.8-8.2c-12.1-5.5-22.5-12.9-31.4-22.4
			c-9-9.6-16-21.3-21.1-34.9s-7.6-28.3-7.6-44.3c0-33.9,13-62,39.1-84.3s58.6-33.4,97.7-33.4c42.3,0,75.9,13.1,100.8,39.3
			C511.1,206,523.6,241.2,523.6,285.5z M435.6,298.7c0-2.2,0.1-5,0.2-8.2c0.2-3.2,0.2-6.4,0.2-9.4c0-38.6-4.6-68.2-13.9-88.7
			c-9.2-20.5-21.3-30.8-36.1-30.8c-14.3,0-25.9,7.8-34.9,23.4c-8.9,15.6-13.4,38.1-13.4,67.5c0,25.7,4.5,46.2,13.6,61.5
			s21,22.9,35.8,22.9c9.3,0,17.9-1.8,25.8-5.5s15.2-10.6,22-20.7c0-0.8,0.1-2.2,0.2-4.2C435.5,304.6,435.6,301.9,435.6,298.7z"/>
		<path class="st0" d="M824.4,176.9L648.8,497h-36.1l162.7-283.9H664.7c-14,0-24.9,0.1-32.8,0.2c-7.9,0.2-15.1,1.8-21.7,4.8
			c-5.3,2.4-9.9,8-13.6,16.8c-3.8,8.8-6.8,19.5-9,32.2H570V148.2h254.5v28.7H824.4z"/>
		<path class="st0" d="M1050.5,408h-199v-18.3c4.8-0.3,12.5-1.1,23-2.4s17.7-2.6,21.6-3.9c4.8-1.6,8.6-4.3,11.3-8.2
			c2.7-3.9,4.1-9.2,4.1-15.9v-153h-61v-22.9h13.3c14,0,26.1-1.5,36.3-4.6s18.7-6.8,25.5-11.1c6.9-4.5,12.6-9.2,17-14
			s7.9-9.1,10.5-12.8h42.5c-0.5,10.5-1,22.7-1.4,36.7c-0.5,14-0.7,26.5-0.7,37.6v141.4c0,5.8,1.2,10.8,3.7,15.1
			c2.5,4.3,6.1,7.5,10.7,9.8c4.2,1.9,11.2,3.7,21,5.3c9.8,1.6,17,2.6,21.7,2.9L1050.5,408L1050.5,408z"/>
	</g>
	<g class="st2">
		<path class="st0" d="M46.6,109.1c-4.5,0-8.8-0.7-13.1-2c-4.3-1.3-7.6-2.7-9.9-4.2l-2.1,4.7h-5.4l-0.9-25.7h5
			c0.7,2.1,1.8,4.4,3.4,7c1.6,2.6,3.4,4.9,5.5,7c2.2,2.1,4.6,3.8,7.4,5.2s5.8,2.1,8.9,2.1c4.2,0,7.3-0.8,9.3-2.4
			c2-1.6,3.1-4.1,3.1-7.6c0-1.8-0.5-3.4-1.4-4.6s-2.2-2.2-3.8-3.1c-1.8-0.9-3.8-1.7-5.9-2.3c-2.1-0.6-4.8-1.4-7.9-2.3
			c-3.1-0.9-5.8-1.8-8-2.8s-4.5-2.4-6.9-4.4c-2.1-1.8-3.7-4-5-6.5s-1.9-5.5-1.9-9c0-6.5,2.7-11.7,8.2-15.7c5.4-4,12.6-6,21.4-6
			c4.2,0,8,0.4,11.5,1.3s6.5,1.8,8.9,2.8l1.4-4.1h5.2L74.7,60h-4.8c-1.6-4.8-4.4-8.9-8.3-12.4s-8.1-5.2-12.6-5.2
			c-3.5,0-6.3,0.7-8.3,2.2s-3,3.5-3,6.1c0,3.5,1.5,6,4.4,7.6c3,1.6,7.1,3,12.4,4.4c8.2,2.1,14.2,5,18,8.7s5.7,8.3,5.7,14
			c0,7.5-3,13.4-8.9,17.5C63.8,107,56.1,109.1,46.6,109.1z"/>
		<path class="st0" d="M130.7,106.7H87.1v-5c1.2-0.1,2.4-0.2,3.5-0.3c1.1-0.1,2.1-0.4,3-0.7c1.5-0.6,2.5-1.3,3.1-2.4
			c0.6-1,0.9-2.4,0.9-4.1V54c0-1.6-0.4-3-1.1-4.2c-0.7-1.2-1.7-2.2-2.8-2.9c-0.8-0.6-2.1-1.1-3.8-1.6s-3.2-0.8-4.6-1v-5l33.8-1.8
			l1,1v54.8c0,1.6,0.3,3,1,4.1c0.7,1.1,1.7,2,3,2.5c0.9,0.4,1.9,0.8,3,1.1c1.1,0.3,2.3,0.6,3.4,0.7v5H130.7z M120.6,12.7
			c0,3.5-1.3,6.5-4,8.9c-2.7,2.5-5.9,3.7-9.6,3.7c-3.7,0-6.9-1.2-9.6-3.7c-2.7-2.5-4-5.4-4-8.9s1.3-6.5,4-9S103.3,0,107,0
			s6.9,1.2,9.6,3.7C119.3,6.2,120.6,9.2,120.6,12.7z"/>
		<path class="st0" d="M228,106.7h-41.4v-5c0.9-0.1,1.9-0.2,3.2-0.3c1.2-0.1,2.2-0.4,2.8-0.7c1-0.5,1.7-1.2,2.1-2.2
			c0.4-1,0.6-2.4,0.6-4.3V61.9c0-4.7-0.9-8.2-2.6-10.6c-1.7-2.4-4.3-3.6-7.6-3.6c-1.8,0-3.6,0.3-5.2,0.8c-1.6,0.6-3.1,1.4-4.7,2.4
			c-1.3,0.9-2.4,1.9-3.2,2.8c-0.8,1-1.5,1.8-2,2.6v37c0,1.6,0.2,3,0.7,4c0.5,1.1,1.2,1.9,2.3,2.4c0.7,0.4,1.7,0.8,2.8,1.1
			s2.2,0.6,3.2,0.7v5h-41.9v-5c1.1-0.1,2.3-0.2,3.5-0.4s2.2-0.4,3-0.7c1.5-0.5,2.5-1.3,3-2.3c0.6-1.1,0.8-2.4,0.8-4.1V54
			c0-1.4-0.4-2.8-1.1-4.2c-0.7-1.4-1.7-2.5-2.9-3.4c-0.8-0.6-1.9-1-3.1-1.4c-1.3-0.4-2.7-0.6-4.2-0.8v-5l32.9-1.8l1,1v10h0.3
			c1.3-1.1,2.9-2.5,4.7-4.1s3.5-2.9,5.1-3.9c1.7-1.1,3.9-2,6.7-2.8s5.7-1.2,8.8-1.2c7.5,0,13.1,2.1,16.9,6.4
			c3.7,4.3,5.6,9.9,5.6,16.9v33.8c0,1.7,0.3,3.1,0.8,4.1s1.4,1.8,2.8,2.4c0.7,0.3,1.6,0.6,2.7,1c1.1,0.3,2.3,0.6,3.7,0.7v5H228z"/>
		<path class="st0" d="M273.8,108.9c-6.4,0-12-0.9-16.9-2.8c-4.9-1.9-8.9-4.4-12.1-7.6c-3.2-3.3-5.5-7.1-7.1-11.6s-2.3-9.3-2.3-14.5
			c0-4.8,1-9.3,2.9-13.7c1.9-4.3,4.5-8.1,7.8-11.4c3.4-3.4,7.5-6,12.5-8s10.5-3,16.5-3c8.5,0,15.1,1.6,20.1,4.8
			c4.9,3.2,7.4,7.5,7.4,12.9c0,3.3-0.9,6-2.6,8c-1.7,2-4.8,3-9,3c-3.4,0-6.3-0.8-8.7-2.5c-2.3-1.7-3.5-3.8-3.5-6.5
			c0-2.3,0.4-4.5,1.1-6.7s1.2-3.9,1.3-5c-0.5-0.8-1.1-1.5-1.9-1.9s-2-0.7-3.7-0.7c-2.1,0-4,0.5-5.7,1.4c-1.7,1-3.3,2.7-4.8,5.1
			c-1.4,2.3-2.6,5.4-3.4,9.2c-0.9,3.9-1.3,8.5-1.3,13.9c0,8.2,1.9,14.8,5.8,19.8c3.8,5,8.4,7.5,13.8,7.5c5.1,0,9.2-1.1,12.2-3.4
			s5.7-5.5,8-9.7l5.2,3.6c-1.4,2.8-3.1,5.4-5.1,7.7c-2,2.3-4.3,4.4-7.1,6.2c-2.9,1.9-5.8,3.3-8.8,4.3
			C281.2,108.4,277.8,108.9,273.8,108.9z"/>
		<path class="st0" d="M383.6,90.2c-1.6,2.6-3.6,5.1-5.8,7.4s-4.9,4.3-7.8,6c-3.1,1.7-6.2,3.1-9.3,4c-3.1,0.9-6.8,1.3-10.9,1.3
			c-6.8,0-12.7-1-17.6-2.9s-9-4.5-12.2-7.8s-5.6-7.1-7.2-11.6c-1.6-4.4-2.4-9.3-2.4-14.4c0-4.7,0.9-9.2,2.6-13.5s4.2-8.1,7.3-11.5
			c3.1-3.3,7.1-5.9,11.8-7.9c4.8-2,10.1-3,16-3c6.4,0,11.7,0.8,15.9,2.3c4.1,1.6,7.6,3.7,10.3,6.5c2.6,2.6,4.5,5.7,5.7,9.3
			c1.2,3.6,1.8,7.3,1.8,11.2v4.5h-46.6c0,9.4,1.8,16.6,5.4,21.5c3.6,4.9,9.4,7.4,17.3,7.4c4.3,0,8.2-1.2,11.7-3.6
			c3.4-2.4,6.4-5.4,8.8-9L383.6,90.2z M357.2,64c0-2.8-0.1-5.6-0.4-8.5s-0.8-5.3-1.4-7.1c-0.8-2.2-1.9-3.8-3.2-4.9
			c-1.4-1.1-3.1-1.7-5.1-1.7c-3.5,0-6.4,1.8-8.5,5.4s-3.3,9.3-3.4,17L357.2,64z"/>
	</g>
</g>
</svg>
