<?xml version="1.0" encoding="utf-8"?>
<!-- Generator: Adobe Illustrator 23.0.3, SVG Export Plug-In . SVG Version: 6.00 Build 0)  -->
<svg version="1.1" id="Layer_1" xmlns="http://www.w3.org/2000/svg" xmlns:xlink="http://www.w3.org/1999/xlink" x="0px" y="0px"
	 viewBox="0 0 904 554" style="enable-background:new 0 0 904 554;" xml:space="preserve">
<style type="text/css">
	.st0{fill:#F17269;}
	.st1{fill:#98322C;}
</style>
<g>
	<path class="st0" d="M298.5,14.7c3.3,3.1,5.9,6.9,7.7,11.2c1.8,4.3,2.6,9,2.6,14.1c0,5-0.9,9.8-2.6,14.2c-1.7,4.5-4.3,8.3-7.6,11.4
		c-3.6,3.4-7.8,6-12.8,7.8s-10.6,2.7-17,2.7c-5.5,0-10.6-0.8-15.2-2.4c-4.6-1.6-8.7-4-12.3-7.1c-3.4-3-6.2-6.8-8.1-11.2
		c-2-4.5-3-9.4-3-15c0-5.4,0.9-10.3,2.6-14.5c1.7-4.2,4.4-8,7.8-11.3c3.3-3.2,7.5-5.6,12.4-7.4c4.9-1.7,10.4-2.6,16.5-2.6
		c6.3,0,11.9,0.9,16.7,2.6C291,9.1,295.1,11.5,298.5,14.7z M281.1,61.7c1-2.5,1.7-5.6,2.2-9.2s0.7-7.8,0.7-12.6
		c0-3.2-0.2-6.8-0.7-10.9c-0.5-4.1-1.1-7.3-2-9.6c-1.1-2.9-2.6-5.1-4.5-6.7c-1.9-1.6-4.4-2.4-7.3-2.4c-3.2,0-5.8,0.9-7.7,2.6
		c-1.9,1.8-3.4,4-4.4,6.9c-1,2.6-1.6,5.6-2,9.1c-0.4,3.5-0.5,7.1-0.5,10.8c0,4.9,0.2,9,0.5,12.2c0.3,3.2,1.1,6.5,2.3,9.7
		c1,2.8,2.5,5,4.5,6.7c1.9,1.6,4.4,2.4,7.4,2.4c2.7,0,5-0.8,7-2.3C278.5,66.9,280,64.7,281.1,61.7z"/>
	<path class="st0" d="M395,11.7c-2,0.3-4,1.1-5.9,2.3c-1.9,1.2-3.5,3.1-4.8,5.7c-3.2,6.6-6.3,13.3-9.3,20c-3.1,6.7-6.1,13.2-9,19.5
		c-0.9,1.9-1.9,4.3-3.1,7.3s-2.1,5.7-2.9,8.1h-12.5c-5.2-12.1-9.6-22.1-13.3-30.1c-3.7-8-7.6-16.5-11.7-25.7c-1-2.1-2.4-3.8-4.4-5
		c-2-1.2-4.1-2-6.1-2.2v-5h41.8v5c-1.5,0-3.3,0.4-5.4,1c-2.1,0.6-3.1,1.4-3.1,2.4c0,0.3,0.1,0.7,0.3,1.2c0.2,0.5,0.4,1.2,0.7,1.8
		c1.5,3.4,3.6,8.4,6.6,14.9s6,13.3,9.3,20.4c2.3-4.9,4.4-9.8,6.5-14.5s4.6-10.8,7.6-18.1c0.4-1.1,0.6-2,0.7-2.6s0.1-1.1,0.1-1.4
		c0-0.8-0.4-1.5-1.2-2.1c-0.8-0.6-1.7-1.1-2.8-1.6c-1.1-0.5-2.2-0.8-3.3-1c-1-0.2-1.9-0.4-2.6-0.5v-5h28V11.7z"/>
	<path class="st0" d="M469.4,57.8c-1.6,2.6-3.5,5-5.7,7.3c-2.2,2.3-4.8,4.2-7.6,5.9c-3,1.7-6.1,3-9.2,3.9c-3.1,0.9-6.7,1.3-10.7,1.3
		c-6.7,0-12.5-1-17.3-2.9c-4.9-1.9-8.9-4.5-12-7.7c-3.2-3.2-5.5-7-7.1-11.4c-1.6-4.4-2.3-9.1-2.3-14.2c0-4.6,0.8-9,2.5-13.3
		c1.7-4.2,4.1-8,7.2-11.3c3.1-3.2,7-5.8,11.6-7.8s9.9-3,15.7-3c6.3,0,11.5,0.8,15.6,2.3c4.1,1.5,7.4,3.7,10.1,6.4
		c2.6,2.6,4.5,5.6,5.6,9.1c1.2,3.5,1.8,7.2,1.8,11V38h-45.9c0,9.3,1.8,16.3,5.4,21.2c3.6,4.8,9.3,7.3,17,7.3c4.3,0,8.1-1.2,11.5-3.5
		c3.4-2.3,6.3-5.3,8.7-8.9L469.4,57.8z M443.4,32c0-2.7-0.1-5.5-0.4-8.3s-0.7-5.2-1.4-7c-0.8-2.1-1.8-3.7-3.2-4.8
		c-1.3-1.1-3-1.6-5.1-1.6c-3.5,0-6.3,1.8-8.3,5.3c-2.1,3.5-3.2,9.1-3.4,16.8L443.4,32z"/>
	<path class="st0" d="M543.5,19.1c0,3.4-1.1,6.5-3.2,9.1c-2.1,2.6-4.9,3.9-8.4,3.9c-3.3,0-6.1-0.8-8.4-2.5c-2.3-1.7-3.4-4.1-3.4-7.4
		c0-1.6,0.1-2.8,0.3-3.7c0.2-0.9,0.4-1.7,0.6-2.5c-2.1,0.1-4.3,0.8-6.6,2.2c-2.3,1.3-4.3,3.1-6.1,5.4v37.3c0,1.6,0.2,2.9,0.7,3.9
		c0.5,1,1.3,1.9,2.5,2.4c1,0.5,2.6,0.9,4.9,1.3c2.2,0.3,3.9,0.5,4.9,0.6v5h-45.4v-5c1.1-0.1,2.3-0.2,3.4-0.4c1.2-0.2,2.1-0.4,3-0.6
		c1.4-0.5,2.4-1.3,3-2.3c0.5-1,0.8-2.4,0.8-4.1V22.2c0-1.6-0.4-3.1-1.2-4.4c-0.8-1.3-1.7-2.3-2.8-3.1c-0.8-0.5-1.8-1-3.1-1.4
		c-1.2-0.4-2.6-0.6-4.1-0.7v-5l32.4-1.8l1,1v9.8h0.3c3.1-3.6,6.4-6.5,9.9-8.5c3.5-2.1,7.2-3.1,11-3.1c4.2,0,7.6,1.3,10.1,3.9
		C542.2,11.6,543.5,15,543.5,19.1z"/>
</g>
<g>
	<path class="st0" d="M323.1,540h-42.9v-5c1.2-0.1,2.3-0.2,3.5-0.3c1.1-0.1,2.1-0.4,2.9-0.7c1.4-0.5,2.5-1.3,3.1-2.3
		c0.6-1,0.9-2.4,0.9-4v-39.5c0-1.6-0.4-3-1.1-4.2c-0.7-1.2-1.6-2.2-2.7-2.9c-0.8-0.5-2-1.1-3.7-1.6c-1.7-0.5-3.2-0.8-4.5-1v-5
		l33.3-1.8l1,1v53.9c0,1.6,0.3,2.9,1,4c0.7,1.1,1.7,1.9,2.9,2.5c0.9,0.4,1.9,0.8,3,1.1s2.2,0.5,3.4,0.7V540z M313.2,447.5
		c0,3.4-1.3,6.4-4,8.8s-5.8,3.6-9.4,3.6c-3.7,0-6.8-1.2-9.5-3.6s-4-5.4-4-8.8c0-3.4,1.3-6.4,4-8.8s5.8-3.7,9.5-3.7s6.8,1.2,9.4,3.7
		C311.9,441.1,313.2,444,313.2,447.5z"/>
	<path class="st0" d="M419,540h-40.8v-5c0.9-0.1,1.9-0.2,3.1-0.3s2.1-0.4,2.8-0.7c1-0.5,1.6-1.2,2-2.2s0.6-2.4,0.6-4.2v-31.8
		c0-4.6-0.9-8.1-2.6-10.4c-1.7-2.3-4.2-3.5-7.5-3.5c-1.8,0-3.5,0.3-5.1,0.8c-1.6,0.5-3.1,1.3-4.6,2.4c-1.3,0.9-2.4,1.8-3.2,2.8
		c-0.8,1-1.5,1.8-2,2.5v36.4c0,1.6,0.2,2.9,0.7,4c0.5,1.1,1.2,1.9,2.2,2.4c0.7,0.4,1.6,0.8,2.7,1.1s2.1,0.5,3.2,0.7v5h-41.3v-5
		c1.1-0.1,2.3-0.2,3.4-0.4c1.2-0.2,2.1-0.4,3-0.6c1.4-0.5,2.4-1.3,3-2.3c0.5-1,0.8-2.4,0.8-4.1v-39.5c0-1.4-0.4-2.8-1.1-4.1
		c-0.7-1.4-1.7-2.5-2.9-3.3c-0.8-0.5-1.8-1-3.1-1.4c-1.2-0.4-2.6-0.6-4.1-0.7v-5l32.4-1.8l1,1v9.8h0.3c1.3-1.1,2.8-2.5,4.6-4.1
		c1.8-1.6,3.5-2.9,5-3.9c1.7-1.1,3.9-2,6.6-2.8c2.7-0.8,5.6-1.2,8.7-1.2c7.4,0,12.9,2.1,16.6,6.3c3.7,4.2,5.5,9.7,5.5,16.7v33.3
		c0,1.7,0.2,3,0.7,4c0.5,1,1.4,1.8,2.8,2.4c0.7,0.3,1.6,0.6,2.7,1c1.1,0.3,2.3,0.5,3.6,0.7V540z"/>
	<path class="st0" d="M538.1,538.6c-2,0.9-4.3,1.7-7,2.4c-2.7,0.7-5.6,1.1-8.6,1.1c-5.6,0-9.6-0.8-12.3-2.5c-2.6-1.7-4.4-4-5.4-7.1
		h-0.4c-1.5,1.5-3,2.9-4.5,3.9s-3,2-4.6,2.8c-2.1,1-4.2,1.7-6.2,2.2c-2,0.5-4.7,0.7-8.3,0.7c-5.3,0-9.7-1.6-13.5-4.7
		c-3.7-3.1-5.6-7.2-5.6-12.3c0-2.9,0.4-5.4,1.2-7.5c0.8-2.1,2-3.9,3.5-5.5c1.4-1.5,2.9-2.7,4.7-3.6c1.8-1,3.8-1.8,5.9-2.7
		c4.1-1.5,9-3,14.7-4.7c5.7-1.6,9.9-3,12.5-4.3v-6.5c0-1.1-0.1-2.6-0.3-4.5c-0.2-1.9-0.6-3.4-1.2-4.7c-0.6-1.4-1.6-2.7-3-3.7
		s-3.1-1.5-5.4-1.5c-2,0-3.7,0.3-5,0.8c-1.3,0.6-2.4,1.1-3.2,1.7c0.1,0.9,0.5,2.3,1.2,4.1c0.6,1.9,1,3.6,1,5.4
		c0,0.8-0.2,1.7-0.6,2.9c-0.4,1.2-1,2.1-1.8,2.7c-1,0.9-2.2,1.6-3.5,2.1c-1.3,0.5-3.3,0.7-6,0.7c-3.8,0-6.7-0.9-8.6-2.7
		c-2-1.8-2.9-4.2-2.9-7.2c0-2.5,1-4.8,3-6.8c2-2,4.5-3.7,7.4-5c2.9-1.4,6.1-2.4,9.8-3.2c3.7-0.7,7.1-1.1,10.3-1.1
		c4.4,0,8.4,0.3,12.1,0.8c3.7,0.5,7,1.6,9.9,3.2c2.8,1.6,5,3.9,6.7,6.9c1.7,3,2.5,6.9,2.5,11.8c0,5.1-0.1,11.2-0.3,18.2
		s-0.3,11.6-0.3,13.8c0,2,0.3,3.6,0.9,4.8c0.6,1.2,1.5,2.1,2.8,2.6c0.8,0.4,2,0.6,3.6,0.6c1.7,0.1,3.2,0.1,4.5,0.1V538.6z
		 M504.5,503.2c-2.5,0.9-5.1,1.8-7.6,3c-2.5,1.1-4.5,2.3-6.1,3.5c-1.7,1.3-3,2.9-4,4.9c-1,2-1.4,4.3-1.4,7c0,3.5,0.8,6.1,2.4,7.7
		c1.6,1.6,3.6,2.4,6,2.4c2.5,0,4.6-0.5,6.2-1.5c1.6-1,3-2.3,4.3-3.8L504.5,503.2z"/>
	<path class="st0" d="M574.8,542.3c-4.4,0-8.7-0.6-12.9-1.9c-4.2-1.3-7.4-2.7-9.7-4.1l-2,4.6h-5.3l-0.9-25.3h5
		c0.7,2,1.8,4.3,3.4,6.9c1.6,2.6,3.4,4.9,5.4,6.9c2.1,2,4.6,3.8,7.3,5.2c2.7,1.4,5.7,2.1,8.8,2.1c4.1,0,7.2-0.8,9.2-2.4
		c2-1.6,3-4.1,3-7.4c0-1.8-0.5-3.3-1.4-4.5c-0.9-1.2-2.1-2.2-3.7-3.1c-1.8-0.9-3.7-1.7-5.8-2.3c-2.1-0.6-4.7-1.4-7.8-2.3
		c-3.1-0.9-5.7-1.8-7.9-2.7c-2.2-0.9-4.5-2.4-6.8-4.4c-2-1.8-3.7-3.9-4.9-6.4s-1.8-5.5-1.8-8.9c0-6.4,2.7-11.5,8-15.5
		s12.4-5.9,21.1-5.9c4.1,0,7.9,0.4,11.4,1.3c3.5,0.8,6.4,1.8,8.7,2.7l1.4-4h5.2l1.1,23.1h-4.8c-1.6-4.7-4.3-8.8-8.1-12.2
		c-3.8-3.4-8-5.1-12.4-5.1c-3.5,0-6.2,0.7-8.2,2.2c-2,1.4-3,3.5-3,6c0,3.4,1.5,5.9,4.4,7.5c2.9,1.5,7,3,12.2,4.3
		c8.1,2.1,14,4.9,17.8,8.5c3.7,3.6,5.6,8.2,5.6,13.7c0,7.4-2.9,13.2-8.7,17.2C591.7,540.3,584.2,542.3,574.8,542.3z"/>
	<path class="st0" d="M646,542.3c-4.4,0-8.7-0.6-12.9-1.9c-4.2-1.3-7.4-2.7-9.7-4.1l-2,4.6h-5.3l-0.9-25.3h5c0.7,2,1.8,4.3,3.4,6.9
		c1.6,2.6,3.4,4.9,5.4,6.9c2.1,2,4.6,3.8,7.3,5.2c2.7,1.4,5.7,2.1,8.8,2.1c4.1,0,7.2-0.8,9.2-2.4c2-1.6,3-4.1,3-7.4
		c0-1.8-0.5-3.3-1.4-4.5c-0.9-1.2-2.1-2.2-3.7-3.1c-1.8-0.9-3.7-1.7-5.8-2.3c-2.1-0.6-4.7-1.4-7.8-2.3c-3.1-0.9-5.7-1.8-7.9-2.7
		c-2.2-0.9-4.5-2.4-6.8-4.4c-2-1.8-3.7-3.9-4.9-6.4s-1.8-5.5-1.8-8.9c0-6.4,2.7-11.5,8-15.5s12.4-5.9,21.1-5.9
		c4.1,0,7.9,0.4,11.4,1.3c3.5,0.8,6.4,1.8,8.7,2.7l1.4-4h5.2l1.1,23.1h-4.8c-1.6-4.7-4.3-8.8-8.1-12.2c-3.8-3.4-8-5.1-12.4-5.1
		c-3.5,0-6.2,0.7-8.2,2.2c-2,1.4-3,3.5-3,6c0,3.4,1.5,5.9,4.4,7.5c2.9,1.5,7,3,12.2,4.3c8.1,2.1,14,4.9,17.8,8.5
		c3.7,3.6,5.6,8.2,5.6,13.7c0,7.4-2.9,13.2-8.7,17.2C663,540.3,655.4,542.3,646,542.3z"/>
	<path class="st0" d="M758.9,523.8c-1.6,2.6-3.5,5-5.7,7.3c-2.2,2.3-4.8,4.2-7.6,5.9c-3,1.7-6.1,3-9.2,3.9
		c-3.1,0.9-6.7,1.3-10.7,1.3c-6.7,0-12.5-1-17.3-2.9c-4.9-1.9-8.9-4.5-12-7.7c-3.2-3.2-5.5-7-7.1-11.4c-1.6-4.4-2.3-9.1-2.3-14.2
		c0-4.6,0.8-9,2.5-13.3c1.7-4.2,4.1-8,7.2-11.3c3.1-3.2,7-5.8,11.6-7.8s9.9-3,15.7-3c6.3,0,11.5,0.8,15.6,2.3s7.4,3.7,10.1,6.4
		c2.6,2.6,4.5,5.6,5.6,9.1c1.2,3.5,1.8,7.2,1.8,11v4.4h-45.9c0,9.3,1.8,16.3,5.4,21.2c3.6,4.8,9.3,7.3,17,7.3
		c4.3,0,8.1-1.2,11.5-3.5c3.4-2.3,6.3-5.3,8.7-8.9L758.9,523.8z M732.9,498c0-2.7-0.1-5.5-0.4-8.3s-0.7-5.2-1.4-7
		c-0.8-2.1-1.8-3.7-3.2-4.8c-1.3-1.1-3-1.6-5.1-1.6c-3.5,0-6.3,1.8-8.3,5.3c-2.1,3.5-3.2,9.1-3.4,16.8L732.9,498z"/>
	<path class="st0" d="M815.9,536.9c-2.9,1.3-6,2.4-9.3,3.4c-3.3,1-7.3,1.5-12.1,1.5c-7.1,0-12.3-1.7-15.7-5.2
		c-3.4-3.4-5.1-8.3-5.1-14.7v-41.6h-12.2V473h12.5v-20.6h22V473H815v7.4H796v37.1c0,5.3,0.7,9,2.2,11.3c1.5,2.2,4.1,3.3,7.9,3.3
		c1.2,0,2.9-0.1,5.1-0.3s3.7-0.4,4.6-0.6V536.9z"/>
	<path class="st0" d="M852,542.3c-4.4,0-8.7-0.6-12.9-1.9c-4.2-1.3-7.4-2.7-9.7-4.1l-2,4.6h-5.3l-0.9-25.3h5c0.7,2,1.8,4.3,3.4,6.9
		c1.6,2.6,3.4,4.9,5.4,6.9c2.1,2,4.6,3.8,7.3,5.2c2.7,1.4,5.7,2.1,8.8,2.1c4.1,0,7.2-0.8,9.2-2.4c2-1.6,3-4.1,3-7.4
		c0-1.8-0.5-3.3-1.4-4.5c-0.9-1.2-2.1-2.2-3.7-3.1c-1.8-0.9-3.7-1.7-5.8-2.3c-2.1-0.6-4.7-1.4-7.8-2.3c-3.1-0.9-5.7-1.8-7.9-2.7
		c-2.2-0.9-4.5-2.4-6.8-4.4c-2-1.8-3.7-3.9-4.9-6.4s-1.8-5.5-1.8-8.9c0-6.4,2.7-11.5,8-15.5s12.4-5.9,21.1-5.9
		c4.1,0,7.9,0.4,11.4,1.3c3.5,0.8,6.4,1.8,8.7,2.7l1.4-4h5.2l1.1,23.1h-4.8c-1.6-4.7-4.3-8.8-8.1-12.2c-3.8-3.4-8-5.1-12.4-5.1
		c-3.5,0-6.2,0.7-8.2,2.2c-2,1.4-3,3.5-3,6c0,3.4,1.5,5.9,4.4,7.5c2.9,1.5,7,3,12.2,4.3c8.1,2.1,14,4.9,17.8,8.5
		c3.7,3.6,5.6,8.2,5.6,13.7c0,7.4-2.9,13.2-8.7,17.2C869,540.3,861.4,542.3,852,542.3z"/>
</g>
<g>
	<path class="st0" d="M275.8,306.3c0,30.1-11.5,54.4-34.5,72.9c-23,18.5-51.4,28.9-85.2,31.2v68.2h-24v-68.2
		c-34.1-0.6-63.2-8.5-87.3-23.4c-24.1-15-36.2-32.3-36.2-52c0-11.5,3.5-21.2,10.5-29.1c7-7.9,16.6-11.9,29-11.9
		c12.8,0,23,3.4,30.5,10.1c7.5,6.7,11.3,15.8,11.3,27.3c0,8.2-1.4,16.5-4.1,24.9c-2.8,8.3-5,14.8-6.8,19.5
		c4.3,2.3,11.6,5.2,21.6,8.7c10.1,3.6,20.6,5.3,31.5,5.3V280.8c-2.3-0.3-4.5-0.6-6.6-0.8c-2.1-0.2-4.5-0.5-7.3-0.8
		c-31.1-2.9-55.6-12.3-73.5-28.1c-18-15.9-26.9-36.6-26.9-62.1c0-11.3,2.1-22.4,6.3-33.2c4.2-10.8,10.7-20.9,19.4-30.3
		c8.9-9.7,20.7-17.8,35.3-24.4c14.6-6.6,32.4-10.5,53.3-11.8V36.2h24v52.9c33.2,1.3,60,8.2,80.6,20.7c20.5,12.5,30.8,28,30.8,46.5
		c0,11-3.4,20.3-10.1,28c-6.7,7.7-16,11.5-27.8,11.5c-12.3,0-22-3.2-29.1-9.7c-7.1-6.5-10.7-15.2-10.7-26.2c0-7.6,1.3-15,3.8-22.3
		c2.5-7.3,4.7-13.8,6.7-19.7c-4.4-2.3-10.5-4.1-18.3-5.6c-7.8-1.5-16.5-2.3-25.8-2.7V209c2.4,0.2,5.5,0.6,9.2,1.2
		c3.7,0.6,7,1.1,9.7,1.5c33.2,4.9,58.2,15.4,75.2,31.5C267.3,259.4,275.8,280.4,275.8,306.3z M132.2,206.8v-97.1
		c-18.5,1.9-32.7,7.4-42.5,16.3c-9.8,8.9-14.7,19.6-14.7,32c0,14.4,4,25.3,12.1,32.8c8,7.4,19.7,12.3,35,14.6
		c2.4,0.3,4.3,0.6,5.5,0.8C128.7,206.4,130.2,206.6,132.2,206.8z M218.8,334.9c0-13.4-4-24.3-11.8-32.6
		c-7.9-8.3-20.4-14.1-37.5-17.3c-1.8-0.3-3.9-0.6-6.3-1c-2.4-0.3-4.8-0.6-7-1v106.8c22.1-2.1,38-8.2,47.9-18.3
		C213.9,361.3,218.8,349.1,218.8,334.9z"/>
	<path class="st0" d="M530.8,406H330.7v-18.4c4.9-0.3,12.6-1.1,23.2-2.4c10.6-1.3,17.8-2.6,21.7-3.9c4.9-1.6,8.7-4.4,11.4-8.2
		c2.7-3.9,4.1-9.2,4.1-16V203.1h-61.4v-23.1H343c14.1,0,26.2-1.5,36.5-4.6c10.3-3.1,18.8-6.8,25.6-11.2c7-4.5,12.7-9.2,17.1-14.1
		c4.4-4.9,8-9.1,10.6-12.9h42.7c-0.5,10.5-1,22.8-1.5,36.9c-0.5,14.1-0.7,26.7-0.7,37.9v142.2c0,5.8,1.3,10.9,3.8,15.2
		c2.5,4.3,6.1,7.6,10.8,9.8c4.2,1.9,11.2,3.7,21.1,5.3c9.9,1.6,17.1,2.6,21.8,2.9V406z"/>
	<path class="st0" d="M865.4,248c10.4,7.1,18.8,16.1,25.2,26.8c6.5,10.8,9.7,23.4,9.7,38c0,17.5-3.7,32.2-11,44.3
		c-7.4,12.1-17.9,21.6-31.7,28.5c-14.6,7.4-31.3,12.7-50.3,15.8c-19,3.1-41.4,4.6-67.1,4.6H561.4v-18.9c5-0.5,11.3-1.2,18.9-2.2
		c7.6-1,12.9-2.1,16-3.4c6-2.4,10.1-5.6,12.3-9.6c2.2-4,3.3-9.1,3.3-15.4V113.9c0-5.8-0.9-10.7-2.7-14.6c-1.8-3.9-6.1-7.3-12.9-10.2
		c-5-2.1-10.8-3.8-17.5-5.2c-6.6-1.4-12.5-2.5-17.5-3.3V61.7h187.1c47.1,0,81,6.5,101.9,19.4c20.9,12.9,31.3,32,31.3,57.3
		c0,11.6-2.3,21.9-7,30.7c-4.7,8.8-11.4,16.5-20.1,22.9c-7.9,6-17.4,11.2-28.4,15.5c-11,4.4-22.8,8-35.4,10.9v4.6
		c12.6,1.3,25.7,4.1,39.3,8.4C843.6,235.7,855.4,241.2,865.4,248z M787.3,144.4c0-19.1-5.4-34-16.1-44.6c-10.8-10.7-26.9-16-48.4-16
		c-3.1,0-7.1,0.1-12,0.4c-4.9,0.2-9.2,0.4-12.7,0.6v127.6h12.6c26.2,0,45.5-6.1,58-18.3C781.1,181.8,787.3,165.3,787.3,144.4z
		 M804.3,309.8c0-24-7.1-42.4-21.4-55.2c-14.2-12.8-34.7-19.2-61.4-19.2c-3.1,0-7.2,0.1-12.3,0.4s-8.9,0.4-11.3,0.6v126.1
		c1.5,6,6,11.1,13.6,15.2c7.6,4.1,16.8,6.2,27.7,6.2c19.2,0,34.9-6.5,47-19.4C798.3,351.5,804.3,333.3,804.3,309.8z"/>
</g>
<g>
	<path class="st0" d="M1448.1,540h-42.9v-5c1.2-0.1,2.3-0.2,3.5-0.3c1.1-0.1,2.1-0.4,2.9-0.7c1.4-0.5,2.5-1.3,3.1-2.3
		c0.6-1,0.9-2.4,0.9-4v-39.5c0-1.6-0.4-3-1.1-4.2c-0.7-1.2-1.6-2.2-2.7-2.9c-0.8-0.5-2-1.1-3.7-1.6s-3.2-0.8-4.5-1v-5l33.3-1.8l1,1
		v53.9c0,1.6,0.3,2.9,1,4c0.7,1.1,1.7,1.9,2.9,2.5c0.9,0.4,1.9,0.8,3,1.1s2.2,0.5,3.4,0.7V540z M1438.2,447.5c0,3.4-1.3,6.4-4,8.8
		s-5.8,3.6-9.4,3.6c-3.7,0-6.8-1.2-9.5-3.6s-4-5.4-4-8.8c0-3.4,1.3-6.4,4-8.8s5.8-3.7,9.5-3.7c3.7,0,6.8,1.2,9.4,3.7
		C1436.9,441.1,1438.2,444,1438.2,447.5z"/>
	<path class="st0" d="M1544,540h-40.8v-5c0.9-0.1,1.9-0.2,3.1-0.3c1.2-0.1,2.1-0.4,2.8-0.7c1-0.5,1.6-1.2,2-2.2s0.6-2.4,0.6-4.2
		v-31.8c0-4.6-0.9-8.1-2.6-10.4c-1.7-2.3-4.2-3.5-7.5-3.5c-1.8,0-3.5,0.3-5.1,0.8c-1.6,0.5-3.1,1.3-4.6,2.4
		c-1.3,0.9-2.4,1.8-3.2,2.8c-0.8,1-1.5,1.8-2,2.5v36.4c0,1.6,0.2,2.9,0.7,4c0.5,1.1,1.2,1.9,2.2,2.4c0.7,0.4,1.6,0.8,2.7,1.1
		s2.1,0.5,3.2,0.7v5h-41.3v-5c1.1-0.1,2.3-0.2,3.4-0.4c1.2-0.2,2.1-0.4,3-0.6c1.4-0.5,2.4-1.3,3-2.3c0.5-1,0.8-2.4,0.8-4.1v-39.5
		c0-1.4-0.4-2.8-1.1-4.1c-0.7-1.4-1.7-2.5-2.9-3.3c-0.8-0.5-1.8-1-3.1-1.4c-1.2-0.4-2.6-0.6-4.1-0.7v-5l32.4-1.8l1,1v9.8h0.3
		c1.3-1.1,2.8-2.5,4.6-4.1c1.8-1.6,3.5-2.9,5-3.9c1.7-1.1,3.9-2,6.6-2.8c2.7-0.8,5.6-1.2,8.7-1.2c7.4,0,12.9,2.1,16.6,6.3
		c3.7,4.2,5.5,9.7,5.5,16.7v33.3c0,1.7,0.2,3,0.7,4c0.5,1,1.4,1.8,2.8,2.4c0.7,0.3,1.6,0.6,2.7,1s2.3,0.5,3.6,0.7V540z"/>
	<path class="st0" d="M1627.6,477.7c-2,0.3-4,1.1-5.9,2.3s-3.5,3.1-4.8,5.7c-3.2,6.6-6.3,13.3-9.3,20c-3.1,6.7-6.1,13.2-9,19.5
		c-0.9,1.9-1.9,4.3-3.1,7.3c-1.2,3-2.1,5.7-2.9,8.1h-12.5c-5.2-12.1-9.6-22.1-13.3-30.1c-3.7-8-7.6-16.5-11.7-25.7
		c-0.9-2.1-2.4-3.8-4.4-5s-4.1-2-6.1-2.2v-5h41.8v5c-1.5,0-3.3,0.4-5.4,1c-2.1,0.6-3.1,1.4-3.1,2.4c0,0.3,0.1,0.7,0.3,1.2
		c0.2,0.5,0.4,1.2,0.7,1.8c1.5,3.4,3.6,8.4,6.6,14.9s6,13.3,9.3,20.4c2.3-4.9,4.4-9.8,6.5-14.5s4.6-10.8,7.6-18.1
		c0.4-1.1,0.6-2,0.7-2.6c0.1-0.7,0.1-1.1,0.1-1.4c0-0.8-0.4-1.5-1.2-2.1c-0.8-0.6-1.7-1.1-2.8-1.6c-1.1-0.5-2.2-0.8-3.3-1
		c-1-0.2-1.9-0.4-2.6-0.5v-5h28V477.7z"/>
	<path class="st0" d="M1702,523.8c-1.6,2.6-3.5,5-5.7,7.3c-2.2,2.3-4.8,4.2-7.6,5.9c-3,1.7-6.1,3-9.2,3.9c-3.1,0.9-6.7,1.3-10.7,1.3
		c-6.7,0-12.5-1-17.3-2.9c-4.9-1.9-8.9-4.5-12-7.7c-3.2-3.2-5.5-7-7.1-11.4c-1.6-4.4-2.3-9.1-2.3-14.2c0-4.6,0.8-9,2.5-13.3
		c1.7-4.2,4.1-8,7.2-11.3c3.1-3.2,7-5.8,11.6-7.8s9.9-3,15.7-3c6.3,0,11.5,0.8,15.6,2.3s7.4,3.7,10.1,6.4c2.6,2.6,4.5,5.6,5.6,9.1
		c1.2,3.5,1.8,7.2,1.8,11v4.4h-45.9c0,9.3,1.8,16.3,5.4,21.2c3.6,4.8,9.3,7.3,17,7.3c4.3,0,8.1-1.2,11.5-3.5
		c3.4-2.3,6.3-5.3,8.7-8.9L1702,523.8z M1676.1,498c0-2.7-0.1-5.5-0.4-8.3s-0.7-5.2-1.4-7c-0.8-2.1-1.8-3.7-3.2-4.8s-3-1.6-5.1-1.6
		c-3.5,0-6.3,1.8-8.3,5.3c-2.1,3.5-3.2,9.1-3.4,16.8L1676.1,498z"/>
	<path class="st0" d="M1740,542.3c-4.4,0-8.7-0.6-12.9-1.9c-4.2-1.3-7.4-2.7-9.7-4.1l-2,4.6h-5.3l-0.9-25.3h5c0.7,2,1.8,4.3,3.4,6.9
		c1.6,2.6,3.4,4.9,5.4,6.9c2.1,2,4.6,3.8,7.3,5.2c2.7,1.4,5.7,2.1,8.8,2.1c4.1,0,7.2-0.8,9.2-2.4c2-1.6,3-4.1,3-7.4
		c0-1.8-0.5-3.3-1.4-4.5c-0.9-1.2-2.1-2.2-3.7-3.1c-1.8-0.9-3.7-1.7-5.8-2.3c-2.1-0.6-4.7-1.4-7.8-2.3c-3.1-0.9-5.7-1.8-7.9-2.7
		c-2.2-0.9-4.5-2.4-6.8-4.4c-2-1.8-3.7-3.9-4.9-6.4s-1.8-5.5-1.8-8.9c0-6.4,2.7-11.5,8-15.5s12.4-5.9,21.1-5.9
		c4.1,0,7.9,0.4,11.4,1.3c3.5,0.8,6.4,1.8,8.7,2.7l1.4-4h5.2l1.1,23.1h-4.8c-1.6-4.7-4.3-8.8-8.1-12.2c-3.8-3.4-8-5.1-12.4-5.1
		c-3.5,0-6.2,0.7-8.2,2.2c-2,1.4-3,3.5-3,6c0,3.4,1.5,5.9,4.4,7.5c2.9,1.5,7,3,12.2,4.3c8.1,2.1,14,4.9,17.8,8.5
		c3.7,3.6,5.6,8.2,5.6,13.7c0,7.4-2.9,13.2-8.7,17.2C1756.9,540.3,1749.3,542.3,1740,542.3z"/>
	<path class="st0" d="M1830.3,536.9c-2.9,1.3-6,2.4-9.3,3.4c-3.3,1-7.3,1.5-12.1,1.5c-7.1,0-12.3-1.7-15.7-5.2
		c-3.4-3.4-5.1-8.3-5.1-14.7v-41.6h-12.2V473h12.5v-20.6h22V473h19.1v7.4h-18.9v37.1c0,5.3,0.7,9,2.2,11.3c1.5,2.2,4.1,3.3,7.9,3.3
		c1.2,0,2.9-0.1,5.1-0.3c2.2-0.2,3.7-0.4,4.6-0.6V536.9z"/>
	<path class="st0" d="M1904.3,480.7c3.3,3.1,5.9,6.9,7.7,11.2c1.8,4.3,2.6,9,2.6,14.1c0,5-0.9,9.8-2.6,14.2
		c-1.7,4.5-4.3,8.3-7.6,11.4c-3.6,3.4-7.8,6-12.8,7.8s-10.6,2.7-17,2.7c-5.5,0-10.6-0.8-15.2-2.4c-4.6-1.6-8.7-4-12.3-7.1
		c-3.4-3-6.2-6.8-8.1-11.2c-2-4.5-3-9.4-3-15c0-5.4,0.9-10.3,2.6-14.5c1.7-4.2,4.4-8,7.8-11.3c3.3-3.2,7.5-5.6,12.4-7.4
		c4.9-1.7,10.4-2.6,16.5-2.6c6.3,0,11.9,0.9,16.7,2.6C1896.8,475.1,1900.9,477.5,1904.3,480.7z M1887,527.7c1-2.5,1.7-5.6,2.2-9.2
		s0.7-7.8,0.7-12.6c0-3.2-0.2-6.8-0.7-10.9c-0.5-4.1-1.1-7.3-2-9.6c-1.1-2.9-2.6-5.1-4.5-6.7c-1.9-1.6-4.4-2.4-7.3-2.4
		c-3.2,0-5.8,0.9-7.7,2.6c-1.9,1.8-3.4,4-4.4,6.9c-1,2.6-1.6,5.6-2,9.1c-0.4,3.5-0.5,7.1-0.5,10.8c0,4.9,0.2,9,0.5,12.2
		c0.3,3.2,1.1,6.5,2.3,9.7c1,2.8,2.5,5,4.5,6.7s4.4,2.4,7.4,2.4c2.7,0,5-0.8,7-2.3C1884.3,532.9,1885.8,530.7,1887,527.7z"/>
	<path class="st0" d="M1991,485.1c0,3.4-1.1,6.5-3.2,9.1c-2.1,2.6-4.9,3.9-8.4,3.9c-3.3,0-6.1-0.8-8.4-2.5c-2.3-1.7-3.4-4.1-3.4-7.4
		c0-1.6,0.1-2.8,0.3-3.7c0.2-0.9,0.4-1.7,0.6-2.5c-2.1,0.1-4.3,0.8-6.6,2.2c-2.3,1.3-4.3,3.1-6.1,5.4v37.3c0,1.6,0.2,2.9,0.7,3.9
		c0.5,1,1.3,1.9,2.5,2.4c1,0.5,2.6,0.9,4.9,1.3c2.2,0.3,3.9,0.5,4.9,0.6v5h-45.4v-5c1.1-0.1,2.3-0.2,3.4-0.4c1.2-0.2,2.1-0.4,3-0.6
		c1.4-0.5,2.4-1.3,3-2.3c0.5-1,0.8-2.4,0.8-4.1v-39.5c0-1.6-0.4-3.1-1.2-4.4c-0.8-1.3-1.7-2.3-2.8-3.1c-0.8-0.5-1.8-1-3.1-1.4
		c-1.2-0.4-2.6-0.6-4.1-0.7v-5l32.4-1.8l1,1v9.8h0.3c3.1-3.6,6.4-6.5,9.9-8.5c3.5-2.1,7.2-3.1,11-3.1c4.2,0,7.6,1.3,10.1,3.9
		C1989.7,477.6,1991,481,1991,485.1z"/>
	<path class="st0" d="M2027.1,542.3c-4.4,0-8.7-0.6-12.9-1.9c-4.2-1.3-7.4-2.7-9.7-4.1l-2,4.6h-5.3l-0.9-25.3h5
		c0.7,2,1.8,4.3,3.4,6.9c1.6,2.6,3.4,4.9,5.4,6.9c2.1,2,4.6,3.8,7.3,5.2c2.7,1.4,5.7,2.1,8.8,2.1c4.1,0,7.2-0.8,9.2-2.4
		c2-1.6,3-4.1,3-7.4c0-1.8-0.5-3.3-1.4-4.5c-0.9-1.2-2.1-2.2-3.7-3.1c-1.8-0.9-3.7-1.7-5.8-2.3c-2.1-0.6-4.7-1.4-7.8-2.3
		c-3.1-0.9-5.7-1.8-7.9-2.7c-2.2-0.9-4.5-2.4-6.8-4.4c-2-1.8-3.7-3.9-4.9-6.4c-1.2-2.5-1.8-5.5-1.8-8.9c0-6.4,2.7-11.5,8-15.5
		c5.4-3.9,12.4-5.9,21.1-5.9c4.1,0,7.9,0.4,11.4,1.3c3.5,0.8,6.4,1.8,8.7,2.7l1.4-4h5.2l1.1,23.1h-4.8c-1.6-4.7-4.3-8.8-8.1-12.2
		c-3.8-3.4-8-5.1-12.4-5.1c-3.5,0-6.2,0.7-8.2,2.2c-2,1.4-3,3.5-3,6c0,3.4,1.5,5.9,4.4,7.5c2.9,1.5,7,3,12.2,4.3
		c8.1,2.1,14,4.9,17.8,8.5c3.8,3.6,5.6,8.2,5.6,13.7c0,7.4-2.9,13.2-8.7,17.2S2036.5,542.3,2027.1,542.3z"/>
</g>
<g>
	<path class="st1" d="M2581.5,406h-200.2v-18.4c4.9-0.3,12.6-1.1,23.2-2.4c10.6-1.3,17.8-2.6,21.7-3.9c4.9-1.6,8.7-4.4,11.4-8.2
		c2.7-3.9,4.1-9.2,4.1-16V203.1h-61.4v-23.1h13.3c14.1,0,26.2-1.5,36.5-4.6c10.3-3.1,18.8-6.8,25.6-11.2c7-4.5,12.7-9.2,17.1-14.1
		c4.4-4.9,8-9.1,10.6-12.9h42.7c-0.5,10.5-1,22.8-1.5,36.9c-0.5,14.1-0.7,26.7-0.7,37.9v142.2c0,5.8,1.2,10.9,3.8,15.2
		c2.5,4.3,6.1,7.6,10.8,9.8c4.2,1.9,11.2,3.7,21.1,5.3c9.9,1.6,17.1,2.6,21.8,2.9V406z"/>
	<path class="st1" d="M2829.2,291c12.1,8.1,22.3,19,30.6,32.6c8.2,13.7,12.4,30.6,12.4,50.8c0,35.6-13.8,64.7-41.4,87.2
		c-27.6,22.6-62.8,33.8-105.7,33.8c-33.2,0-60.8-7.1-83-21.4c-22.2-14.2-33.2-31.1-33.2-50.5c0-11.5,3.7-21.2,11-29.1
		c7.4-7.9,17.2-11.9,29.5-11.9c12.8,0,23.3,3.4,31.4,10.3c8.2,6.9,12.3,16.1,12.3,27.5c0,8.1-1.4,16.9-4.1,26.4
		c-2.8,9.5-5,16.8-6.8,21.8c3.9,1.5,8.4,2.5,13.6,3.3c5.2,0.7,10,1.1,14.6,1.1c9.2,0,18.3-2.1,27.2-6.2c8.9-4.1,16.5-10.2,22.8-18.1
		c7.3-9.1,12.8-19.8,16.5-32.1c3.7-12.4,5.6-26.4,5.6-42.1c0-22.8-6.1-41.5-18.3-56.2c-12.2-14.6-28.1-22-47.5-22
		c-15.1,0-27.7,3-37.9,9.1c-10.2,6.1-19.4,14-27.5,23.9l-18.7-6.3l23.5-178.6h205v67h-187.4l-10.1,80.1c8.7-5.5,20-10.7,33.7-15.8
		c13.7-5,29.9-7.5,48.5-7.5c14.4,0,28.6,1.6,42.6,4.7C2802.3,276.3,2816,282.2,2829.2,291z"/>
	<path class="st1" d="M3180.3,179.9c12.3,12.9,21.4,27.7,27.3,44.3c5.9,16.6,8.9,33.8,8.9,51.6c0,21.2-3.7,40.3-11,57.4
		c-7.4,17.1-17.4,31.5-30.2,43.3c-13.4,12.3-29,21.7-46.8,28.1c-17.8,6.5-38.3,9.7-61.4,9.7c-24.4,0-46-3.8-64.7-11.4
		c-18.7-7.6-34.3-17.6-46.7-30.1c-12.3-12.3-21.6-26.8-28-43.4c-6.4-16.7-9.6-34.5-9.6-53.6c0-18.9,3-36.5,9.1-52.7
		c6.1-16.2,15.4-30.8,28-43.9c12.3-12.8,27.9-23,46.8-30.7c18.9-7.7,40.7-11.5,65.3-11.5c25.4,0,47.6,4,66.5,11.9
		C3152.7,156.7,3168.2,167.1,3180.3,179.9z M3111.9,360.6c4.7-10.8,8-22.9,10.1-36.3c2-13.3,3-29.6,3-48.6c0-17.1-0.9-32.6-2.8-46.3
		c-1.9-13.7-5-26-9.3-36.6c-4.5-11-10.5-19.5-18-25.5c-7.4-6-16.6-9-27.4-9c-11,0-20.2,3-27.7,8.9c-7.4,5.9-13.5,14.3-18.2,25.1
		c-4.2,9.9-7.3,22-9.2,36.3c-1.9,14.3-2.9,30-2.9,47.2c0,18,0.8,33.2,2.5,45.9c1.7,12.6,4.8,24.7,9.3,36.4c4,10.5,9.9,19,17.5,25.5
		c7.6,6.5,17,9.7,28.1,9.7c10.4,0,19.3-2.9,26.9-8.7C3101.6,378.6,3107.5,370.7,3111.9,360.6z"/>
</g>
<g>
	<path class="st1" d="M2946,477.7c-2,0.3-4,1.1-5.9,2.3s-3.5,3.1-4.8,5.7c-3.9,8.2-7.9,17-12,26.3c-4.1,9.3-8.7,19.4-13.7,30.2
		c-2.8,6.1-5.5,10.9-8.1,14.5c-2.6,3.6-5.1,6.4-7.4,8.3c-2.2,1.8-4.3,3.1-6.4,3.9s-4.3,1.2-6.4,1.2c-4.3,0-7.8-1.2-10.4-3.6
		c-2.6-2.4-4-5.1-4-8.1c0-1.3,0.1-2.4,0.4-3.5c0.3-1.1,0.9-2.2,1.9-3.4c0.7-1,1.8-1.8,3.4-2.5c1.5-0.7,3.2-1.1,5.1-1.1
		c2.5,0,5,0.9,7.3,2.6c2.3,1.8,4.7,4.2,7.2,7.3c1.5-1.5,3.3-3.7,5.5-6.7s3.8-6,4.8-9.2c-5.4-11.3-10.2-21.1-14.3-29.4
		c-4.2-8.3-8.8-17.6-14-27.8c-1.1-2.2-2.6-3.9-4.5-5.1c-1.9-1.2-3.9-1.9-6-2.2v-5h41.5v5c-1.5,0-3.3,0.4-5.3,1c-2,0.6-3,1.4-3,2.4
		c0,0.4,0.1,0.8,0.2,1.2c0.1,0.4,0.4,1.1,0.7,1.9c1.5,3.2,3.7,7.5,6.5,13.2c2.8,5.6,6.1,12.2,9.9,19.7c2.8-6.4,5.2-11.9,7.1-16.5
		c2-4.6,3.9-9.2,5.7-13.6c0.5-1.1,0.7-2,0.8-2.7c0.1-0.7,0.1-1.1,0.1-1.3c0-0.8-0.4-1.5-1.2-2.1c-0.8-0.6-1.7-1.1-2.8-1.6
		c-1.1-0.5-2.2-0.8-3.2-1c-1-0.2-1.9-0.4-2.6-0.5v-5h28V477.7z"/>
	<path class="st1" d="M3020.4,523.8c-1.6,2.6-3.5,5-5.7,7.3c-2.2,2.3-4.8,4.2-7.6,5.9c-3,1.7-6.1,3-9.2,3.9
		c-3.1,0.9-6.7,1.3-10.7,1.3c-6.7,0-12.5-1-17.3-2.9s-8.9-4.5-12-7.7s-5.5-7-7.1-11.4c-1.6-4.4-2.3-9.1-2.3-14.2
		c0-4.6,0.8-9,2.5-13.3c1.7-4.2,4.1-8,7.2-11.3c3.1-3.2,7-5.8,11.6-7.8c4.7-2,9.9-3,15.7-3c6.3,0,11.5,0.8,15.6,2.3
		s7.4,3.7,10.1,6.4c2.6,2.6,4.5,5.6,5.6,9.1c1.2,3.5,1.8,7.2,1.8,11v4.4h-45.9c0,9.3,1.8,16.3,5.4,21.2c3.6,4.8,9.3,7.3,17,7.3
		c4.3,0,8.1-1.2,11.5-3.5c3.4-2.3,6.3-5.3,8.7-8.9L3020.4,523.8z M2994.4,498c0-2.7-0.1-5.5-0.4-8.3s-0.7-5.2-1.4-7
		c-0.8-2.1-1.8-3.7-3.2-4.8c-1.3-1.1-3-1.6-5.1-1.6c-3.5,0-6.3,1.8-8.3,5.3c-2.1,3.5-3.2,9.1-3.4,16.8L2994.4,498z"/>
	<path class="st1" d="M3104.5,538.6c-2,0.9-4.3,1.7-7,2.4c-2.7,0.7-5.6,1.1-8.6,1.1c-5.6,0-9.6-0.8-12.3-2.5c-2.6-1.7-4.4-4-5.4-7.1
		h-0.4c-1.5,1.5-3,2.9-4.5,3.9s-3,2-4.6,2.8c-2.1,1-4.2,1.7-6.2,2.2c-2,0.5-4.7,0.7-8.3,0.7c-5.3,0-9.7-1.6-13.5-4.7
		c-3.7-3.1-5.6-7.2-5.6-12.3c0-2.9,0.4-5.4,1.2-7.5c0.8-2.1,2-3.9,3.5-5.5c1.4-1.5,2.9-2.7,4.7-3.6c1.8-1,3.8-1.8,5.9-2.7
		c4.1-1.5,9-3,14.7-4.7c5.7-1.6,9.9-3,12.5-4.3v-6.5c0-1.1-0.1-2.6-0.3-4.5c-0.2-1.9-0.6-3.4-1.2-4.7c-0.6-1.4-1.6-2.7-3-3.7
		s-3.1-1.5-5.4-1.5c-2,0-3.7,0.3-5,0.8c-1.3,0.6-2.4,1.1-3.2,1.7c0.1,0.9,0.5,2.3,1.2,4.1c0.6,1.9,1,3.6,1,5.4
		c0,0.8-0.2,1.7-0.6,2.9c-0.4,1.2-1,2.1-1.8,2.7c-1,0.9-2.2,1.6-3.5,2.1c-1.3,0.5-3.3,0.7-6,0.7c-3.8,0-6.7-0.9-8.6-2.7
		c-2-1.8-2.9-4.2-2.9-7.2c0-2.5,1-4.8,3-6.8c2-2,4.5-3.7,7.4-5c2.9-1.4,6.1-2.4,9.8-3.2c3.7-0.7,7.1-1.1,10.3-1.1
		c4.4,0,8.4,0.3,12.1,0.8c3.7,0.5,7,1.6,9.9,3.2c2.8,1.6,5,3.9,6.7,6.9c1.7,3,2.5,6.9,2.5,11.8c0,5.1-0.1,11.2-0.3,18.2
		s-0.3,11.6-0.3,13.8c0,2,0.3,3.6,0.9,4.8c0.6,1.2,1.5,2.1,2.8,2.6c0.8,0.4,2,0.6,3.6,0.6c1.7,0.1,3.2,0.1,4.5,0.1V538.6z
		 M3070.8,503.2c-2.5,0.9-5.1,1.8-7.6,3s-4.5,2.3-6.1,3.5c-1.7,1.3-3,2.9-3.9,4.9c-1,2-1.4,4.3-1.4,7c0,3.5,0.8,6.1,2.4,7.7
		c1.6,1.6,3.6,2.4,6,2.4c2.5,0,4.6-0.5,6.2-1.5c1.6-1,3-2.3,4.3-3.8L3070.8,503.2z"/>
	<path class="st1" d="M3177.3,485.1c0,3.4-1.1,6.5-3.2,9.1c-2.1,2.6-4.9,3.9-8.4,3.9c-3.3,0-6.1-0.8-8.4-2.5
		c-2.3-1.7-3.4-4.1-3.4-7.4c0-1.6,0.1-2.8,0.3-3.7c0.2-0.9,0.4-1.7,0.6-2.5c-2.1,0.1-4.3,0.8-6.6,2.2c-2.3,1.3-4.3,3.1-6.1,5.4v37.3
		c0,1.6,0.2,2.9,0.7,3.9c0.5,1,1.3,1.9,2.5,2.4c1,0.5,2.6,0.9,4.9,1.3c2.2,0.3,3.9,0.5,4.9,0.6v5h-45.4v-5c1.1-0.1,2.3-0.2,3.4-0.4
		c1.2-0.2,2.1-0.4,3-0.6c1.4-0.5,2.4-1.3,3-2.3c0.5-1,0.8-2.4,0.8-4.1v-39.5c0-1.6-0.4-3.1-1.2-4.4c-0.8-1.3-1.7-2.3-2.8-3.1
		c-0.8-0.5-1.8-1-3.1-1.4c-1.2-0.4-2.6-0.6-4.1-0.7v-5l32.4-1.8l1,1v9.8h0.3c3.1-3.6,6.4-6.5,9.9-8.5c3.5-2.1,7.2-3.1,11-3.1
		c4.2,0,7.6,1.3,10.1,3.9C3176,477.6,3177.3,481,3177.3,485.1z"/>
	<path class="st1" d="M3213.4,542.3c-4.4,0-8.7-0.6-12.9-1.9c-4.2-1.3-7.4-2.7-9.7-4.1l-2,4.6h-5.3l-0.9-25.3h5
		c0.7,2,1.8,4.3,3.4,6.9c1.6,2.6,3.4,4.9,5.4,6.9c2.1,2,4.6,3.8,7.3,5.2c2.7,1.4,5.7,2.1,8.8,2.1c4.1,0,7.2-0.8,9.2-2.4
		c2-1.6,3-4.1,3-7.4c0-1.8-0.5-3.3-1.4-4.5c-0.9-1.2-2.2-2.2-3.7-3.1c-1.8-0.9-3.7-1.7-5.8-2.3c-2.1-0.6-4.7-1.4-7.8-2.3
		c-3.1-0.9-5.7-1.8-7.9-2.7c-2.2-0.9-4.5-2.4-6.8-4.4c-2-1.8-3.7-3.9-4.9-6.4s-1.8-5.5-1.8-8.9c0-6.4,2.7-11.5,8-15.5
		s12.4-5.9,21.1-5.9c4.1,0,7.9,0.4,11.4,1.3c3.5,0.8,6.4,1.8,8.7,2.7l1.4-4h5.2l1.1,23.1h-4.8c-1.6-4.7-4.3-8.8-8.1-12.2
		c-3.8-3.4-8-5.1-12.4-5.1c-3.5,0-6.2,0.7-8.2,2.2c-2,1.4-3,3.5-3,6c0,3.4,1.5,5.9,4.4,7.5c2.9,1.5,7,3,12.2,4.3
		c8.1,2.1,14,4.9,17.8,8.5c3.7,3.6,5.6,8.2,5.6,13.7c0,7.4-2.9,13.2-8.7,17.2C3230.3,540.3,3222.8,542.3,3213.4,542.3z"/>
	<path class="st1" d="M2544,663.8c-1.6,2.6-3.5,5-5.7,7.3c-2.2,2.3-4.8,4.2-7.6,5.9c-3,1.7-6.1,3-9.2,3.9c-3.1,0.9-6.7,1.3-10.7,1.3
		c-6.7,0-12.5-1-17.3-2.9c-4.9-1.9-8.9-4.5-12-7.7c-3.2-3.2-5.5-7-7.1-11.4c-1.6-4.4-2.3-9.1-2.3-14.2c0-4.6,0.8-9,2.5-13.3
		c1.7-4.2,4.1-8,7.2-11.3c3.1-3.2,7-5.8,11.6-7.8c4.7-2,9.9-3,15.7-3c6.3,0,11.5,0.8,15.6,2.3s7.4,3.7,10.1,6.4
		c2.6,2.6,4.5,5.6,5.6,9.1c1.2,3.5,1.8,7.2,1.8,11v4.4h-45.9c0,9.3,1.8,16.3,5.4,21.2s9.3,7.3,17,7.3c4.3,0,8.1-1.2,11.5-3.5
		c3.4-2.3,6.3-5.3,8.7-8.9L2544,663.8z M2518,638c0-2.7-0.1-5.5-0.4-8.3s-0.7-5.2-1.4-7c-0.8-2.1-1.8-3.7-3.2-4.8
		c-1.3-1.1-3-1.6-5.1-1.6c-3.5,0-6.3,1.8-8.3,5.3c-2.1,3.5-3.2,9.1-3.4,16.8L2518,638z"/>
	<path class="st1" d="M2627.9,680h-42.4v-5c2.2-0.1,4.1-0.3,5.6-0.6c1.5-0.2,2.2-0.8,2.2-1.5c0-0.4-0.2-0.9-0.6-1.7
		c-0.4-0.8-0.9-1.6-1.5-2.6c-0.9-1.4-2.3-3.6-4.5-6.7c-2.1-3-4.1-5.9-5.9-8.4c-2.6,3-4.8,5.6-6.6,7.8c-1.8,2.2-3.6,4.5-5.6,7
		c-0.7,0.8-1.2,1.6-1.4,2.2s-0.4,1.1-0.4,1.2c0,1,0.7,1.8,2.2,2.4c1.5,0.5,3.2,0.8,5.3,0.8v5h-27.6v-5c3.7-0.8,6.6-2,8.8-3.7
		s3.7-3,4.5-3.9c3.3-3.5,6.1-6.5,8.4-8.8c2.3-2.3,5.4-5.6,9.2-9.9c-2.6-3.6-5.7-7.9-9.4-13.1c-3.7-5.1-6.7-9.4-9.2-12.6
		c-1.2-1.6-2.7-2.9-4.5-3.8c-1.8-0.9-4.1-1.5-6.9-1.7v-5h41.5v5c-1.5,0-3,0.1-4.4,0.3c-1.4,0.2-2.2,0.5-2.2,1c0,0.4,0.1,0.8,0.3,1.4
		s0.5,1.1,0.9,1.7c0.9,1.4,2.2,3.6,4.1,6.4s3.8,5.7,6,8.8c2-2.5,3.7-4.5,5.1-6.1s3.2-3.8,5.3-6.7c0.8-1.1,1.3-1.9,1.5-2.4
		s0.3-0.9,0.3-1c0-0.8-0.5-1.5-1.5-2.1c-1-0.6-2.9-1-5.7-1.1v-5h27v5c-2.2,0.4-4.4,1.1-6.4,2.2c-2.1,1.1-4.3,2.9-6.5,5.3
		c-3.5,3.7-6.1,6.3-7.7,8s-4.3,4.5-8,8.4c2.1,2.9,5.1,7.2,9,12.8c3.9,5.6,7.3,10.3,10.2,14.2c1.2,1.7,2.6,3.1,4.1,4.2
		c1.5,1.1,3.9,1.8,7.2,2.2V680z"/>
	<path class="st1" d="M2714.9,647c0,9.5-3.2,17.7-9.6,24.6s-14.4,10.2-24.2,10.2c-4.3,0-7.9-0.4-10.6-1.3c-2.7-0.9-4.9-2-6.7-3.2
		h-0.5v19.1c0,1.6,0.3,3,1.1,4.1c0.7,1.2,1.7,2,3,2.6c1.2,0.5,3,1,5.2,1.4s4.1,0.7,5.6,0.7v5H2629v-5c1.1-0.1,2.6-0.3,4.3-0.5
		c1.7-0.2,3-0.5,3.9-0.8c1.4-0.5,2.4-1.3,3-2.5c0.5-1.2,0.8-2.6,0.8-4.1v-69.4c-0.1-1.5-0.5-2.8-1.1-3.9c-0.6-1.1-1.5-2.1-2.7-3
		c-0.9-0.6-2.1-1.1-3.6-1.5c-1.5-0.4-3-0.6-4.4-0.8v-5l33.1-1.8l1,0.9v7.5l0.5,0.1c3-3,6.3-5.4,9.9-7.1c3.6-1.7,7.2-2.5,10.8-2.5
		c9.4,0,16.7,3.3,22.2,9.9C2712.2,627.4,2714.9,636.2,2714.9,647z M2690.5,647.2c0-3.4-0.2-6.6-0.7-9.7c-0.5-3.1-1.4-5.9-2.6-8.3
		c-1.2-2.4-2.8-4.4-4.8-5.8c-2-1.4-4.5-2.2-7.3-2.2c-2.9,0-5.3,0.5-7,1.5c-1.8,1-3.3,2.3-4.6,4v38.5c0.3,0.9,0.8,2.1,1.6,3.5
		c0.8,1.4,1.5,2.6,2.3,3.4c1.1,1.2,2.4,2.1,3.9,2.7c1.4,0.6,3,0.9,4.7,0.9c4.5,0,8-2.4,10.7-7.2
		C2689.2,663.6,2690.5,656.6,2690.5,647.2z"/>
	<path class="st1" d="M2796.6,663.8c-1.6,2.6-3.5,5-5.7,7.3c-2.2,2.3-4.8,4.2-7.6,5.9c-3,1.7-6.1,3-9.2,3.9
		c-3.1,0.9-6.7,1.3-10.7,1.3c-6.7,0-12.5-1-17.3-2.9c-4.9-1.9-8.9-4.5-12-7.7c-3.2-3.2-5.5-7-7.1-11.4c-1.6-4.4-2.3-9.1-2.3-14.2
		c0-4.6,0.8-9,2.5-13.3c1.7-4.2,4.1-8,7.2-11.3c3.1-3.2,7-5.8,11.6-7.8c4.7-2,9.9-3,15.7-3c6.3,0,11.5,0.8,15.6,2.3
		s7.4,3.7,10.1,6.4c2.6,2.6,4.5,5.6,5.6,9.1c1.2,3.5,1.8,7.2,1.8,11v4.4h-45.9c0,9.3,1.8,16.3,5.4,21.2s9.3,7.3,17,7.3
		c4.3,0,8.1-1.2,11.5-3.5c3.4-2.3,6.3-5.3,8.7-8.9L2796.6,663.8z M2770.7,638c0-2.7-0.1-5.5-0.4-8.3s-0.7-5.2-1.4-7
		c-0.8-2.1-1.8-3.7-3.2-4.8c-1.3-1.1-3-1.6-5.1-1.6c-3.5,0-6.3,1.8-8.3,5.3c-2.1,3.5-3.2,9.1-3.4,16.8L2770.7,638z"/>
	<path class="st1" d="M2870.7,625.1c0,3.4-1.1,6.5-3.2,9.1c-2.1,2.6-4.9,3.9-8.4,3.9c-3.3,0-6.1-0.8-8.4-2.5
		c-2.3-1.7-3.4-4.1-3.4-7.4c0-1.6,0.1-2.8,0.3-3.7c0.2-0.9,0.4-1.7,0.6-2.5c-2.1,0.1-4.3,0.8-6.6,2.2c-2.3,1.3-4.3,3.1-6.1,5.4v37.3
		c0,1.6,0.2,2.9,0.7,3.9c0.5,1,1.3,1.9,2.5,2.4c1,0.5,2.6,0.9,4.9,1.3c2.2,0.3,3.9,0.5,4.9,0.6v5h-45.4v-5c1.1-0.1,2.3-0.2,3.4-0.4
		c1.2-0.2,2.1-0.4,3-0.6c1.4-0.5,2.4-1.3,3-2.3c0.5-1,0.8-2.4,0.8-4.1v-39.5c0-1.6-0.4-3.1-1.2-4.4c-0.8-1.3-1.7-2.3-2.8-3.1
		c-0.8-0.5-1.8-1-3.1-1.4c-1.2-0.4-2.6-0.6-4.1-0.7v-5l32.4-1.8l1,1v9.8h0.3c3.1-3.6,6.4-6.5,9.9-8.5c3.5-2.1,7.2-3.1,11-3.1
		c4.2,0,7.6,1.3,10.1,3.9C2869.4,617.6,2870.7,621,2870.7,625.1z"/>
	<path class="st1" d="M2918.3,680h-42.9v-5c1.2-0.1,2.3-0.2,3.5-0.3s2.1-0.4,2.9-0.7c1.4-0.5,2.5-1.3,3.1-2.3c0.6-1,0.9-2.4,0.9-4
		v-39.5c0-1.6-0.4-3-1.1-4.2c-0.7-1.2-1.6-2.2-2.7-2.9c-0.8-0.5-2-1.1-3.7-1.6c-1.7-0.5-3.2-0.8-4.5-1v-5l33.3-1.8l1,1v53.9
		c0,1.6,0.3,2.9,1,4c0.7,1.1,1.7,1.9,2.9,2.5c0.9,0.4,1.9,0.8,3,1.1s2.2,0.5,3.4,0.7V680z M2908.4,587.5c0,3.4-1.3,6.4-4,8.8
		c-2.6,2.4-5.8,3.6-9.4,3.6c-3.7,0-6.8-1.2-9.5-3.6c-2.6-2.4-4-5.4-4-8.8c0-3.4,1.3-6.4,4-8.8c2.6-2.4,5.8-3.7,9.5-3.7
		s6.8,1.2,9.4,3.7C2907.1,581.1,2908.4,584,2908.4,587.5z"/>
	<path class="st1" d="M2997.5,663.8c-1.6,2.6-3.5,5-5.7,7.3c-2.2,2.3-4.8,4.2-7.6,5.9c-3,1.7-6.1,3-9.2,3.9
		c-3.1,0.9-6.7,1.3-10.7,1.3c-6.7,0-12.5-1-17.3-2.9c-4.9-1.9-8.9-4.5-12-7.7c-3.2-3.2-5.5-7-7.1-11.4c-1.6-4.4-2.3-9.1-2.3-14.2
		c0-4.6,0.8-9,2.5-13.3c1.7-4.2,4.1-8,7.2-11.3c3.1-3.2,7-5.8,11.6-7.8s9.9-3,15.7-3c6.3,0,11.5,0.8,15.6,2.3s7.4,3.7,10.1,6.4
		c2.6,2.6,4.5,5.6,5.6,9.1c1.2,3.5,1.8,7.2,1.8,11v4.4h-45.9c0,9.3,1.8,16.3,5.4,21.2c3.6,4.8,9.3,7.3,17,7.3
		c4.3,0,8.1-1.2,11.5-3.5c3.4-2.3,6.3-5.3,8.7-8.9L2997.5,663.8z M2971.6,638c0-2.7-0.1-5.5-0.4-8.3s-0.7-5.2-1.4-7
		c-0.8-2.1-1.8-3.7-3.2-4.8s-3-1.6-5.1-1.6c-3.5,0-6.3,1.8-8.3,5.3c-2.1,3.5-3.2,9.1-3.4,16.8L2971.6,638z"/>
	<path class="st1" d="M3093.6,680h-40.8v-5c0.9-0.1,1.9-0.2,3.1-0.3c1.2-0.1,2.1-0.4,2.8-0.7c1-0.5,1.6-1.2,2-2.2s0.6-2.4,0.6-4.2
		v-31.8c0-4.6-0.9-8.1-2.6-10.4c-1.7-2.3-4.2-3.5-7.5-3.5c-1.8,0-3.5,0.3-5.1,0.8c-1.6,0.5-3.1,1.3-4.6,2.4
		c-1.3,0.9-2.4,1.8-3.2,2.8s-1.5,1.8-2,2.5v36.4c0,1.6,0.2,2.9,0.7,4c0.5,1.1,1.2,1.9,2.2,2.4c0.7,0.4,1.6,0.8,2.7,1.1
		s2.1,0.5,3.2,0.7v5H3004v-5c1.1-0.1,2.3-0.2,3.4-0.4c1.2-0.2,2.1-0.4,3-0.6c1.4-0.5,2.4-1.3,3-2.3c0.5-1,0.8-2.4,0.8-4.1v-39.5
		c0-1.4-0.4-2.8-1.1-4.1s-1.7-2.5-2.9-3.3c-0.8-0.5-1.8-1-3.1-1.4c-1.2-0.4-2.6-0.6-4.1-0.7v-5l32.4-1.8l1,1v9.8h0.3
		c1.3-1.1,2.8-2.5,4.6-4.1c1.8-1.6,3.5-2.9,5-3.9c1.7-1.1,3.9-2,6.6-2.8c2.7-0.8,5.6-1.2,8.7-1.2c7.4,0,12.9,2.1,16.6,6.3
		c3.7,4.2,5.5,9.7,5.5,16.7v33.3c0,1.7,0.2,3,0.7,4c0.5,1,1.4,1.8,2.8,2.4c0.7,0.3,1.6,0.6,2.7,1c1.1,0.3,2.3,0.5,3.6,0.7V680z"/>
	<path class="st1" d="M3138.7,682.2c-6.3,0-11.8-0.9-16.7-2.7c-4.8-1.8-8.8-4.3-11.9-7.5c-3.1-3.2-5.5-7-7-11.4
		c-1.5-4.4-2.3-9.2-2.3-14.3c0-4.7,0.9-9.2,2.8-13.4c1.9-4.3,4.4-8,7.6-11.2c3.3-3.3,7.4-5.9,12.3-7.9c4.9-2,10.3-3,16.3-3
		c8.3,0,14.9,1.6,19.8,4.7c4.8,3.1,7.3,7.4,7.3,12.7c0,3.3-0.9,5.9-2.6,7.9c-1.7,2-4.7,3-8.9,3c-3.4,0-6.2-0.8-8.5-2.4
		c-2.3-1.6-3.4-3.8-3.4-6.4c0-2.2,0.4-4.4,1.1-6.6c0.7-2.2,1.2-3.8,1.3-5c-0.5-0.8-1.1-1.4-1.9-1.9c-0.8-0.4-2-0.6-3.6-0.6
		c-2,0-3.9,0.5-5.6,1.4s-3.2,2.6-4.7,5c-1.4,2.3-2.5,5.3-3.4,9.1c-0.8,3.8-1.3,8.4-1.3,13.7c0,8.1,1.9,14.5,5.7,19.5
		c3.8,4.9,8.3,7.4,13.5,7.4c5,0,9-1.1,12-3.4c3-2.2,5.6-5.4,7.9-9.5l5.1,3.5c-1.4,2.8-3.1,5.3-5,7.6c-1.9,2.3-4.3,4.3-7,6.1
		c-2.9,1.9-5.7,3.3-8.7,4.2C3146,681.7,3142.6,682.2,3138.7,682.2z"/>
	<path class="st1" d="M3246.7,663.8c-1.6,2.6-3.5,5-5.7,7.3c-2.2,2.3-4.8,4.2-7.6,5.9c-3,1.7-6.1,3-9.2,3.9
		c-3.1,0.9-6.7,1.3-10.7,1.3c-6.7,0-12.5-1-17.3-2.9c-4.9-1.9-8.9-4.5-12-7.7s-5.5-7-7.1-11.4c-1.6-4.4-2.3-9.1-2.3-14.2
		c0-4.6,0.8-9,2.5-13.3c1.7-4.2,4.1-8,7.2-11.3c3.1-3.2,7-5.8,11.6-7.8s9.9-3,15.7-3c6.3,0,11.5,0.8,15.6,2.3s7.4,3.7,10.1,6.4
		c2.6,2.6,4.5,5.6,5.6,9.1c1.2,3.5,1.8,7.2,1.8,11v4.4H3199c0,9.3,1.8,16.3,5.4,21.2c3.6,4.8,9.3,7.3,17,7.3c4.3,0,8.1-1.2,11.5-3.5
		c3.4-2.3,6.3-5.3,8.7-8.9L3246.7,663.8z M3220.8,638c0-2.7-0.1-5.5-0.4-8.3s-0.7-5.2-1.4-7c-0.8-2.1-1.8-3.7-3.2-4.8
		c-1.3-1.1-3-1.6-5.1-1.6c-3.5,0-6.3,1.8-8.3,5.3c-2.1,3.5-3.2,9.1-3.4,16.8L3220.8,638z"/>
</g>
<g>
	<path class="st0" d="M1409.6,293.7c0,34.3-12.9,63-38.7,86.1c-25.8,23.1-58.8,34.7-98.9,34.7c-41.9,0-75.5-13.1-100.9-39.4
		c-25.4-26.3-38.1-61.6-38.1-105.9c0-59.2,20-108.1,59.9-146.8c40-38.7,94.2-62,162.8-70.1l5.6,24l-25.7,4.4
		c-19.6,5.3-36,12.7-49.1,22c-13.2,9.3-24.1,19.9-32.6,31.9c-8.2,11.5-14.7,24.5-19.4,38.9c-4.7,14.5-8.2,28.8-10.7,42.8
		c14.1-12.6,28-21.1,41.9-25.5c13.8-4.4,28.7-6.6,44.5-6.6c27.8,0,51.4,10.2,70.6,30.5C1399.9,235,1409.6,261.3,1409.6,293.7z
		 M1319.8,300.2c0-25.6-4.5-45.9-13.5-60.9c-9-15-21-22.6-36-22.6c-10,0-18.7,1.7-26.1,5.1c-7.4,3.4-14.8,10.5-22.2,21.4
		c0,0.8,0,2.2-0.1,4.2c-0.1,2-0.2,4.7-0.4,7.9c-0.2,3.6-0.3,6.9-0.4,9.9c-0.1,3.1-0.1,5.7-0.1,7.8c0,38.8,4.7,68.5,14.2,89.2
		c9.5,20.6,21.6,30.9,36.5,30.9c14.4,0,26-8.1,34.8-24.3C1315.4,352.7,1319.8,329.8,1319.8,300.2z"/>
	<path class="st0" d="M1755.3,406H1641c-14.1-24.7-26.9-45.6-38.5-62.8c-11.6-17.2-22.6-33.1-33-47.8l-14.3,12.1v52.9
		c0,5.8,0.8,10.6,2.5,14.3c1.7,3.7,5,6.5,9.8,8.2c2.9,1.3,6.3,2.4,10.2,3.4s7.8,1.6,11.6,1.9V406h-150.7v-17.7
		c4.1-0.3,8.1-0.8,12.2-1.3c4.1-0.6,7.7-1.3,10.7-2.3c5.2-1.8,8.8-4.5,10.6-8.2c1.9-3.7,2.8-8.6,2.8-14.6V91.3
		c0-5.3-1.2-10.9-3.5-16.6c-2.3-5.7-5.8-10.1-10.3-13c-3.1-1.9-7.7-3.6-13.8-4.9c-6.1-1.3-11.7-2.1-16.7-2.4V36.7l120.8-6.3l3.6,3.9
		v250.4c12-10.7,25.4-23,40.3-37.1c14.9-14.1,26.9-25.7,36-34.9c5.3-5.5,8.3-9.7,8.9-12.5c0.6-2.8,0.8-4.6,0.8-5.2
		c0-2.9-2.6-5.3-7.7-7.3c-5.1-1.9-12.8-3.6-23.1-5.1v-17.2h123.3V182c-16.2,4.5-28.5,8.8-36.9,12.7c-8.5,4-17.7,9.3-27.7,15.9
		c-6.6,4.4-13,8.9-19.2,13.7c-6.2,4.8-13.3,10.7-21.4,17.9c15.8,23,30.4,44.2,43.8,63.8c13.4,19.6,27.5,40.3,42.1,62.1
		c5,7.6,11.2,12.7,18.7,15.3c7.4,2.6,14.9,4.2,22.3,4.9V406z"/>
	<path class="st0" d="M2053,286.6h-114.8v114.8h-39.8V286.6h-114.8v-39.8h114.8V132.1h39.8v114.8H2053V286.6z"/>
</g>
<text transform="matrix(1 0 0 1 2346.8018 1334.1904)" class="st0" style="font-family:'Georgia-Bold'; font-size:494.0601px;">1970</text>
<text transform="matrix(1 0 0 1 2371.1016 1032.9062)" class="st0" style="font-family:'Georgia-Bold'; font-size:141.2228px;">est.</text>
</svg>
