<?xml version="1.0" encoding="utf-8"?>
<!-- Generator: Adobe Illustrator 23.0.3, SVG Export Plug-In . SVG Version: 6.00 Build 0)  -->
<svg version="1.1" id="Layer_3" xmlns="http://www.w3.org/2000/svg" xmlns:xlink="http://www.w3.org/1999/xlink" x="0px" y="0px"
	 viewBox="0 0 512 512" style="enable-background:new 0 0 512 512;" xml:space="preserve">
<style type="text/css">
	.st0{fill:#0E418F;}
</style>
<path class="st0" d="M336,344v-48h16v-16h-32v-16c0-35.3-28.7-64-64-64s-64,28.7-64,64v16h-32v16h16v48c0,26.5,21.5,48,48,48h64
	C314.5,392,336,370.5,336,344z M208,264c0-26.5,21.5-48,48-48s48,21.5,48,48v16h-96V264z M240,344v-16h32v16H240z M272,360v16h-32
	v-16H272z M240,312v-16h32v16H240z M192,344v-48h32v16h-16v16h16v16h-16v16h16v16C206.4,376,192,361.6,192,344z M288,376v-16h16v-16
	h-16v-16h16v-16h-16v-16h32v48C320,361.6,305.6,376,288,376z"/>
<path class="st0" d="M168,376c0-35.3-28.7-64-64-64s-64,28.7-64,64v16H8v16h16v48c0,26.5,21.5,48,48,48h64c26.5,0,48-21.5,48-48v-48
	h16v-16h-32V376z M56,376c0-26.5,21.5-48,48-48s48,21.5,48,48v16H56V376z M88,456v-16h32v16H88z M120,472v16H88v-16H120z M88,424
	v-16h32v16H88z M40,456v-48h32v16H56v16h16v16H56v16h16v16C54.4,488,40,473.6,40,456z M168,456c0,17.6-14.4,32-32,32v-16h16v-16h-16
	v-16h16v-16h-16v-16h32V456z"/>
<path class="st0" d="M504,392h-32v-16c0-35.3-28.7-64-64-64s-64,28.7-64,64v16h-32v16h16v48c0,26.5,21.5,48,48,48h64
	c26.5,0,48-21.5,48-48v-48h16V392z M360,376c0-26.5,21.5-48,48-48s48,21.5,48,48v16h-96V376z M392,456v-16h32v16H392z M424,472v16
	h-32v-16H424z M392,424v-16h32v16H392z M344,456v-48h32v16h-16v16h16v16h-16v16h16v16C358.4,488,344,473.6,344,456z M472,456
	c0,17.6-14.4,32-32,32v-16h16v-16h-16v-16h16v-16h-16v-16h32V456z"/>
<path class="st0" d="M74.3,293.7c1.6,1.6,3.6,2.3,5.7,2.3s4.1-0.8,5.7-2.3l64-64c2.3-2.3,3-5.7,1.7-8.7c-1.2-3-4.2-4.9-7.4-4.9h-24
	v-96h-16v104c0,4.4,3.6,8,8,8h12.7L80,276.7L35.3,232H48c4.4,0,8-3.6,8-8V88H40v128H16c-3.2,0-6.2,2-7.4,4.9c-1.2,3-0.6,6.4,1.7,8.7
	L74.3,293.7z"/>
<path class="st0" d="M88,104h80.4c4.1,44.8,41.8,80,87.6,80s83.5-35.2,87.6-80H424v128h16V96c0-4.4-3.6-8-8-8h-88.4
	C339.5,43.2,301.8,8,256,8s-83.5,35.2-87.6,80H80c-4.4,0-8,3.6-8,8v136h16L88,104z M328,96c0,37-28.1,67.5-64,71.5v-16.7
	c13.8-3.6,24-16,24-30.9c0-17.6-14.4-32-32-32c-8.8,0-16-7.2-16-16s7.2-16,16-16s16,7.2,16,16h16c0-14.9-10.2-27.3-24-30.9V24.5
	C299.9,28.5,328,59,328,96z M248,24.5v16.7c-13.8,3.6-24,16-24,30.9c0,17.6,14.4,32,32,32c8.8,0,16,7.2,16,16s-7.2,16-16,16
	s-16-7.2-16-16h-16c0,14.9,10.2,27.3,24,30.9v16.7c-35.9-4-64-34.5-64-71.5S212.1,28.5,248,24.5z"/>
<path class="st0" d="M464,232h12.7L432,276.7L387.3,232H400c4.4,0,8-3.6,8-8V120h-16v96h-24c-3.2,0-6.2,2-7.4,4.9
	c-1.2,3-0.6,6.4,1.7,8.7l64,64c1.6,1.6,3.6,2.3,5.7,2.3s4.1-0.8,5.7-2.3l64-64c2.3-2.3,3-5.7,1.7-8.7c-1.2-3-4.2-4.9-7.4-4.9h-24V88
	h-16v136C456,228.4,459.6,232,464,232z"/>
</svg>
