<?xml version="1.0" encoding="utf-8"?>
<!-- Generator: Adobe Illustrator 23.0.3, SVG Export Plug-In . SVG Version: 6.00 Build 0)  -->
<svg version="1.1" id="Layer_1" xmlns="http://www.w3.org/2000/svg" xmlns:xlink="http://www.w3.org/1999/xlink" x="0px" y="0px"
	 viewBox="0 0 480 480" style="enable-background:new 0 0 480 480;" xml:space="preserve">
<style type="text/css">
	.st0{fill:#0E418F;}
</style>
<path class="st0" d="M22.8,393.2l135.8,74.1c15.3,8.4,32.4,12.7,49.8,12.7H472c4.4,0,8-3.6,8-8V328c0-4.4-3.6-8-8-8h-61.2l-0.9-0.7
	c-9.4-7.3-19.8-13.3-30.8-17.7c-38.8-15.8-82.9-11.9-118.3,10.4H200c-12.7,0-24.7,6.1-32.3,16.3c-7.5,10.3-9.7,23.5-5.9,35.7
	l-98.9-49.6c-14.7-7.4-32.3-5.7-45.3,4.3C6.5,327.1,0,340.1,0,353.9v0.9C0,370.8,8.7,385.6,22.8,393.2z M416,336h48v128h-48V336z
	 M16,353.9c0.1-9,4.4-17.4,11.6-22.6c8.1-6.1,19.1-7.1,28.2-2.5l124.6,62.4c1.1,0.6,2.3,0.8,3.6,0.8h120v-16H200
	c-13.3,0-24-10.7-24-24s10.7-24,24-24h63c1.6,0,3.1-0.5,4.4-1.3c31.3-20.6,70.9-24.5,105.6-10.3c9.7,3.9,18.7,9.1,27,15.5V464H208.5
	c-14.7,0-29.2-3.7-42.2-10.8L30.4,379.1c-8.9-4.8-14.5-14.2-14.4-24.3V353.9z"/>
<path class="st0" d="M432,424h16v16h-16V424z"/>
<g>
	<path class="st0" d="M368.7,163.1L368.7,163.1c-2.3-5.4-7.5-8.9-13.3-8.9H315V18.4c0-7.9-6.5-14.4-14.4-14.4H179.4
		c-7.9,0-14.4,6.5-14.4,14.4v135.8h-40.4c-5.8,0-11,3.5-13.3,8.9c-2.2,5.4-1,11.6,3.1,15.7l115.3,115.6c2.7,2.7,6.3,4.2,10.2,4.2
		c3.8,0,7.4-1.5,10.2-4.2l64.7-64.7c0,0,0,0,0,0l50.9-50.9C369.8,174.7,371,168.5,368.7,163.1z M287.8,232.3l-47.9,47.9l-47.8-47.9
		L174.8,215l-43.4-43.5h39.2c6.4,0,11.6-5.2,11.6-11.6V21.3h115.5v138.6c0,6.4,5.2,11.6,11.6,11.6h39.2L305,215L287.8,232.3z"/>
	<path class="st0" d="M210.8,70.7c4.8,0,8.6-3.9,8.6-8.6v-7.2c0-4.8-3.9-8.6-8.6-8.6s-8.6,3.9-8.6,8.6v7.2
		C202.2,66.9,206,70.7,210.8,70.7z"/>
	<path class="st0" d="M265.4,48.8l-60.7,60.7c-3.4,3.4-3.4,8.8,0,12.2c1.7,1.7,3.9,2.5,6.1,2.5c2.2,0,4.4-0.8,6.1-2.5L277.6,61
		c3.4-3.4,3.4-8.8,0-12.2C274.3,45.4,268.8,45.4,265.4,48.8z"/>
	<path class="st0" d="M271.5,99.7c-4.8,0-8.6,3.9-8.6,8.6v7.2c0,4.8,3.9,8.6,8.6,8.6c4.8,0,8.6-3.9,8.6-8.6v-7.2
		C280.2,103.6,276.3,99.7,271.5,99.7z"/>
</g>
</svg>
