<?xml version="1.0" encoding="utf-8"?>
<!-- Generator: Adobe Illustrator 23.0.3, SVG Export Plug-In . SVG Version: 6.00 Build 0)  -->
<svg version="1.1" id="Capa_1" xmlns="http://www.w3.org/2000/svg" xmlns:xlink="http://www.w3.org/1999/xlink" x="0px" y="0px"
	 viewBox="0 0 612 612" style="enable-background:new 0 0 612 612;" xml:space="preserve">
<style type="text/css">
	.st0{fill:#0077B5;}
</style>
<g>
	<g id="linkedin">
		<g>
			<path class="st0" d="M133.6,172.5h-116c-7.9,0-14.4,6.4-14.4,14.4v405.3c0,7.9,6.4,14.4,14.4,14.4h115.9
				c7.9,0,14.4-6.4,14.4-14.4V186.9C147.9,178.9,141.5,172.5,133.6,172.5z M456.8,167.6c-56.3,0-93.1,24.3-114.5,45.4l-2.6-27.5
				c-0.7-7.4-6.9-13-14.3-13h-0.3l-105.7,2c-3.9,0.1-7.6,1.7-10.2,4.5c-2.7,2.8-4.1,6.6-3.9,10.5c1.3,29.6,1.3,64.2,1.2,104.2v300.4
				c0,7.9,6.4,14.4,14.4,14.4h115.9c7.9,0,14.4-6.4,14.4-14.4V359.9c0-12,1-20.6,3.1-25.8c7.2-18.4,31.1-37.4,58.4-37.4
				c35.5,0,56.6,27,56.6,72.2v225.3c0,7.9,6.4,14.4,14.4,14.4h113.9c7.9,0,14.4-6.4,14.4-14.4v-240C612,237.3,554,167.6,456.8,167.6
				z M80.5,3.5C33.8,3.5,0,35.6,0,79.9s33.2,76.4,78.9,76.4c47.1,0,81.3-32.1,81.3-76.7C159.1,34.8,126.3,3.5,80.5,3.5z"/>
		</g>
	</g>
</g>
</svg>
