<?xml version="1.0" standalone="no"?>
<!DOCTYPE svg PUBLIC "-//W3C//DTD SVG 20010904//EN"
 "http://www.w3.org/TR/2001/REC-SVG-20010904/DTD/svg10.dtd">
<svg version="1.0" xmlns="http://www.w3.org/2000/svg"
 width="700.000000pt" height="700.000000pt" viewBox="0 0 700.000000 700.000000"
 preserveAspectRatio="xMidYMid meet">
<metadata>
Created by potrace 1.11, written by Peter Selinger 2001-2013
</metadata>
<g transform="translate(0.000000,700.000000) scale(0.100000,-0.100000)"
fill="#000000" stroke="none">
<path d="M4292 6629 c-126 -19 -184 -43 -238 -97 -48 -48 -64 -88 -64 -158 0
-53 -2 -56 -29 -67 -53 -20 -47 -81 11 -117 29 -18 51 -22 180 -35 26 -2 62
-11 80 -19 73 -31 205 -205 264 -346 20 -50 45 -97 55 -104 22 -15 36 -49 44
-107 3 -26 14 -53 23 -61 25 -21 108 -50 134 -46 28 4 50 48 50 99 -1 29 10
55 47 111 63 97 72 125 76 243 5 120 -8 153 -75 202 -98 71 -96 68 -120 155
l-23 83 -108 106 c-59 59 -115 118 -124 132 -26 40 -58 45 -183 26z"/>
<path d="M5292 6349 c-32 -12 -41 -39 -43 -128 -2 -71 -5 -84 -24 -99 -72 -57
-43 -99 80 -118 22 -3 54 -16 70 -29 60 -46 223 -212 239 -244 10 -17 53 -68
97 -112 101 -101 104 -122 16 -127 -37 -2 -86 4 -130 17 -166 45 -289 50 -350
12 -40 -25 -97 -125 -97 -172 0 -33 13 -41 90 -59 49 -12 70 -15 117 -19 7 -1
22 -11 33 -23 19 -21 21 -30 14 -98 -8 -95 -8 -93 -17 -107 -10 -16 0 -39 45
-103 51 -74 58 -133 23 -205 -13 -27 -31 -66 -38 -86 -13 -32 -20 -37 -58 -42
-35 -5 -48 -2 -71 18 -17 15 -35 21 -48 18 -48 -13 -109 -136 -114 -230 -4
-62 -4 -62 -70 -97 -50 -26 -126 -101 -126 -123 0 -7 -13 -19 -30 -28 -16 -8
-45 -32 -65 -53 -20 -20 -51 -44 -68 -52 -17 -8 -32 -19 -34 -25 -4 -16 11
-34 32 -38 55 -8 58 -43 14 -131 -38 -75 -40 -78 -76 -81 -43 -3 -111 -42
-119 -67 -9 -26 -12 -47 -15 -103 -6 -114 74 -191 211 -202 95 -8 150 2 191
36 34 29 34 30 34 112 l0 84 36 9 c57 14 106 0 124 -34 9 -16 30 -37 48 -46
17 -9 53 -38 80 -65 38 -38 47 -55 47 -82 0 -36 35 -127 53 -139 16 -10 33 20
42 70 5 30 17 52 43 76 35 34 35 35 19 60 -10 14 -21 25 -25 25 -21 -3 -31 4
-42 30 -6 16 -20 37 -31 47 -29 26 -23 94 8 94 8 0 37 -24 63 -52 l49 -53 68
0 c60 -1 69 -3 79 -24 7 -12 16 -27 22 -33 7 -7 7 -19 1 -35 -10 -27 -6 -62
12 -105 14 -35 79 -56 189 -62 91 -5 110 -12 110 -40 0 -52 -40 -72 -102 -50
-43 15 -105 27 -134 25 -12 0 -60 -14 -107 -29 -63 -21 -108 -30 -167 -31 -89
-2 -118 9 -175 69 -49 51 -80 63 -144 55 -31 -4 -67 -9 -81 -11 -14 -2 -49 6
-79 17 -50 19 -85 23 -153 20 -44 -2 -77 -39 -88 -99 -12 -66 -10 -62 -150
-212 -63 -67 -119 -132 -123 -144 -9 -22 -13 -56 -23 -198 -6 -83 -5 -90 30
-177 20 -50 36 -100 36 -111 0 -52 72 -100 170 -115 82 -12 220 -12 291 0 98
17 138 13 161 -16 11 -13 36 -42 58 -64 50 -52 60 -79 58 -167 -1 -88 8 -146
32 -213 15 -44 17 -76 13 -255 -2 -113 -7 -227 -11 -255 -13 -88 -2 -129 51
-180 28 -26 47 -54 48 -67 1 -24 5 -61 14 -116 4 -19 16 -39 30 -48 40 -26
207 -35 273 -13 59 19 158 68 176 88 15 16 36 96 50 191 9 58 32 115 69 166
38 54 44 69 52 133 7 57 29 92 86 136 100 76 137 152 149 303 4 59 11 116 16
127 12 32 54 78 126 139 37 32 79 76 92 99 32 53 48 124 32 135 -6 4 -54 7
-107 7 -89 0 -99 2 -140 29 -95 63 -218 213 -270 330 -10 24 -30 84 -44 133
-14 48 -29 95 -34 104 -14 24 -5 28 39 17 46 -12 59 -26 89 -98 54 -128 116
-243 149 -276 90 -90 202 -104 332 -41 130 62 194 178 153 278 -16 42 -41 55
-121 63 -63 6 -98 32 -136 99 -29 50 -45 140 -28 151 13 8 56 -37 100 -104 57
-86 77 -100 142 -100 47 0 77 17 141 80 87 85 109 186 107 495 -3 415 -83 770
-284 1252 -112 270 -293 610 -420 793 -184 265 -540 611 -698 681 -68 29 -217
52 -254 38z m1056 -2391 c5 -7 13 -29 16 -48 3 -19 9 -48 14 -65 14 -48 1 -84
-30 -85 -9 0 -37 43 -73 113 l-30 58 24 20 c27 22 64 25 79 7z m-454 -109 c21
-17 34 -20 64 -14 20 4 47 9 59 11 13 3 33 -5 49 -19 23 -21 27 -32 27 -76 0
-76 -18 -90 -118 -95 -44 -2 -84 -4 -90 -6 -46 -11 -63 17 -72 116 -5 55 -3
63 18 83 28 26 30 26 63 0z"/>
<path d="M1515 6208 c-27 -4 -85 -9 -128 -12 -106 -5 -107 -6 -377 -305 -47
-52 -98 -108 -114 -125 -15 -17 -40 -47 -55 -66 -14 -19 -28 -37 -31 -40 -3
-3 -31 -35 -61 -71 -267 -318 -485 -756 -605 -1216 -26 -98 -58 -282 -75 -423
-20 -167 -16 -647 6 -730 2 -8 6 -33 10 -55 10 -68 26 -151 50 -265 6 -25 52
-191 69 -247 46 -148 164 -395 233 -485 90 -119 128 -141 159 -93 19 29 13
129 -11 175 -16 32 -10 61 22 108 29 44 29 63 0 99 -20 23 -22 34 -15 60 15
56 70 80 101 45 23 -25 21 -54 -4 -96 -26 -44 -21 -60 37 -119 54 -54 72 -57
129 -22 22 14 50 25 62 25 26 0 50 -32 59 -78 4 -18 12 -32 20 -32 7 0 19 -6
26 -14 21 -21 75 -46 97 -46 14 0 23 9 27 25 12 49 -21 125 -55 125 -28 0 -67
51 -66 86 1 25 9 33 55 57 63 32 70 40 70 89 0 20 5 49 11 65 6 15 13 57 16
92 l6 64 -41 38 c-23 20 -44 50 -47 66 -4 15 -11 39 -15 53 -5 14 -12 43 -16
65 -3 22 -17 57 -30 77 -13 21 -24 45 -24 54 0 10 19 37 43 62 23 24 57 59 75
78 44 46 43 83 -3 118 -68 52 -86 74 -89 108 -4 44 -31 96 -68 130 l-28 26 19
49 c29 74 20 99 -46 128 -76 34 -140 83 -146 111 -6 33 18 62 58 70 79 14 120
-27 150 -153 9 -40 23 -77 30 -83 24 -20 74 -15 101 11 22 20 25 30 20 64 -3
22 -8 60 -11 85 -4 25 -15 71 -26 103 -25 74 -25 162 1 227 11 27 22 78 26
112 3 35 8 65 10 67 9 9 -37 104 -77 156 l-44 58 0 140 0 140 -36 19 c-20 10
-49 20 -65 22 -51 7 -124 28 -130 38 -3 5 3 20 13 35 60 85 68 114 33 133 -11
6 -20 8 -20 4 0 -3 -7 -1 -15 6 -16 13 -20 57 -7 78 5 7 32 13 65 13 75 2 97
-16 97 -80 0 -62 20 -91 62 -86 80 11 149 108 167 238 5 38 18 79 30 96 31 43
43 80 46 146 2 33 3 63 4 67 1 3 45 50 100 105 92 91 100 102 110 153 13 64
42 100 104 131 86 43 101 77 56 125 -27 28 -42 32 -104 22z"/>
<path d="M1790 6213 c-8 -3 -32 -19 -52 -35 -43 -33 -72 -101 -94 -218 -15
-79 -12 -75 -109 -153 -22 -19 -39 -44 -46 -70 -18 -64 -86 -169 -129 -199
-59 -43 -59 -117 0 -83 14 8 52 28 85 44 33 16 73 40 90 52 24 20 40 24 92 23
70 -1 116 -25 165 -88 20 -25 38 -36 68 -41 62 -10 78 -30 85 -102 5 -56 3
-70 -26 -135 -28 -63 -33 -85 -34 -163 -2 -102 -8 -127 -40 -170 -43 -56 -56
-118 -51 -234 2 -61 0 -114 -6 -125 -6 -10 -34 -44 -64 -74 -30 -31 -54 -63
-54 -72 0 -9 -16 -39 -35 -66 -50 -70 -54 -105 -19 -152 32 -41 31 -25 19
-289 -4 -109 -2 -129 16 -175 12 -29 23 -66 26 -83 8 -50 43 -92 129 -158 97
-74 97 -74 101 -189 2 -89 6 -108 34 -164 32 -66 107 -144 139 -144 9 0 24 8
33 18 14 15 15 27 8 66 -5 27 -18 60 -30 75 -43 54 -53 71 -47 86 10 27 43 16
105 -36 65 -55 64 -54 76 -179 11 -115 27 -133 163 -175 71 -23 100 -50 105
-100 5 -53 21 -82 56 -100 16 -8 56 -47 88 -87 67 -83 109 -115 162 -123 78
-13 92 -44 34 -74 -63 -32 -82 -60 -99 -147 -29 -154 -7 -284 60 -341 18 -15
61 -48 94 -72 63 -45 85 -78 126 -192 21 -57 73 -118 105 -122 14 -2 52 5 85
15 106 33 138 6 81 -69 -19 -25 -35 -51 -36 -57 0 -6 -3 -20 -5 -31 -13 -57
-12 -295 1 -361 8 -39 17 -97 20 -128 3 -31 7 -82 11 -113 8 -92 14 -124 35
-195 16 -56 24 -68 48 -76 16 -6 31 -8 34 -6 3 3 33 -9 68 -26 96 -49 162 -39
162 24 0 35 -18 53 -56 61 -53 10 -77 26 -77 52 0 29 25 79 44 90 27 15 187
165 197 185 6 11 12 52 13 90 1 68 2 71 41 105 152 132 155 140 149 317 -2 67
1 117 8 129 19 37 52 63 93 76 72 23 92 49 124 164 24 84 31 202 20 320 -12
124 -12 123 -106 131 -77 7 -163 59 -163 99 0 53 -20 93 -54 110 -19 8 -42 29
-52 46 -20 34 -49 44 -114 37 -62 -6 -97 12 -172 86 -73 72 -155 133 -207 155
-19 8 -64 15 -101 15 -75 1 -127 -21 -174 -72 -39 -42 -61 -49 -148 -48 l-73
0 -47 50 c-50 52 -59 80 -33 114 22 30 18 68 -17 139 l-32 64 18 71 c10 39 19
108 20 154 2 86 22 140 49 132 106 -32 123 -30 177 19 14 13 34 25 45 27 26 6
79 -21 144 -72 40 -32 58 -40 77 -36 13 4 24 13 24 21 0 29 76 56 153 54 72
-2 165 -28 185 -52 6 -7 13 -45 16 -86 10 -121 38 -199 81 -227 24 -16 27 -15
68 19 l43 35 -2 80 c-1 53 -8 93 -20 119 -33 67 -21 212 21 267 15 20 31 36
35 36 17 0 72 64 97 114 18 36 27 70 29 115 1 38 13 93 28 135 26 70 27 71
101 115 57 33 97 68 170 149 53 59 98 116 101 128 8 31 -31 101 -66 119 -16 8
-45 15 -64 15 -60 0 -89 55 -43 84 28 18 113 28 152 18 23 -6 36 -20 53 -55
29 -62 59 -74 119 -50 35 15 43 23 43 43 0 14 -7 36 -16 48 -10 15 -17 48 -18
89 -3 69 -9 79 -75 125 -25 18 -49 75 -46 108 24 212 28 205 -126 196 -105 -6
-109 -6 -123 16 -8 13 -17 38 -21 56 -7 34 -30 54 -83 73 -60 21 -91 -1 -107
-75 -3 -15 -26 -48 -50 -72 -40 -39 -45 -48 -43 -86 1 -24 -1 -52 -5 -64 -9
-25 -75 -64 -110 -64 -27 0 -66 -33 -63 -53 1 -7 11 -28 23 -47 26 -42 29 -58
19 -87 -5 -15 -15 -23 -30 -23 -44 0 -57 38 -42 127 7 38 5 44 -20 65 -15 13
-50 44 -78 70 -55 51 -83 63 -164 72 -80 9 -104 30 -118 106 -17 87 -2 167 42
224 19 25 41 46 49 46 8 0 35 18 60 40 41 36 51 40 82 34 27 -5 41 -2 65 16
l31 23 44 -22 c98 -47 152 -13 173 109 14 85 49 133 91 125 86 -16 121 -29
139 -52 24 -31 26 -53 5 -53 -9 0 -29 -7 -45 -15 -23 -12 -30 -24 -36 -62 -3
-27 -8 -57 -10 -67 -2 -11 6 -37 19 -59 l22 -39 56 5 c31 2 61 2 66 -2 5 -3
24 -28 42 -54 18 -27 35 -46 39 -43 3 3 13 -8 23 -24 20 -33 49 -38 93 -19 20
10 30 9 50 -5 52 -33 69 -19 67 58 -1 69 6 86 34 86 15 0 31 10 41 25 14 21
14 30 4 56 -16 39 -75 79 -116 79 -53 0 -73 26 -75 95 l-2 60 -145 143 -145
142 -47 0 c-32 0 -55 -6 -72 -19 -30 -24 -65 -18 -90 15 -10 12 -30 25 -45 29
-15 3 -39 15 -53 25 -15 10 -35 17 -46 15 -10 -2 -22 -4 -25 -4 -3 -1 -15 -10
-27 -21 -17 -17 -21 -28 -17 -63 3 -23 7 -62 9 -86 3 -24 10 -72 17 -107 20
-101 -14 -162 -54 -95 -10 18 -29 32 -47 36 -23 5 -30 12 -30 30 0 13 3 25 8
27 4 2 17 43 29 92 l23 89 -26 34 c-14 18 -35 33 -47 34 -79 4 -110 -18 -113
-83 -5 -130 -27 -213 -41 -159 -10 39 -78 38 -120 -3 -11 -12 -47 -36 -78 -55
-54 -33 -63 -35 -166 -39 -73 -3 -118 -1 -138 8 -36 14 -121 103 -121 124 0 9
-13 25 -28 36 -15 11 -39 41 -52 65 -14 25 -30 45 -36 45 -13 0 -65 63 -87
107 -9 17 -25 38 -35 45 -10 7 -28 28 -41 46 -29 42 -44 49 -120 56 -34 3 -67
8 -72 11 -4 3 -40 8 -79 11 -114 7 -132 11 -141 26 -23 41 -46 58 -84 62 -22
2 -53 9 -68 15 -31 12 -35 12 -57 4z m1647 -1894 c67 -38 125 -97 149 -152 18
-38 17 -40 -1 -53 -29 -22 -82 -17 -134 13 -34 19 -55 24 -74 19 -24 -6 -27
-11 -26 -44 1 -20 4 -48 8 -62 12 -42 1 -68 -32 -79 -41 -15 -53 -2 -62 62
-11 84 -13 88 -37 115 -43 49 -72 71 -100 77 -15 3 -41 8 -58 11 -16 3 -31 10
-31 15 -1 5 -2 15 -3 22 -3 17 23 46 56 63 45 23 97 31 196 28 83 -2 98 -6
149 -35z"/>
<path d="M4878 5403 c-24 -6 -23 -55 1 -77 38 -34 85 17 56 60 -15 24 -23 26
-57 17z"/>
<path d="M5154 5278 c-3 -5 -3 -12 0 -15 3 -3 -1 -18 -9 -34 -8 -15 -15 -37
-15 -49 0 -12 -15 -37 -34 -56 -40 -42 -40 -76 0 -111 21 -19 24 -28 18 -58
-3 -19 -18 -46 -32 -60 -19 -19 -26 -39 -30 -79 -4 -50 -2 -55 22 -71 18 -12
36 -15 58 -11 68 14 96 13 147 -5 61 -21 88 -15 115 26 32 49 30 75 -18 170
-37 71 -45 96 -43 134 2 45 1 45 -44 67 -43 21 -47 25 -51 69 -3 25 -13 54
-22 64 -21 23 -54 33 -62 19z"/>
<path d="M1132 4847 c-15 -18 -29 -57 -36 -100 -4 -28 -1 -41 13 -54 11 -10
37 -58 60 -107 31 -68 41 -101 41 -141 0 -46 3 -53 27 -64 38 -18 48 -1 49 82
0 40 4 98 8 129 5 35 3 78 -4 113 -10 48 -17 59 -50 80 -20 13 -47 35 -58 49
-22 29 -34 32 -50 13z"/>
<path d="M4768 4697 c-58 -44 -80 -88 -65 -130 14 -42 67 -117 92 -131 11 -6
23 -15 27 -20 11 -16 -20 -79 -53 -108 -26 -22 -30 -31 -25 -54 15 -59 65 -69
142 -28 74 39 75 41 80 148 l5 96 -32 18 c-59 31 -72 50 -64 90 14 77 10 114
-14 133 -32 26 -43 24 -93 -14z"/>
<path d="M4585 4360 c-18 -35 -19 -72 -3 -88 41 -41 87 36 62 102 -10 26 -42
18 -59 -14z"/>
<path d="M1240 3909 c-22 -40 -13 -309 10 -333 5 -5 20 -10 35 -11 45 -5 57
28 59 167 2 122 -7 170 -38 190 -21 15 -55 8 -66 -13z"/>
<path d="M1147 3163 c-4 -3 -7 -30 -7 -60 l0 -53 35 0 c24 0 41 8 60 27 30 33
30 34 4 67 -15 18 -30 26 -53 26 -18 0 -36 -3 -39 -7z"/>
<path d="M3508 2909 c-10 -5 -18 -16 -18 -23 0 -18 68 -47 125 -53 52 -5 135
-38 135 -54 0 -19 40 -8 56 16 31 47 1 88 -76 107 -55 13 -203 18 -222 7z"/>
<path d="M3320 2880 c0 -5 7 -10 15 -10 8 0 15 5 15 10 0 6 -7 10 -15 10 -8 0
-15 -4 -15 -10z"/>
<path d="M3902 2765 c-29 -25 -36 -78 -14 -98 22 -20 108 -57 132 -57 25 0 39
20 45 69 6 49 -16 101 -43 102 -9 0 -35 1 -57 2 -27 1 -47 -4 -63 -18z"/>
<path d="M1354 2477 c-22 -20 -25 -28 -19 -56 7 -32 21 -42 79 -57 24 -6 56
17 56 40 0 22 -44 79 -67 87 -17 6 -29 3 -49 -14z"/>
<path d="M1558 2388 c-9 -7 -21 -28 -25 -47 -8 -31 -17 -38 -82 -66 -87 -36
-148 -85 -168 -133 -19 -47 -11 -74 34 -110 92 -71 209 -70 258 4 9 15 19 50
21 78 7 81 11 90 59 125 70 50 71 97 1 140 -38 24 -75 27 -98 9z"/>
<path d="M850 2211 c-43 -23 -49 -45 -18 -78 50 -55 99 -83 145 -83 23 0 43 1
43 3 0 18 -44 114 -65 141 -31 41 -54 45 -105 17z"/>
<path d="M731 2094 c-24 -30 -28 -99 -8 -124 7 -8 32 -31 57 -49 25 -19 57
-46 73 -60 15 -13 36 -26 47 -28 35 -5 72 -35 86 -70 16 -37 46 -60 90 -69 66
-13 115 80 84 156 -14 34 -37 43 -95 37 -30 -3 -50 2 -80 21 -60 38 -146 123
-161 159 -13 30 -40 53 -63 53 -5 0 -19 -12 -30 -26z"/>
<path d="M1697 2083 c-42 -33 -54 -71 -38 -130 13 -49 40 -74 80 -75 39 -1 59
16 70 61 20 79 20 108 0 140 -24 40 -62 41 -112 4z"/>
<path d="M1933 1783 c-36 -14 -48 -15 -76 -5 -67 24 -110 14 -172 -42 -21 -19
-52 -41 -67 -47 -15 -6 -28 -15 -28 -19 0 -14 -69 -41 -107 -41 -63 -1 -97
-16 -115 -52 -30 -57 -38 -82 -53 -177 -1 -8 11 -57 27 -109 15 -52 28 -108
28 -124 0 -37 49 -85 122 -121 56 -26 157 -38 368 -40 91 -1 122 -9 152 -39 7
-7 26 -22 41 -32 16 -10 39 -41 51 -70 33 -73 57 -85 189 -94 156 -11 167 -5
229 119 26 52 48 105 48 117 0 11 8 47 18 80 25 81 18 125 -28 183 -12 15 -22
47 -26 80 -6 59 -39 142 -70 175 -11 12 -40 38 -65 58 -34 28 -53 53 -70 95
-12 31 -29 65 -37 75 -18 20 -53 22 -90 3 -33 -16 -45 -15 -103 13 -60 30
-115 34 -166 14z"/>
<path d="M2800 872 c-27 -8 -81 -66 -104 -112 -12 -25 -34 -67 -48 -95 -34
-64 -39 -93 -23 -132 25 -59 78 -65 108 -13 9 15 17 39 17 52 0 12 20 50 45
83 25 33 49 75 54 93 15 52 -17 134 -49 124z"/>
</g>
</svg>
