<?xml version="1.0" encoding="utf-8"?>
<!-- Generator: Adobe Illustrator 23.0.3, SVG Export Plug-In . SVG Version: 6.00 Build 0)  -->
<svg version="1.1" id="Capa_1" xmlns="http://www.w3.org/2000/svg" xmlns:xlink="http://www.w3.org/1999/xlink" x="0px" y="0px"
	 viewBox="0 0 792 792" style="enable-background:new 0 0 792 792;" xml:space="preserve">
<style type="text/css">
	.st0{fill:#3C579E;}
</style>
<g>
	<g id="facebook">
		<g>
			<path class="st0" d="M614.6,0.1L494.2,0.2c0,0-2.4-0.2-6.8-0.2c-24.7,0-149.6,6.9-183.6,140.8c-0.5,1.5-12,35-12.1,113H177.4
				c-10.1,0-18.4,8.2-18.4,18.4v105.2c0,10.1,8.2,18.4,18.4,18.4h124.9v377.9c0,10.1,8.2,18.4,18.4,18.4h143
				c10.1,0,18.4-8.2,18.4-18.4V396.1h125.3c10.1,0,18.4-8.2,18.4-18.4V272.1c0-10.1-8.2-18.4-18.4-18.4h-125v-45.2
				c0-30.1,19.1-62.2,72.7-62.2h59.6c10.1,0,18.3-8.2,18.3-18.4V18.5C632.9,8.4,624.7,0.1,614.6,0.1z"/>
		</g>
	</g>
</g>
</svg>
