<?xml version="1.0" encoding="utf-8"?>
<!-- Generator: Adobe Illustrator 23.0.3, SVG Export Plug-In . SVG Version: 6.00 Build 0)  -->
<svg version="1.1" id="Layer_1_1_" xmlns="http://www.w3.org/2000/svg" xmlns:xlink="http://www.w3.org/1999/xlink" x="0px" y="0px"
	 viewBox="0 0 512 466.1" style="enable-background:new 0 0 512 466.1;" xml:space="preserve">
<style type="text/css">
	.st0{fill:#0E418F;}
</style>
<path class="st0" d="M487.8,450c1.7-14,1.2-7.9,1.8-30.3v-45.4h10.3c4.2,0,7.9-2.5,9.5-6.3c1.6-3.8,0.7-8.3-2.2-11.2l-82.3-82.3
	c-4-4-10.5-4-14.6,0L386.6,298V68.2c0-5.7-4.6-10.3-10.3-10.3H273.4c-5.7,0-10.3,4.6-10.3,10.3v203.2h-41.7
	c-7.8-17.2-13.6-27.3-18.3-33.1l26-63.6c2.9-6.9,1.2-14.8-4.3-19.9c-5.5-5.1-13.4-6.3-20.1-2.9l-19.5,9.7L173,145.2
	c-3.1-4.1-7.8-6.7-13-7.1c-5.2-0.4-10.2,1.5-13.9,5.2l-15.7,15.6l-10.3-13.7c-3.1-4.1-7.8-6.7-13-7.1c-5.2-0.4-10.2,1.5-13.9,5.2
	l-19.7,19.7l-29.7-8.5c-7-2-14.3,0.4-18.8,6c-4.5,5.6-5.2,13.4-1.7,19.7l31.1,57.5C32.5,257.4,5.9,312.9,5.9,363.3v31.6
	c0,34.1,27.7,61.8,61.7,61.8h113.2h92.6h82.3C355.8,456.6,431,458.1,487.8,450z M69.4,183.3c6.2,1.8,12.9,0.1,17.5-4.5l18.7-18.7
	l10.3,13.7c3.1,4.1,7.9,6.7,13,7.1c5.2,0.3,10.2-1.5,13.9-5.2l15.7-15.6l11.7,15.6c5.2,6.9,14.5,9.1,22.3,5.3l15-7.5l-23.2,56.7
	h-27.9l13.1-26.3l-18.4-9.2l-17.7,35.5h-18l-14.3-29.8l-18.6,8.9l10.1,20.9H73.7l-29.3-54L69.4,183.3z M170.5,281.7V436H67.6
	c-22.7,0-41.2-18.5-41.2-41.2v-31.6c0-55.1,34.1-106.5,43.9-112.5h116.6c1.7,2,5.4,7.4,11.8,20.6h-17.9
	C175.1,271.4,170.5,276,170.5,281.7L170.5,281.7z M191.1,291.9h72V436h-72V291.9z M417.5,296.2l57.5,57.5H360L417.5,296.2z
	 M283.7,78.4h82.3v240.1l-38.2,38.2c-2.9,2.9-3.8,7.4-2.2,11.2c1.6,3.8,5.4,6.3,9.5,6.3h10.3V436h-61.7V78.4z M366.1,374.3H469V436
	h-20.6v-41.2c0-5.7-4.6-10.3-10.3-10.3h-41.2c-5.7,0-10.3,4.6-10.3,10.3V436h-20.6V374.3z M427.8,436h-20.6v-30.9h20.6V436z"/>
<path class="st0" d="M304.3,215.1h10.3v20.6h-10.3V215.1z"/>
<path class="st0" d="M335.2,215.1h10.3v20.6h-10.3V215.1z"/>
<path class="st0" d="M304.3,256.2h10.3v20.6h-10.3V256.2z"/>
<path class="st0" d="M335.2,256.2h10.3v20.6h-10.3V256.2z"/>
<path class="st0" d="M304.3,136.7h10.3v20.6h-10.3V136.7z"/>
<path class="st0" d="M335.2,136.7h10.3v20.6h-10.3V136.7z"/>
<path class="st0" d="M304.3,97.5h10.3V118h-10.3V97.5z"/>
<path class="st0" d="M335.2,97.5h10.3V118h-10.3V97.5z"/>
<path class="st0" d="M304.3,177.8h10.3v20.6h-10.3V177.8z"/>
<path class="st0" d="M335.2,177.8h10.3v20.6h-10.3V177.8z"/>
<path class="st0" d="M304.3,297.4h10.3V318h-10.3V297.4z"/>
<path class="st0" d="M335.2,297.4h10.3V318h-10.3V297.4z"/>
<path class="st0" d="M211.7,338.6H222v20.6h-10.3V338.6z"/>
<path class="st0" d="M242.6,338.6h10.3v20.6h-10.3V338.6z"/>
<path class="st0" d="M211.7,379.7H222v20.6h-10.3V379.7z"/>
<path class="st0" d="M242.6,379.7h10.3v20.6h-10.3V379.7z"/>
<path class="st0" d="M211.7,420.9H222v20.6h-10.3V420.9z"/>
<path class="st0" d="M242.6,420.9h10.3v20.6h-10.3V420.9z"/>
<path class="st0" d="M304.3,338.6h10.3v20.6h-10.3V338.6z"/>
<path class="st0" d="M335.2,338.6h10.3v20.6h-10.3V338.6z"/>
<path class="st0" d="M139.6,328.3h-10.3V318h-20.6v10.3H98.5c-5.7,0-10.3,4.6-10.3,10.3v30.9c0,5.7,4.6,10.3,10.3,10.3h30.9V390
	H88.2v10.3c0,5.7,4.6,10.3,10.3,10.3h10.3v10.3h20.6v-10.3h10.3c5.7,0,10.3-4.6,10.3-10.3v-30.9c0-5.7-4.6-10.3-10.3-10.3h-30.9
	v-10.3h41.2v-10.3C149.9,332.9,145.3,328.3,139.6,328.3z"/>
</svg>
