<?xml version="1.0" encoding="utf-8"?>
<!-- Generator: Adobe Illustrator 23.0.3, SVG Export Plug-In . SVG Version: 6.00 Build 0)  -->
<svg version="1.1" id="Capa_1" xmlns="http://www.w3.org/2000/svg" xmlns:xlink="http://www.w3.org/1999/xlink" x="0px" y="0px"
	 viewBox="0 0 622 576" style="enable-background:new 0 0 622 576;" xml:space="preserve">
<style type="text/css">
	.st0{fill:#AAAAAA;stroke:#AAAAAA;stroke-width:6;stroke-miterlimit:10;}
</style>
<g>
	<g id="Shape_17">
		<g>
			<path class="st0" d="M617,138.2c0-13.1-5.2-24.9-13.4-33.9c-0.1-0.2-0.2-0.4-0.3-0.6c-0.1-0.2-0.3-0.2-0.5-0.4
				c-9.4-9.8-22.6-16-37.2-16H56.4c-14.7,0-27.9,6.2-37.3,16c-0.1,0.1-0.3,0.2-0.5,0.4c-0.1,0.2-0.2,0.4-0.3,0.6
				c-8.2,9-13.4,20.8-13.4,33.9v299.5c0,13.4,5.4,25.5,14,34.6c0.2,0.2,0.2,0.4,0.4,0.6c0.1,0.1,0.1,0.1,0.2,0.1
				c9.4,9.5,22.4,15.5,36.9,15.5h509.1c14.5,0,27.5-6,36.9-15.5c0.1-0.1,0.1-0.1,0.2-0.1c0.2-0.2,0.2-0.4,0.4-0.6
				c8.6-9.1,14-21.2,14-34.6L617,138.2L617,138.2z M416.7,272.2l176.4-146.2c1.7,3.8,2.8,7.9,2.8,12.3v299.5c0,4-0.8,7.7-2.2,11.2
				L416.7,272.2z M565.6,108.3c4.4,0,8.6,1,12.4,2.7L311,332.4L44,111.1c3.8-1.7,8-2.7,12.4-2.7H565.6z M28.5,449
				c-1.4-3.5-2.2-7.2-2.2-11.2V138.2c0-4.4,1-8.5,2.8-12.3l176.4,146.2L28.5,449z M56.4,467.6c-4.9,0-9.5-1.3-13.5-3.3l178.7-178.7
				l82.6,68.5c2,1.6,4.4,2.5,6.8,2.5s4.8-0.8,6.8-2.5l82.6-68.5l178.7,178.7c-4.1,2-8.7,3.3-13.6,3.3L56.4,467.6L56.4,467.6z"/>
		</g>
	</g>
</g>
</svg>
