<?xml version="1.0" encoding="utf-8"?>
<!-- Generator: Adobe Illustrator 23.0.3, SVG Export Plug-In . SVG Version: 6.00 Build 0)  -->
<svg version="1.1" id="Layer_1" xmlns="http://www.w3.org/2000/svg" xmlns:xlink="http://www.w3.org/1999/xlink" x="0px" y="0px"
	 viewBox="0 0 1145 597" style="enable-background:new 0 0 1145 597;" xml:space="preserve">
<style type="text/css">
	.st0{fill:#F17269;}
	.st1{fill:#98322C;}
	.st2{enable-background:new    ;}
</style>
<g>
	<path class="st0" d="M-2072.5-871.3c3.3,3.1,5.9,6.9,7.7,11.2s2.6,9,2.6,14.1c0,5-0.9,9.8-2.6,14.2c-1.7,4.5-4.3,8.3-7.6,11.4
		c-3.6,3.4-7.8,6-12.8,7.8s-10.6,2.7-17,2.7c-5.5,0-10.6-0.8-15.2-2.4c-4.6-1.6-8.7-4-12.3-7.1c-3.4-3-6.2-6.8-8.1-11.2
		c-2-4.5-3-9.4-3-15c0-5.4,0.9-10.3,2.6-14.5c1.7-4.2,4.4-8,7.8-11.3c3.3-3.2,7.5-5.6,12.4-7.4c4.9-1.7,10.4-2.6,16.5-2.6
		c6.3,0,11.9,0.9,16.7,2.6C-2080-876.9-2075.9-874.5-2072.5-871.3z M-2089.9-824.3c1-2.5,1.7-5.6,2.2-9.2s0.7-7.8,0.7-12.6
		c0-3.2-0.2-6.8-0.7-10.9c-0.5-4.1-1.1-7.3-2-9.6c-1.1-2.9-2.6-5.1-4.5-6.7c-1.9-1.6-4.4-2.4-7.3-2.4c-3.2,0-5.8,0.9-7.7,2.6
		c-1.9,1.8-3.4,4-4.4,6.9c-1,2.6-1.6,5.6-2,9.1s-0.5,7.1-0.5,10.8c0,4.9,0.2,9,0.5,12.2s1.1,6.5,2.3,9.7c1,2.8,2.5,5,4.5,6.7
		c1.9,1.6,4.4,2.4,7.4,2.4c2.7,0,5-0.8,7-2.3C-2092.5-819.1-2091-821.3-2089.9-824.3z"/>
	<path class="st0" d="M-1976-874.3c-2,0.3-4,1.1-5.9,2.3s-3.5,3.1-4.8,5.7c-3.2,6.6-6.3,13.3-9.3,20c-3.1,6.7-6.1,13.2-9,19.5
		c-0.9,1.9-1.9,4.3-3.1,7.3s-2.1,5.7-2.9,8.1h-12.5c-5.2-12.1-9.6-22.1-13.3-30.1c-3.7-8-7.6-16.5-11.7-25.7c-1-2.1-2.4-3.8-4.4-5
		s-4.1-2-6.1-2.2v-5h41.8v5c-1.5,0-3.3,0.4-5.4,1s-3.1,1.4-3.1,2.4c0,0.3,0.1,0.7,0.3,1.2c0.2,0.5,0.4,1.2,0.7,1.8
		c1.5,3.4,3.6,8.4,6.6,14.9s6,13.3,9.3,20.4c2.3-4.9,4.4-9.8,6.5-14.5s4.6-10.8,7.6-18.1c0.4-1.1,0.6-2,0.7-2.6s0.1-1.1,0.1-1.4
		c0-0.8-0.4-1.5-1.2-2.1c-0.8-0.6-1.7-1.1-2.8-1.6c-1.1-0.5-2.2-0.8-3.3-1c-1-0.2-1.9-0.4-2.6-0.5v-5h28v5.2H-1976z"/>
	<path class="st0" d="M-1901.6-828.2c-1.6,2.6-3.5,5-5.7,7.3s-4.8,4.2-7.6,5.9c-3,1.7-6.1,3-9.2,3.9s-6.7,1.3-10.7,1.3
		c-6.7,0-12.5-1-17.3-2.9c-4.9-1.9-8.9-4.5-12-7.7c-3.2-3.2-5.5-7-7.1-11.4s-2.3-9.1-2.3-14.2c0-4.6,0.8-9,2.5-13.3
		c1.7-4.2,4.1-8,7.2-11.3c3.1-3.2,7-5.8,11.6-7.8s9.9-3,15.7-3c6.3,0,11.5,0.8,15.6,2.3s7.4,3.7,10.1,6.4c2.6,2.6,4.5,5.6,5.6,9.1
		c1.2,3.5,1.8,7.2,1.8,11v4.4h-45.9c0,9.3,1.8,16.3,5.4,21.2c3.6,4.8,9.3,7.3,17,7.3c4.3,0,8.1-1.2,11.5-3.5s6.3-5.3,8.7-8.9
		L-1901.6-828.2z M-1927.6-854c0-2.7-0.1-5.5-0.4-8.3s-0.7-5.2-1.4-7c-0.8-2.1-1.8-3.7-3.2-4.8c-1.3-1.1-3-1.6-5.1-1.6
		c-3.5,0-6.3,1.8-8.3,5.3c-2.1,3.5-3.2,9.1-3.4,16.8L-1927.6-854z"/>
	<path class="st0" d="M-1827.5-866.9c0,3.4-1.1,6.5-3.2,9.1s-4.9,3.9-8.4,3.9c-3.3,0-6.1-0.8-8.4-2.5s-3.4-4.1-3.4-7.4
		c0-1.6,0.1-2.8,0.3-3.7c0.2-0.9,0.4-1.7,0.6-2.5c-2.1,0.1-4.3,0.8-6.6,2.2c-2.3,1.3-4.3,3.1-6.1,5.4v37.3c0,1.6,0.2,2.9,0.7,3.9
		s1.3,1.9,2.5,2.4c1,0.5,2.6,0.9,4.9,1.3c2.2,0.3,3.9,0.5,4.9,0.6v5h-45.4v-5c1.1-0.1,2.3-0.2,3.4-0.4c1.2-0.2,2.1-0.4,3-0.6
		c1.4-0.5,2.4-1.3,3-2.3c0.5-1,0.8-2.4,0.8-4.1v-39.5c0-1.6-0.4-3.1-1.2-4.4c-0.8-1.3-1.7-2.3-2.8-3.1c-0.8-0.5-1.8-1-3.1-1.4
		c-1.2-0.4-2.6-0.6-4.1-0.7v-5l32.4-1.8l1,1v9.8h0.3c3.1-3.6,6.4-6.5,9.9-8.5c3.5-2.1,7.2-3.1,11-3.1c4.2,0,7.6,1.3,10.1,3.9
		C-1828.8-874.4-1827.5-871-1827.5-866.9z"/>
</g>
<g>
	<path class="st0" d="M-2047.9-346h-42.9v-5c1.2-0.1,2.3-0.2,3.5-0.3c1.1-0.1,2.1-0.4,2.9-0.7c1.4-0.5,2.5-1.3,3.1-2.3
		s0.9-2.4,0.9-4v-39.5c0-1.6-0.4-3-1.1-4.2c-0.7-1.2-1.6-2.2-2.7-2.9c-0.8-0.5-2-1.1-3.7-1.6s-3.2-0.8-4.5-1v-5l33.3-1.8l1,1v53.9
		c0,1.6,0.3,2.9,1,4s1.7,1.9,2.9,2.5c0.9,0.4,1.9,0.8,3,1.1s2.2,0.5,3.4,0.7L-2047.9-346L-2047.9-346z M-2057.8-438.5
		c0,3.4-1.3,6.4-4,8.8s-5.8,3.6-9.4,3.6c-3.7,0-6.8-1.2-9.5-3.6s-4-5.4-4-8.8s1.3-6.4,4-8.8s5.8-3.7,9.5-3.7s6.8,1.2,9.4,3.7
		C-2059.1-444.9-2057.8-442-2057.8-438.5z"/>
	<path class="st0" d="M-1952-346h-40.8v-5c0.9-0.1,1.9-0.2,3.1-0.3s2.1-0.4,2.8-0.7c1-0.5,1.6-1.2,2-2.2s0.6-2.4,0.6-4.2v-31.8
		c0-4.6-0.9-8.1-2.6-10.4s-4.2-3.5-7.5-3.5c-1.8,0-3.5,0.3-5.1,0.8s-3.1,1.3-4.6,2.4c-1.3,0.9-2.4,1.8-3.2,2.8c-0.8,1-1.5,1.8-2,2.5
		v36.4c0,1.6,0.2,2.9,0.7,4s1.2,1.9,2.2,2.4c0.7,0.4,1.6,0.8,2.7,1.1s2.1,0.5,3.2,0.7v5h-41.3v-5c1.1-0.1,2.3-0.2,3.4-0.4
		c1.2-0.2,2.1-0.4,3-0.6c1.4-0.5,2.4-1.3,3-2.3c0.5-1,0.8-2.4,0.8-4.1v-39.5c0-1.4-0.4-2.8-1.1-4.1c-0.7-1.4-1.7-2.5-2.9-3.3
		c-0.8-0.5-1.8-1-3.1-1.4c-1.2-0.4-2.6-0.6-4.1-0.7v-5l32.4-1.8l1,1v9.8h0.3c1.3-1.1,2.8-2.5,4.6-4.1c1.8-1.6,3.5-2.9,5-3.9
		c1.7-1.1,3.9-2,6.6-2.8s5.6-1.2,8.7-1.2c7.4,0,12.9,2.1,16.6,6.3c3.7,4.2,5.5,9.7,5.5,16.7v33.3c0,1.7,0.2,3,0.7,4s1.4,1.8,2.8,2.4
		c0.7,0.3,1.6,0.6,2.7,1c1.1,0.3,2.3,0.5,3.6,0.7v5H-1952z"/>
	<path class="st0" d="M-1832.9-347.4c-2,0.9-4.3,1.7-7,2.4c-2.7,0.7-5.6,1.1-8.6,1.1c-5.6,0-9.6-0.8-12.3-2.5
		c-2.6-1.7-4.4-4-5.4-7.1h-0.4c-1.5,1.5-3,2.9-4.5,3.9s-3,2-4.6,2.8c-2.1,1-4.2,1.7-6.2,2.2s-4.7,0.7-8.3,0.7
		c-5.3,0-9.7-1.6-13.5-4.7c-3.7-3.1-5.6-7.2-5.6-12.3c0-2.9,0.4-5.4,1.2-7.5c0.8-2.1,2-3.9,3.5-5.5c1.4-1.5,2.9-2.7,4.7-3.6
		c1.8-1,3.8-1.8,5.9-2.7c4.1-1.5,9-3,14.7-4.7c5.7-1.6,9.9-3,12.5-4.3v-6.5c0-1.1-0.1-2.6-0.3-4.5c-0.2-1.9-0.6-3.4-1.2-4.7
		c-0.6-1.4-1.6-2.7-3-3.7s-3.1-1.5-5.4-1.5c-2,0-3.7,0.3-5,0.8c-1.3,0.6-2.4,1.1-3.2,1.7c0.1,0.9,0.5,2.3,1.2,4.1
		c0.6,1.9,1,3.6,1,5.4c0,0.8-0.2,1.7-0.6,2.9c-0.4,1.2-1,2.1-1.8,2.7c-1,0.9-2.2,1.6-3.5,2.1s-3.3,0.7-6,0.7c-3.8,0-6.7-0.9-8.6-2.7
		c-2-1.8-2.9-4.2-2.9-7.2c0-2.5,1-4.8,3-6.8s4.5-3.7,7.4-5c2.9-1.4,6.1-2.4,9.8-3.2c3.7-0.7,7.1-1.1,10.3-1.1
		c4.4,0,8.4,0.3,12.1,0.8s7,1.6,9.9,3.2c2.8,1.6,5,3.9,6.7,6.9s2.5,6.9,2.5,11.8c0,5.1-0.1,11.2-0.3,18.2s-0.3,11.6-0.3,13.8
		c0,2,0.3,3.6,0.9,4.8c0.6,1.2,1.5,2.1,2.8,2.6c0.8,0.4,2,0.6,3.6,0.6c1.7,0.1,3.2,0.1,4.5,0.1v5.5H-1832.9z M-1866.5-382.8
		c-2.5,0.9-5.1,1.8-7.6,3c-2.5,1.1-4.5,2.3-6.1,3.5c-1.7,1.3-3,2.9-4,4.9s-1.4,4.3-1.4,7c0,3.5,0.8,6.1,2.4,7.7s3.6,2.4,6,2.4
		c2.5,0,4.6-0.5,6.2-1.5s3-2.3,4.3-3.8L-1866.5-382.8z"/>
	<path class="st0" d="M-1796.2-343.7c-4.4,0-8.7-0.6-12.9-1.9c-4.2-1.3-7.4-2.7-9.7-4.1l-2,4.6h-5.3l-0.9-25.3h5
		c0.7,2,1.8,4.3,3.4,6.9s3.4,4.9,5.4,6.9c2.1,2,4.6,3.8,7.3,5.2c2.7,1.4,5.7,2.1,8.8,2.1c4.1,0,7.2-0.8,9.2-2.4s3-4.1,3-7.4
		c0-1.8-0.5-3.3-1.4-4.5s-2.1-2.2-3.7-3.1c-1.8-0.9-3.7-1.7-5.8-2.3c-2.1-0.6-4.7-1.4-7.8-2.3c-3.1-0.9-5.7-1.8-7.9-2.7
		c-2.2-0.9-4.5-2.4-6.8-4.4c-2-1.8-3.7-3.9-4.9-6.4s-1.8-5.5-1.8-8.9c0-6.4,2.7-11.5,8-15.5s12.4-5.9,21.1-5.9
		c4.1,0,7.9,0.4,11.4,1.3c3.5,0.8,6.4,1.8,8.7,2.7l1.4-4h5.2l1.1,23.1h-4.8c-1.6-4.7-4.3-8.8-8.1-12.2c-3.8-3.4-8-5.1-12.4-5.1
		c-3.5,0-6.2,0.7-8.2,2.2c-2,1.4-3,3.5-3,6c0,3.4,1.5,5.9,4.4,7.5c2.9,1.5,7,3,12.2,4.3c8.1,2.1,14,4.9,17.8,8.5
		c3.7,3.6,5.6,8.2,5.6,13.7c0,7.4-2.9,13.2-8.7,17.2C-1779.3-345.7-1786.8-343.7-1796.2-343.7z"/>
	<path class="st0" d="M-1725-343.7c-4.4,0-8.7-0.6-12.9-1.9c-4.2-1.3-7.4-2.7-9.7-4.1l-2,4.6h-5.3l-0.9-25.3h5
		c0.7,2,1.8,4.3,3.4,6.9s3.4,4.9,5.4,6.9c2.1,2,4.6,3.8,7.3,5.2c2.7,1.4,5.7,2.1,8.8,2.1c4.1,0,7.2-0.8,9.2-2.4s3-4.1,3-7.4
		c0-1.8-0.5-3.3-1.4-4.5s-2.1-2.2-3.7-3.1c-1.8-0.9-3.7-1.7-5.8-2.3c-2.1-0.6-4.7-1.4-7.8-2.3c-3.1-0.9-5.7-1.8-7.9-2.7
		c-2.2-0.9-4.5-2.4-6.8-4.4c-2-1.8-3.7-3.9-4.9-6.4s-1.8-5.5-1.8-8.9c0-6.4,2.7-11.5,8-15.5s12.4-5.9,21.1-5.9
		c4.1,0,7.9,0.4,11.4,1.3c3.5,0.8,6.4,1.8,8.7,2.7l1.4-4h5.2l1.1,23.1h-4.8c-1.6-4.7-4.3-8.8-8.1-12.2c-3.8-3.4-8-5.1-12.4-5.1
		c-3.5,0-6.2,0.7-8.2,2.2c-2,1.4-3,3.5-3,6c0,3.4,1.5,5.9,4.4,7.5c2.9,1.5,7,3,12.2,4.3c8.1,2.1,14,4.9,17.8,8.5
		c3.7,3.6,5.6,8.2,5.6,13.7c0,7.4-2.9,13.2-8.7,17.2C-1708-345.7-1715.6-343.7-1725-343.7z"/>
	<path class="st0" d="M-1612.1-362.2c-1.6,2.6-3.5,5-5.7,7.3s-4.8,4.2-7.6,5.9c-3,1.7-6.1,3-9.2,3.9s-6.7,1.3-10.7,1.3
		c-6.7,0-12.5-1-17.3-2.9c-4.9-1.9-8.9-4.5-12-7.7c-3.2-3.2-5.5-7-7.1-11.4s-2.3-9.1-2.3-14.2c0-4.6,0.8-9,2.5-13.3
		c1.7-4.2,4.1-8,7.2-11.3c3.1-3.2,7-5.8,11.6-7.8s9.9-3,15.7-3c6.3,0,11.5,0.8,15.6,2.3s7.4,3.7,10.1,6.4c2.6,2.6,4.5,5.6,5.6,9.1
		c1.2,3.5,1.8,7.2,1.8,11v4.4h-45.9c0,9.3,1.8,16.3,5.4,21.2c3.6,4.8,9.3,7.3,17,7.3c4.3,0,8.1-1.2,11.5-3.5s6.3-5.3,8.7-8.9
		L-1612.1-362.2z M-1638.1-388c0-2.7-0.1-5.5-0.4-8.3s-0.7-5.2-1.4-7c-0.8-2.1-1.8-3.7-3.2-4.8c-1.3-1.1-3-1.6-5.1-1.6
		c-3.5,0-6.3,1.8-8.3,5.3c-2.1,3.5-3.2,9.1-3.4,16.8L-1638.1-388z"/>
	<path class="st0" d="M-1555.1-349.1c-2.9,1.3-6,2.4-9.3,3.4s-7.3,1.5-12.1,1.5c-7.1,0-12.3-1.7-15.7-5.2c-3.4-3.4-5.1-8.3-5.1-14.7
		v-41.6h-12.2v-7.4h12.5v-20.6h22v20.6h19.1v7.4h-18.9v37.1c0,5.3,0.7,9,2.2,11.3c1.5,2.2,4.1,3.3,7.9,3.3c1.2,0,2.9-0.1,5.1-0.3
		s3.7-0.4,4.6-0.6L-1555.1-349.1L-1555.1-349.1z"/>
	<path class="st0" d="M-1519-343.7c-4.4,0-8.7-0.6-12.9-1.9c-4.2-1.3-7.4-2.7-9.7-4.1l-2,4.6h-5.3l-0.9-25.3h5
		c0.7,2,1.8,4.3,3.4,6.9s3.4,4.9,5.4,6.9c2.1,2,4.6,3.8,7.3,5.2c2.7,1.4,5.7,2.1,8.8,2.1c4.1,0,7.2-0.8,9.2-2.4s3-4.1,3-7.4
		c0-1.8-0.5-3.3-1.4-4.5s-2.1-2.2-3.7-3.1c-1.8-0.9-3.7-1.7-5.8-2.3c-2.1-0.6-4.7-1.4-7.8-2.3c-3.1-0.9-5.7-1.8-7.9-2.7
		c-2.2-0.9-4.5-2.4-6.8-4.4c-2-1.8-3.7-3.9-4.9-6.4s-1.8-5.5-1.8-8.9c0-6.4,2.7-11.5,8-15.5s12.4-5.9,21.1-5.9
		c4.1,0,7.9,0.4,11.4,1.3c3.5,0.8,6.4,1.8,8.7,2.7l1.4-4h5.2l1.1,23.1h-4.8c-1.6-4.7-4.3-8.8-8.1-12.2c-3.8-3.4-8-5.1-12.4-5.1
		c-3.5,0-6.2,0.7-8.2,2.2c-2,1.4-3,3.5-3,6c0,3.4,1.5,5.9,4.4,7.5c2.9,1.5,7,3,12.2,4.3c8.1,2.1,14,4.9,17.8,8.5
		c3.7,3.6,5.6,8.2,5.6,13.7c0,7.4-2.9,13.2-8.7,17.2C-1502-345.7-1509.6-343.7-1519-343.7z"/>
</g>
<g>
	<path class="st0" d="M-2095.2-579.7c0,30.1-11.5,54.4-34.5,72.9c-23,18.5-51.4,28.9-85.2,31.2v68.2h-24v-68.2
		c-34.1-0.6-63.2-8.5-87.3-23.4c-24.1-15-36.2-32.3-36.2-52c0-11.5,3.5-21.2,10.5-29.1c7-7.9,16.6-11.9,29-11.9
		c12.8,0,23,3.4,30.5,10.1c7.5,6.7,11.3,15.8,11.3,27.3c0,8.2-1.4,16.5-4.1,24.9c-2.8,8.3-5,14.8-6.8,19.5
		c4.3,2.3,11.6,5.2,21.6,8.7c10.1,3.6,20.6,5.3,31.5,5.3v-108.9c-2.3-0.3-4.5-0.6-6.6-0.8s-4.5-0.5-7.3-0.8
		c-31.1-2.9-55.6-12.3-73.5-28.1c-18-15.9-26.9-36.6-26.9-62.1c0-11.3,2.1-22.4,6.3-33.2s10.7-20.9,19.4-30.3
		c8.9-9.7,20.7-17.8,35.3-24.4c14.6-6.6,32.4-10.5,53.3-11.8v-52.9h24v52.9c33.2,1.3,60,8.2,80.6,20.7c20.5,12.5,30.8,28,30.8,46.5
		c0,11-3.4,20.3-10.1,28c-6.7,7.7-16,11.5-27.8,11.5c-12.3,0-22-3.2-29.1-9.7s-10.7-15.2-10.7-26.2c0-7.6,1.3-15,3.8-22.3
		s4.7-13.8,6.7-19.7c-4.4-2.3-10.5-4.1-18.3-5.6s-16.5-2.3-25.8-2.7v99.2c2.4,0.2,5.5,0.6,9.2,1.2c3.7,0.6,7,1.1,9.7,1.5
		c33.2,4.9,58.2,15.4,75.2,31.5C-2103.7-626.6-2095.2-605.6-2095.2-579.7z M-2238.8-679.2v-97.1c-18.5,1.9-32.7,7.4-42.5,16.3
		c-9.8,8.9-14.7,19.6-14.7,32c0,14.4,4,25.3,12.1,32.8c8,7.4,19.7,12.3,35,14.6c2.4,0.3,4.3,0.6,5.5,0.8
		C-2242.3-679.6-2240.8-679.4-2238.8-679.2z M-2152.2-551.1c0-13.4-4-24.3-11.8-32.6c-7.9-8.3-20.4-14.1-37.5-17.3
		c-1.8-0.3-3.9-0.6-6.3-1c-2.4-0.3-4.8-0.6-7-1v106.8c22.1-2.1,38-8.2,47.9-18.3C-2157.1-524.7-2152.2-536.9-2152.2-551.1z"/>
	<path class="st0" d="M-1840.2-480h-200.2v-18.4c4.9-0.3,12.6-1.1,23.2-2.4s17.8-2.6,21.7-3.9c4.9-1.6,8.7-4.4,11.4-8.2
		c2.7-3.9,4.1-9.2,4.1-16v-153.8h-61.4v-23.1h13.3c14.1,0,26.2-1.5,36.5-4.6s18.8-6.8,25.6-11.2c7-4.5,12.7-9.2,17.1-14.1
		c4.4-4.9,8-9.1,10.6-12.9h42.7c-0.5,10.5-1,22.8-1.5,36.9c-0.5,14.1-0.7,26.7-0.7,37.9v142.2c0,5.8,1.3,10.9,3.8,15.2
		s6.1,7.6,10.8,9.8c4.2,1.9,11.2,3.7,21.1,5.3c9.9,1.6,17.1,2.6,21.8,2.9L-1840.2-480L-1840.2-480z"/>
	<path class="st0" d="M-1505.6-638c10.4,7.1,18.8,16.1,25.2,26.8c6.5,10.8,9.7,23.4,9.7,38c0,17.5-3.7,32.2-11,44.3
		c-7.4,12.1-17.9,21.6-31.7,28.5c-14.6,7.4-31.3,12.7-50.3,15.8c-19,3.1-41.4,4.6-67.1,4.6h-178.8v-18.9c5-0.5,11.3-1.2,18.9-2.2
		s12.9-2.1,16-3.4c6-2.4,10.1-5.6,12.3-9.6c2.2-4,3.3-9.1,3.3-15.4v-242.6c0-5.8-0.9-10.7-2.7-14.6c-1.8-3.9-6.1-7.3-12.9-10.2
		c-5-2.1-10.8-3.8-17.5-5.2c-6.6-1.4-12.5-2.5-17.5-3.3v-18.9h187.1c47.1,0,81,6.5,101.9,19.4s31.3,32,31.3,57.3
		c0,11.6-2.3,21.9-7,30.7s-11.4,16.5-20.1,22.9c-7.9,6-17.4,11.2-28.4,15.5c-11,4.4-22.8,8-35.4,10.9v4.6
		c12.6,1.3,25.7,4.1,39.3,8.4C-1527.4-650.3-1515.6-644.8-1505.6-638z M-1583.7-741.6c0-19.1-5.4-34-16.1-44.6
		c-10.8-10.7-26.9-16-48.4-16c-3.1,0-7.1,0.1-12,0.4c-4.9,0.2-9.2,0.4-12.7,0.6v127.6h12.6c26.2,0,45.5-6.1,58-18.3
		C-1589.9-704.2-1583.7-720.7-1583.7-741.6z M-1566.7-576.2c0-24-7.1-42.4-21.4-55.2c-14.2-12.8-34.7-19.2-61.4-19.2
		c-3.1,0-7.2,0.1-12.3,0.4s-8.9,0.4-11.3,0.6v126.1c1.5,6,6,11.1,13.6,15.2c7.6,4.1,16.8,6.2,27.7,6.2c19.2,0,34.9-6.5,47-19.4
		C-1572.7-534.5-1566.7-552.7-1566.7-576.2z"/>
</g>
<g>
	<path class="st0" d="M-922.9-346h-42.9v-5c1.2-0.1,2.3-0.2,3.5-0.3c1.1-0.1,2.1-0.4,2.9-0.7c1.4-0.5,2.5-1.3,3.1-2.3s0.9-2.4,0.9-4
		v-39.5c0-1.6-0.4-3-1.1-4.2c-0.7-1.2-1.6-2.2-2.7-2.9c-0.8-0.5-2-1.1-3.7-1.6s-3.2-0.8-4.5-1v-5l33.3-1.8l1,1v53.9
		c0,1.6,0.3,2.9,1,4s1.7,1.9,2.9,2.5c0.9,0.4,1.9,0.8,3,1.1s2.2,0.5,3.4,0.7v5.1H-922.9z M-932.8-438.5c0,3.4-1.3,6.4-4,8.8
		s-5.8,3.6-9.4,3.6c-3.7,0-6.8-1.2-9.5-3.6s-4-5.4-4-8.8s1.3-6.4,4-8.8s5.8-3.7,9.5-3.7s6.8,1.2,9.4,3.7
		C-934.1-444.9-932.8-442-932.8-438.5z"/>
	<path class="st0" d="M-827-346h-40.8v-5c0.9-0.1,1.9-0.2,3.1-0.3c1.2-0.1,2.1-0.4,2.8-0.7c1-0.5,1.6-1.2,2-2.2s0.6-2.4,0.6-4.2
		v-31.8c0-4.6-0.9-8.1-2.6-10.4c-1.7-2.3-4.2-3.5-7.5-3.5c-1.8,0-3.5,0.3-5.1,0.8s-3.1,1.3-4.6,2.4c-1.3,0.9-2.4,1.8-3.2,2.8
		s-1.5,1.8-2,2.5v36.4c0,1.6,0.2,2.9,0.7,4s1.2,1.9,2.2,2.4c0.7,0.4,1.6,0.8,2.7,1.1s2.1,0.5,3.2,0.7v5h-41.3v-5
		c1.1-0.1,2.3-0.2,3.4-0.4c1.2-0.2,2.1-0.4,3-0.6c1.4-0.5,2.4-1.3,3-2.3c0.5-1,0.8-2.4,0.8-4.1v-39.5c0-1.4-0.4-2.8-1.1-4.1
		c-0.7-1.4-1.7-2.5-2.9-3.3c-0.8-0.5-1.8-1-3.1-1.4c-1.2-0.4-2.6-0.6-4.1-0.7v-5l32.4-1.8l1,1v9.8h0.3c1.3-1.1,2.8-2.5,4.6-4.1
		s3.5-2.9,5-3.9c1.7-1.1,3.9-2,6.6-2.8c2.7-0.8,5.6-1.2,8.7-1.2c7.4,0,12.9,2.1,16.6,6.3c3.7,4.2,5.5,9.7,5.5,16.7v33.3
		c0,1.7,0.2,3,0.7,4s1.4,1.8,2.8,2.4c0.7,0.3,1.6,0.6,2.7,1s2.3,0.5,3.6,0.7v5H-827z"/>
	<path class="st0" d="M-743.4-408.3c-2,0.3-4,1.1-5.9,2.3s-3.5,3.1-4.8,5.7c-3.2,6.6-6.3,13.3-9.3,20c-3.1,6.7-6.1,13.2-9,19.5
		c-0.9,1.9-1.9,4.3-3.1,7.3c-1.2,3-2.1,5.7-2.9,8.1h-12.5c-5.2-12.1-9.6-22.1-13.3-30.1s-7.6-16.5-11.7-25.7c-0.9-2.1-2.4-3.8-4.4-5
		s-4.1-2-6.1-2.2v-5h41.8v5c-1.5,0-3.3,0.4-5.4,1c-2.1,0.6-3.1,1.4-3.1,2.4c0,0.3,0.1,0.7,0.3,1.2s0.4,1.2,0.7,1.8
		c1.5,3.4,3.6,8.4,6.6,14.9s6,13.3,9.3,20.4c2.3-4.9,4.4-9.8,6.5-14.5s4.6-10.8,7.6-18.1c0.4-1.1,0.6-2,0.7-2.6
		c0.1-0.7,0.1-1.1,0.1-1.4c0-0.8-0.4-1.5-1.2-2.1s-1.7-1.1-2.8-1.6s-2.2-0.8-3.3-1c-1-0.2-1.9-0.4-2.6-0.5v-5h28v5.2H-743.4z"/>
	<path class="st0" d="M-669-362.2c-1.6,2.6-3.5,5-5.7,7.3s-4.8,4.2-7.6,5.9c-3,1.7-6.1,3-9.2,3.9c-3.1,0.9-6.7,1.3-10.7,1.3
		c-6.7,0-12.5-1-17.3-2.9c-4.9-1.9-8.9-4.5-12-7.7c-3.2-3.2-5.5-7-7.1-11.4s-2.3-9.1-2.3-14.2c0-4.6,0.8-9,2.5-13.3
		c1.7-4.2,4.1-8,7.2-11.3c3.1-3.2,7-5.8,11.6-7.8s9.9-3,15.7-3c6.3,0,11.5,0.8,15.6,2.3s7.4,3.7,10.1,6.4c2.6,2.6,4.5,5.6,5.6,9.1
		c1.2,3.5,1.8,7.2,1.8,11v4.4h-45.9c0,9.3,1.8,16.3,5.4,21.2c3.6,4.8,9.3,7.3,17,7.3c4.3,0,8.1-1.2,11.5-3.5s6.3-5.3,8.7-8.9
		L-669-362.2z M-694.9-388c0-2.7-0.1-5.5-0.4-8.3s-0.7-5.2-1.4-7c-0.8-2.1-1.8-3.7-3.2-4.8s-3-1.6-5.1-1.6c-3.5,0-6.3,1.8-8.3,5.3
		c-2.1,3.5-3.2,9.1-3.4,16.8L-694.9-388z"/>
	<path class="st0" d="M-631-343.7c-4.4,0-8.7-0.6-12.9-1.9s-7.4-2.7-9.7-4.1l-2,4.6h-5.3l-0.9-25.3h5c0.7,2,1.8,4.3,3.4,6.9
		c1.6,2.6,3.4,4.9,5.4,6.9c2.1,2,4.6,3.8,7.3,5.2c2.7,1.4,5.7,2.1,8.8,2.1c4.1,0,7.2-0.8,9.2-2.4s3-4.1,3-7.4c0-1.8-0.5-3.3-1.4-4.5
		s-2.1-2.2-3.7-3.1c-1.8-0.9-3.7-1.7-5.8-2.3c-2.1-0.6-4.7-1.4-7.8-2.3s-5.7-1.8-7.9-2.7c-2.2-0.9-4.5-2.4-6.8-4.4
		c-2-1.8-3.7-3.9-4.9-6.4s-1.8-5.5-1.8-8.9c0-6.4,2.7-11.5,8-15.5s12.4-5.9,21.1-5.9c4.1,0,7.9,0.4,11.4,1.3
		c3.5,0.8,6.4,1.8,8.7,2.7l1.4-4h5.2l1.1,23.1h-4.8c-1.6-4.7-4.3-8.8-8.1-12.2c-3.8-3.4-8-5.1-12.4-5.1c-3.5,0-6.2,0.7-8.2,2.2
		c-2,1.4-3,3.5-3,6c0,3.4,1.5,5.9,4.4,7.5c2.9,1.5,7,3,12.2,4.3c8.1,2.1,14,4.9,17.8,8.5c3.7,3.6,5.6,8.2,5.6,13.7
		c0,7.4-2.9,13.2-8.7,17.2C-614.1-345.7-621.7-343.7-631-343.7z"/>
	<path class="st0" d="M-540.7-349.1c-2.9,1.3-6,2.4-9.3,3.4s-7.3,1.5-12.1,1.5c-7.1,0-12.3-1.7-15.7-5.2c-3.4-3.4-5.1-8.3-5.1-14.7
		v-41.6h-12.2v-7.4h12.5v-20.6h22v20.6h19.1v7.4h-18.9v37.1c0,5.3,0.7,9,2.2,11.3c1.5,2.2,4.1,3.3,7.9,3.3c1.2,0,2.9-0.1,5.1-0.3
		c2.2-0.2,3.7-0.4,4.6-0.6L-540.7-349.1L-540.7-349.1z"/>
	<path class="st0" d="M-466.7-405.3c3.3,3.1,5.9,6.9,7.7,11.2c1.8,4.3,2.6,9,2.6,14.1c0,5-0.9,9.8-2.6,14.2
		c-1.7,4.5-4.3,8.3-7.6,11.4c-3.6,3.4-7.8,6-12.8,7.8s-10.6,2.7-17,2.7c-5.5,0-10.6-0.8-15.2-2.4s-8.7-4-12.3-7.1
		c-3.4-3-6.2-6.8-8.1-11.2c-2-4.5-3-9.4-3-15c0-5.4,0.9-10.3,2.6-14.5c1.7-4.2,4.4-8,7.8-11.3c3.3-3.2,7.5-5.6,12.4-7.4
		c4.9-1.7,10.4-2.6,16.5-2.6c6.3,0,11.9,0.9,16.7,2.6C-474.2-410.9-470.1-408.5-466.7-405.3z M-484-358.3c1-2.5,1.7-5.6,2.2-9.2
		s0.7-7.8,0.7-12.6c0-3.2-0.2-6.8-0.7-10.9s-1.1-7.3-2-9.6c-1.1-2.9-2.6-5.1-4.5-6.7s-4.4-2.4-7.3-2.4c-3.2,0-5.8,0.9-7.7,2.6
		c-1.9,1.8-3.4,4-4.4,6.9c-1,2.6-1.6,5.6-2,9.1s-0.5,7.1-0.5,10.8c0,4.9,0.2,9,0.5,12.2s1.1,6.5,2.3,9.7c1,2.8,2.5,5,4.5,6.7
		s4.4,2.4,7.4,2.4c2.7,0,5-0.8,7-2.3C-486.7-353.1-485.2-355.3-484-358.3z"/>
	<path class="st0" d="M-380-400.9c0,3.4-1.1,6.5-3.2,9.1s-4.9,3.9-8.4,3.9c-3.3,0-6.1-0.8-8.4-2.5s-3.4-4.1-3.4-7.4
		c0-1.6,0.1-2.8,0.3-3.7c0.2-0.9,0.4-1.7,0.6-2.5c-2.1,0.1-4.3,0.8-6.6,2.2c-2.3,1.3-4.3,3.1-6.1,5.4v37.3c0,1.6,0.2,2.9,0.7,3.9
		s1.3,1.9,2.5,2.4c1,0.5,2.6,0.9,4.9,1.3c2.2,0.3,3.9,0.5,4.9,0.6v5h-45.4v-5c1.1-0.1,2.3-0.2,3.4-0.4c1.2-0.2,2.1-0.4,3-0.6
		c1.4-0.5,2.4-1.3,3-2.3c0.5-1,0.8-2.4,0.8-4.1v-39.5c0-1.6-0.4-3.1-1.2-4.4c-0.8-1.3-1.7-2.3-2.8-3.1c-0.8-0.5-1.8-1-3.1-1.4
		c-1.2-0.4-2.6-0.6-4.1-0.7v-5l32.4-1.8l1,1v9.8h0.3c3.1-3.6,6.4-6.5,9.9-8.5c3.5-2.1,7.2-3.1,11-3.1c4.2,0,7.6,1.3,10.1,3.9
		C-381.3-408.4-380-405-380-400.9z"/>
	<path class="st0" d="M-343.9-343.7c-4.4,0-8.7-0.6-12.9-1.9c-4.2-1.3-7.4-2.7-9.7-4.1l-2,4.6h-5.3l-0.9-25.3h5
		c0.7,2,1.8,4.3,3.4,6.9s3.4,4.9,5.4,6.9c2.1,2,4.6,3.8,7.3,5.2c2.7,1.4,5.7,2.1,8.8,2.1c4.1,0,7.2-0.8,9.2-2.4s3-4.1,3-7.4
		c0-1.8-0.5-3.3-1.4-4.5s-2.1-2.2-3.7-3.1c-1.8-0.9-3.7-1.7-5.8-2.3c-2.1-0.6-4.7-1.4-7.8-2.3c-3.1-0.9-5.7-1.8-7.9-2.7
		c-2.2-0.9-4.5-2.4-6.8-4.4c-2-1.8-3.7-3.9-4.9-6.4c-1.2-2.5-1.8-5.5-1.8-8.9c0-6.4,2.7-11.5,8-15.5c5.4-3.9,12.4-5.9,21.1-5.9
		c4.1,0,7.9,0.4,11.4,1.3c3.5,0.8,6.4,1.8,8.7,2.7l1.4-4h5.2l1.1,23.1h-4.8c-1.6-4.7-4.3-8.8-8.1-12.2c-3.8-3.4-8-5.1-12.4-5.1
		c-3.5,0-6.2,0.7-8.2,2.2c-2,1.4-3,3.5-3,6c0,3.4,1.5,5.9,4.4,7.5c2.9,1.5,7,3,12.2,4.3c8.1,2.1,14,4.9,17.8,8.5s5.6,8.2,5.6,13.7
		c0,7.4-2.9,13.2-8.7,17.2S-334.5-343.7-343.9-343.7z"/>
</g>
<g>
	<path class="st1" d="M210.5-480H10.3v-18.4c4.9-0.3,12.6-1.1,23.2-2.4s17.8-2.6,21.7-3.9c4.9-1.6,8.7-4.4,11.4-8.2
		c2.7-3.9,4.1-9.2,4.1-16v-153.8H9.4v-23.1h13.3c14.1,0,26.2-1.5,36.5-4.6s18.8-6.8,25.6-11.2c7-4.5,12.7-9.2,17.1-14.1
		c4.4-4.9,8-9.1,10.6-12.9h42.7c-0.5,10.5-1,22.8-1.5,36.9c-0.5,14.1-0.7,26.7-0.7,37.9v142.2c0,5.8,1.2,10.9,3.8,15.2
		c2.5,4.3,6.1,7.6,10.8,9.8c4.2,1.9,11.2,3.7,21.1,5.3c9.9,1.6,17.1,2.6,21.8,2.9L210.5-480L210.5-480z"/>
	<path class="st1" d="M458.2-595c12.1,8.1,22.3,19,30.6,32.6c8.2,13.7,12.4,30.6,12.4,50.8c0,35.6-13.8,64.7-41.4,87.2
		c-27.6,22.6-62.8,33.8-105.7,33.8c-33.2,0-60.8-7.1-83-21.4c-22.2-14.2-33.2-31.1-33.2-50.5c0-11.5,3.7-21.2,11-29.1
		c7.4-7.9,17.2-11.9,29.5-11.9c12.8,0,23.3,3.4,31.4,10.3c8.2,6.9,12.3,16.1,12.3,27.5c0,8.1-1.4,16.9-4.1,26.4
		c-2.8,9.5-5,16.8-6.8,21.8c3.9,1.5,8.4,2.5,13.6,3.3c5.2,0.7,10,1.1,14.6,1.1c9.2,0,18.3-2.1,27.2-6.2c8.9-4.1,16.5-10.2,22.8-18.1
		c7.3-9.1,12.8-19.8,16.5-32.1c3.7-12.4,5.6-26.4,5.6-42.1c0-22.8-6.1-41.5-18.3-56.2c-12.2-14.6-28.1-22-47.5-22
		c-15.1,0-27.7,3-37.9,9.1c-10.2,6.1-19.4,14-27.5,23.9l-18.7-6.3L285-741.3h205v67H302.6l-10.1,80.1c8.7-5.5,20-10.7,33.7-15.8
		c13.7-5,29.9-7.5,48.5-7.5c14.4,0,28.6,1.6,42.6,4.7C431.3-609.7,445-603.8,458.2-595z"/>
	<path class="st1" d="M809.3-706.1c12.3,12.9,21.4,27.7,27.3,44.3c5.9,16.6,8.9,33.8,8.9,51.6c0,21.2-3.7,40.3-11,57.4
		c-7.4,17.1-17.4,31.5-30.2,43.3c-13.4,12.3-29,21.7-46.8,28.1c-17.8,6.5-38.3,9.7-61.4,9.7c-24.4,0-46-3.8-64.7-11.4
		s-34.3-17.6-46.7-30.1c-12.3-12.3-21.6-26.8-28-43.4c-6.4-16.7-9.6-34.5-9.6-53.6c0-18.9,3-36.5,9.1-52.7s15.4-30.8,28-43.9
		c12.3-12.8,27.9-23,46.8-30.7c18.9-7.7,40.7-11.5,65.3-11.5c25.4,0,47.6,4,66.5,11.9C781.7-729.3,797.2-718.9,809.3-706.1z
		 M740.9-525.4c4.7-10.8,8-22.9,10.1-36.3c2-13.3,3-29.6,3-48.6c0-17.1-0.9-32.6-2.8-46.3c-1.9-13.7-5-26-9.3-36.6
		c-4.5-11-10.5-19.5-18-25.5c-7.4-6-16.6-9-27.4-9c-11,0-20.2,3-27.7,8.9c-7.4,5.9-13.5,14.3-18.2,25.1c-4.2,9.9-7.3,22-9.2,36.3
		s-2.9,30-2.9,47.2c0,18,0.8,33.2,2.5,45.9c1.7,12.6,4.8,24.7,9.3,36.4c4,10.5,9.9,19,17.5,25.5s17,9.7,28.1,9.7
		c10.4,0,19.3-2.9,26.9-8.7C730.6-507.4,736.5-515.3,740.9-525.4z"/>
</g>
<g>
	<path class="st1" d="M575-408.3c-2,0.3-4,1.1-5.9,2.3s-3.5,3.1-4.8,5.7c-3.9,8.2-7.9,17-12,26.3s-8.7,19.4-13.7,30.2
		c-2.8,6.1-5.5,10.9-8.1,14.5s-5.1,6.4-7.4,8.3c-2.2,1.8-4.3,3.1-6.4,3.9s-4.3,1.2-6.4,1.2c-4.3,0-7.8-1.2-10.4-3.6s-4-5.1-4-8.1
		c0-1.3,0.1-2.4,0.4-3.5s0.9-2.2,1.9-3.4c0.7-1,1.8-1.8,3.4-2.5c1.5-0.7,3.2-1.1,5.1-1.1c2.5,0,5,0.9,7.3,2.6
		c2.3,1.8,4.7,4.2,7.2,7.3c1.5-1.5,3.3-3.7,5.5-6.7s3.8-6,4.8-9.2c-5.4-11.3-10.2-21.1-14.3-29.4c-4.2-8.3-8.8-17.6-14-27.8
		c-1.1-2.2-2.6-3.9-4.5-5.1s-3.9-1.9-6-2.2v-5H534v5c-1.5,0-3.3,0.4-5.3,1s-3,1.4-3,2.4c0,0.4,0.1,0.8,0.2,1.2
		c0.1,0.4,0.4,1.1,0.7,1.9c1.5,3.2,3.7,7.5,6.5,13.2c2.8,5.6,6.1,12.2,9.9,19.7c2.8-6.4,5.2-11.9,7.1-16.5c2-4.6,3.9-9.2,5.7-13.6
		c0.5-1.1,0.7-2,0.8-2.7s0.1-1.1,0.1-1.3c0-0.8-0.4-1.5-1.2-2.1s-1.7-1.1-2.8-1.6s-2.2-0.8-3.2-1s-1.9-0.4-2.6-0.5v-5h28L575-408.3
		L575-408.3z"/>
	<path class="st1" d="M649.4-362.2c-1.6,2.6-3.5,5-5.7,7.3s-4.8,4.2-7.6,5.9c-3,1.7-6.1,3-9.2,3.9c-3.1,0.9-6.7,1.3-10.7,1.3
		c-6.7,0-12.5-1-17.3-2.9s-8.9-4.5-12-7.7s-5.5-7-7.1-11.4s-2.3-9.1-2.3-14.2c0-4.6,0.8-9,2.5-13.3c1.7-4.2,4.1-8,7.2-11.3
		c3.1-3.2,7-5.8,11.6-7.8c4.7-2,9.9-3,15.7-3c6.3,0,11.5,0.8,15.6,2.3s7.4,3.7,10.1,6.4c2.6,2.6,4.5,5.6,5.6,9.1
		c1.2,3.5,1.8,7.2,1.8,11v4.4h-45.9c0,9.3,1.8,16.3,5.4,21.2c3.6,4.8,9.3,7.3,17,7.3c4.3,0,8.1-1.2,11.5-3.5s6.3-5.3,8.7-8.9
		L649.4-362.2z M623.4-388c0-2.7-0.1-5.5-0.4-8.3s-0.7-5.2-1.4-7c-0.8-2.1-1.8-3.7-3.2-4.8c-1.3-1.1-3-1.6-5.1-1.6
		c-3.5,0-6.3,1.8-8.3,5.3c-2.1,3.5-3.2,9.1-3.4,16.8L623.4-388z"/>
	<path class="st1" d="M733.5-347.4c-2,0.9-4.3,1.7-7,2.4c-2.7,0.7-5.6,1.1-8.6,1.1c-5.6,0-9.6-0.8-12.3-2.5c-2.6-1.7-4.4-4-5.4-7.1
		h-0.4c-1.5,1.5-3,2.9-4.5,3.9s-3,2-4.6,2.8c-2.1,1-4.2,1.7-6.2,2.2s-4.7,0.7-8.3,0.7c-5.3,0-9.7-1.6-13.5-4.7
		c-3.7-3.1-5.6-7.2-5.6-12.3c0-2.9,0.4-5.4,1.2-7.5s2-3.9,3.5-5.5c1.4-1.5,2.9-2.7,4.7-3.6c1.8-1,3.8-1.8,5.9-2.7
		c4.1-1.5,9-3,14.7-4.7c5.7-1.6,9.9-3,12.5-4.3v-6.5c0-1.1-0.1-2.6-0.3-4.5s-0.6-3.4-1.2-4.7c-0.6-1.4-1.6-2.7-3-3.7
		s-3.1-1.5-5.4-1.5c-2,0-3.7,0.3-5,0.8c-1.3,0.6-2.4,1.1-3.2,1.7c0.1,0.9,0.5,2.3,1.2,4.1c0.6,1.9,1,3.6,1,5.4
		c0,0.8-0.2,1.7-0.6,2.9c-0.4,1.2-1,2.1-1.8,2.7c-1,0.9-2.2,1.6-3.5,2.1s-3.3,0.7-6,0.7c-3.8,0-6.7-0.9-8.6-2.7
		c-2-1.8-2.9-4.2-2.9-7.2c0-2.5,1-4.8,3-6.8s4.5-3.7,7.4-5c2.9-1.4,6.1-2.4,9.8-3.2c3.7-0.7,7.1-1.1,10.3-1.1
		c4.4,0,8.4,0.3,12.1,0.8c3.7,0.5,7,1.6,9.9,3.2c2.8,1.6,5,3.9,6.7,6.9s2.5,6.9,2.5,11.8c0,5.1-0.1,11.2-0.3,18.2
		s-0.3,11.6-0.3,13.8c0,2,0.3,3.6,0.9,4.8c0.6,1.2,1.5,2.1,2.8,2.6c0.8,0.4,2,0.6,3.6,0.6c1.7,0.1,3.2,0.1,4.5,0.1v5.5H733.5z
		 M699.8-382.8c-2.5,0.9-5.1,1.8-7.6,3s-4.5,2.3-6.1,3.5c-1.7,1.3-3,2.9-3.9,4.9c-1,2-1.4,4.3-1.4,7c0,3.5,0.8,6.1,2.4,7.7
		c1.6,1.6,3.6,2.4,6,2.4c2.5,0,4.6-0.5,6.2-1.5c1.6-1,3-2.3,4.3-3.8L699.8-382.8z"/>
	<path class="st1" d="M806.3-400.9c0,3.4-1.1,6.5-3.2,9.1c-2.1,2.6-4.9,3.9-8.4,3.9c-3.3,0-6.1-0.8-8.4-2.5
		c-2.3-1.7-3.4-4.1-3.4-7.4c0-1.6,0.1-2.8,0.3-3.7c0.2-0.9,0.4-1.7,0.6-2.5c-2.1,0.1-4.3,0.8-6.6,2.2c-2.3,1.3-4.3,3.1-6.1,5.4v37.3
		c0,1.6,0.2,2.9,0.7,3.9s1.3,1.9,2.5,2.4c1,0.5,2.6,0.9,4.9,1.3c2.2,0.3,3.9,0.5,4.9,0.6v5h-45.4v-5c1.1-0.1,2.3-0.2,3.4-0.4
		c1.2-0.2,2.1-0.4,3-0.6c1.4-0.5,2.4-1.3,3-2.3c0.5-1,0.8-2.4,0.8-4.1v-39.5c0-1.6-0.4-3.1-1.2-4.4s-1.7-2.3-2.8-3.1
		c-0.8-0.5-1.8-1-3.1-1.4c-1.2-0.4-2.6-0.6-4.1-0.7v-5l32.4-1.8l1,1v9.8h0.3c3.1-3.6,6.4-6.5,9.9-8.5c3.5-2.1,7.2-3.1,11-3.1
		c4.2,0,7.6,1.3,10.1,3.9C805-408.4,806.3-405,806.3-400.9z"/>
	<path class="st1" d="M842.4-343.7c-4.4,0-8.7-0.6-12.9-1.9s-7.4-2.7-9.7-4.1l-2,4.6h-5.3l-0.9-25.3h5c0.7,2,1.8,4.3,3.4,6.9
		c1.6,2.6,3.4,4.9,5.4,6.9c2.1,2,4.6,3.8,7.3,5.2c2.7,1.4,5.7,2.1,8.8,2.1c4.1,0,7.2-0.8,9.2-2.4s3-4.1,3-7.4c0-1.8-0.5-3.3-1.4-4.5
		s-2.2-2.2-3.7-3.1c-1.8-0.9-3.7-1.7-5.8-2.3c-2.1-0.6-4.7-1.4-7.8-2.3s-5.7-1.8-7.9-2.7c-2.2-0.9-4.5-2.4-6.8-4.4
		c-2-1.8-3.7-3.9-4.9-6.4s-1.8-5.5-1.8-8.9c0-6.4,2.7-11.5,8-15.5s12.4-5.9,21.1-5.9c4.1,0,7.9,0.4,11.4,1.3
		c3.5,0.8,6.4,1.8,8.7,2.7l1.4-4h5.2l1.1,23.1h-4.8c-1.6-4.7-4.3-8.8-8.1-12.2c-3.8-3.4-8-5.1-12.4-5.1c-3.5,0-6.2,0.7-8.2,2.2
		c-2,1.4-3,3.5-3,6c0,3.4,1.5,5.9,4.4,7.5c2.9,1.5,7,3,12.2,4.3c8.1,2.1,14,4.9,17.8,8.5c3.7,3.6,5.6,8.2,5.6,13.7
		c0,7.4-2.9,13.2-8.7,17.2C859.3-345.7,851.8-343.7,842.4-343.7z"/>
	<path class="st1" d="M173-222.2c-1.6,2.6-3.5,5-5.7,7.3s-4.8,4.2-7.6,5.9c-3,1.7-6.1,3-9.2,3.9c-3.1,0.9-6.7,1.3-10.7,1.3
		c-6.7,0-12.5-1-17.3-2.9c-4.9-1.9-8.9-4.5-12-7.7c-3.2-3.2-5.5-7-7.1-11.4s-2.3-9.1-2.3-14.2c0-4.6,0.8-9,2.5-13.3
		c1.7-4.2,4.1-8,7.2-11.3c3.1-3.2,7-5.8,11.6-7.8c4.7-2,9.9-3,15.7-3c6.3,0,11.5,0.8,15.6,2.3s7.4,3.7,10.1,6.4
		c2.6,2.6,4.5,5.6,5.6,9.1c1.2,3.5,1.8,7.2,1.8,11v4.4h-45.9c0,9.3,1.8,16.3,5.4,21.2c3.6,4.9,9.3,7.3,17,7.3
		c4.3,0,8.1-1.2,11.5-3.5s6.3-5.3,8.7-8.9L173-222.2z M147-248c0-2.7-0.1-5.5-0.4-8.3s-0.7-5.2-1.4-7c-0.8-2.1-1.8-3.7-3.2-4.8
		c-1.3-1.1-3-1.6-5.1-1.6c-3.5,0-6.3,1.8-8.3,5.3c-2.1,3.5-3.2,9.1-3.4,16.8L147-248z"/>
	<path class="st1" d="M256.9-206h-42.4v-5c2.2-0.1,4.1-0.3,5.6-0.6c1.5-0.2,2.2-0.8,2.2-1.5c0-0.4-0.2-0.9-0.6-1.7
		c-0.4-0.8-0.9-1.6-1.5-2.6c-0.9-1.4-2.3-3.6-4.5-6.7c-2.1-3-4.1-5.9-5.9-8.4c-2.6,3-4.8,5.6-6.6,7.8s-3.6,4.5-5.6,7
		c-0.7,0.8-1.2,1.6-1.4,2.2s-0.4,1.1-0.4,1.2c0,1,0.7,1.8,2.2,2.4c1.5,0.5,3.2,0.8,5.3,0.8v5h-27.6v-5c3.7-0.8,6.6-2,8.8-3.7
		s3.7-3,4.5-3.9c3.3-3.5,6.1-6.5,8.4-8.8c2.3-2.3,5.4-5.6,9.2-9.9c-2.6-3.6-5.7-7.9-9.4-13.1c-3.7-5.1-6.7-9.4-9.2-12.6
		c-1.2-1.6-2.7-2.9-4.5-3.8s-4.1-1.5-6.9-1.7v-5h41.5v5c-1.5,0-3,0.1-4.4,0.3c-1.4,0.2-2.2,0.5-2.2,1c0,0.4,0.1,0.8,0.3,1.4
		s0.5,1.1,0.9,1.7c0.9,1.4,2.2,3.6,4.1,6.4s3.8,5.7,6,8.8c2-2.5,3.7-4.5,5.1-6.1c1.4-1.6,3.2-3.8,5.3-6.7c0.8-1.1,1.3-1.9,1.5-2.4
		s0.3-0.9,0.3-1c0-0.8-0.5-1.5-1.5-2.1s-2.9-1-5.7-1.1v-5h27v5c-2.2,0.4-4.4,1.1-6.4,2.2c-2.1,1.1-4.3,2.9-6.5,5.3
		c-3.5,3.7-6.1,6.3-7.7,8s-4.3,4.5-8,8.4c2.1,2.9,5.1,7.2,9,12.8s7.3,10.3,10.2,14.2c1.2,1.7,2.6,3.1,4.1,4.2
		c1.5,1.1,3.9,1.8,7.2,2.2v5.1H256.9z"/>
	<path class="st1" d="M343.9-239c0,9.5-3.2,17.7-9.6,24.6s-14.4,10.2-24.2,10.2c-4.3,0-7.9-0.4-10.6-1.3c-2.7-0.9-4.9-2-6.7-3.2
		h-0.5v19.1c0,1.6,0.3,3,1.1,4.1c0.7,1.2,1.7,2,3,2.6c1.2,0.5,3,1,5.2,1.4s4.1,0.7,5.6,0.7v5H258v-5c1.1-0.1,2.6-0.3,4.3-0.5
		c1.7-0.2,3-0.5,3.9-0.8c1.4-0.5,2.4-1.3,3-2.5c0.5-1.2,0.8-2.6,0.8-4.1v-69.4c-0.1-1.5-0.5-2.8-1.1-3.9s-1.5-2.1-2.7-3
		c-0.9-0.6-2.1-1.1-3.6-1.5s-3-0.6-4.4-0.8v-5l33.1-1.8l1,0.9v7.5l0.5,0.1c3-3,6.3-5.4,9.9-7.1s7.2-2.5,10.8-2.5
		c9.4,0,16.7,3.3,22.2,9.9C341.2-258.6,343.9-249.8,343.9-239z M319.5-238.8c0-3.4-0.2-6.6-0.7-9.7c-0.5-3.1-1.4-5.9-2.6-8.3
		s-2.8-4.4-4.8-5.8s-4.5-2.2-7.3-2.2c-2.9,0-5.3,0.5-7,1.5c-1.8,1-3.3,2.3-4.6,4v38.5c0.3,0.9,0.8,2.1,1.6,3.5
		c0.8,1.4,1.5,2.6,2.3,3.4c1.1,1.2,2.4,2.1,3.9,2.7c1.4,0.6,3,0.9,4.7,0.9c4.5,0,8-2.4,10.7-7.2
		C318.2-222.4,319.5-229.4,319.5-238.8z"/>
	<path class="st1" d="M425.6-222.2c-1.6,2.6-3.5,5-5.7,7.3s-4.8,4.2-7.6,5.9c-3,1.7-6.1,3-9.2,3.9s-6.7,1.3-10.7,1.3
		c-6.7,0-12.5-1-17.3-2.9c-4.9-1.9-8.9-4.5-12-7.7c-3.2-3.2-5.5-7-7.1-11.4s-2.3-9.1-2.3-14.2c0-4.6,0.8-9,2.5-13.3
		c1.7-4.2,4.1-8,7.2-11.3c3.1-3.2,7-5.8,11.6-7.8c4.7-2,9.9-3,15.7-3c6.3,0,11.5,0.8,15.6,2.3s7.4,3.7,10.1,6.4
		c2.6,2.6,4.5,5.6,5.6,9.1c1.2,3.5,1.8,7.2,1.8,11v4.4h-45.9c0,9.3,1.8,16.3,5.4,21.2s9.3,7.3,17,7.3c4.3,0,8.1-1.2,11.5-3.5
		s6.3-5.3,8.7-8.9L425.6-222.2z M399.7-248c0-2.7-0.1-5.5-0.4-8.3s-0.7-5.2-1.4-7c-0.8-2.1-1.8-3.7-3.2-4.8c-1.3-1.1-3-1.6-5.1-1.6
		c-3.5,0-6.3,1.8-8.3,5.3c-2.1,3.5-3.2,9.1-3.4,16.8L399.7-248z"/>
	<path class="st1" d="M499.7-260.9c0,3.4-1.1,6.5-3.2,9.1s-4.9,3.9-8.4,3.9c-3.3,0-6.1-0.8-8.4-2.5s-3.4-4.1-3.4-7.4
		c0-1.6,0.1-2.8,0.3-3.7c0.2-0.9,0.4-1.7,0.6-2.5c-2.1,0.1-4.3,0.8-6.6,2.2c-2.3,1.3-4.3,3.1-6.1,5.4v37.3c0,1.6,0.2,2.9,0.7,3.9
		s1.3,1.9,2.5,2.4c1,0.5,2.6,0.9,4.9,1.3c2.2,0.3,3.9,0.5,4.9,0.6v5h-45.4v-5c1.1-0.1,2.3-0.2,3.4-0.4c1.2-0.2,2.1-0.4,3-0.6
		c1.4-0.5,2.4-1.3,3-2.3c0.5-1,0.8-2.4,0.8-4.1v-39.5c0-1.6-0.4-3.1-1.2-4.4c-0.8-1.3-1.7-2.3-2.8-3.1c-0.8-0.5-1.8-1-3.1-1.4
		c-1.2-0.4-2.6-0.6-4.1-0.7v-5l32.4-1.8l1,1v9.8h0.3c3.1-3.6,6.4-6.5,9.9-8.5c3.5-2.1,7.2-3.1,11-3.1c4.2,0,7.6,1.3,10.1,3.9
		C498.4-268.4,499.7-265,499.7-260.9z"/>
	<path class="st1" d="M547.3-206h-42.9v-5c1.2-0.1,2.3-0.2,3.5-0.3s2.1-0.4,2.9-0.7c1.4-0.5,2.5-1.3,3.1-2.3s0.9-2.4,0.9-4v-39.5
		c0-1.6-0.4-3-1.1-4.2c-0.7-1.2-1.6-2.2-2.7-2.9c-0.8-0.5-2-1.1-3.7-1.6s-3.2-0.8-4.5-1v-5l33.3-1.8l1,1v53.9c0,1.6,0.3,2.9,1,4
		s1.7,1.9,2.9,2.5c0.9,0.4,1.9,0.8,3,1.1s2.2,0.5,3.4,0.7v5.1H547.3z M537.4-298.5c0,3.4-1.3,6.4-4,8.8c-2.6,2.4-5.8,3.6-9.4,3.6
		c-3.7,0-6.8-1.2-9.5-3.6c-2.6-2.4-4-5.4-4-8.8s1.3-6.4,4-8.8c2.6-2.4,5.8-3.7,9.5-3.7s6.8,1.2,9.4,3.7
		C536.1-304.9,537.4-302,537.4-298.5z"/>
	<path class="st1" d="M626.5-222.2c-1.6,2.6-3.5,5-5.7,7.3s-4.8,4.2-7.6,5.9c-3,1.7-6.1,3-9.2,3.9c-3.1,0.9-6.7,1.3-10.7,1.3
		c-6.7,0-12.5-1-17.3-2.9c-4.9-1.9-8.9-4.5-12-7.7c-3.2-3.2-5.5-7-7.1-11.4s-2.3-9.1-2.3-14.2c0-4.6,0.8-9,2.5-13.3
		c1.7-4.2,4.1-8,7.2-11.3c3.1-3.2,7-5.8,11.6-7.8s9.9-3,15.7-3c6.3,0,11.5,0.8,15.6,2.3s7.4,3.7,10.1,6.4c2.6,2.6,4.5,5.6,5.6,9.1
		c1.2,3.5,1.8,7.2,1.8,11v4.4h-45.9c0,9.3,1.8,16.3,5.4,21.2c3.6,4.8,9.3,7.3,17,7.3c4.3,0,8.1-1.2,11.5-3.5s6.3-5.3,8.7-8.9
		L626.5-222.2z M600.6-248c0-2.7-0.1-5.5-0.4-8.3s-0.7-5.2-1.4-7c-0.8-2.1-1.8-3.7-3.2-4.8s-3-1.6-5.1-1.6c-3.5,0-6.3,1.8-8.3,5.3
		c-2.1,3.5-3.2,9.1-3.4,16.8L600.6-248z"/>
	<path class="st1" d="M722.6-206h-40.8v-5c0.9-0.1,1.9-0.2,3.1-0.3c1.2-0.1,2.1-0.4,2.8-0.7c1-0.5,1.6-1.2,2-2.2s0.6-2.4,0.6-4.2
		v-31.8c0-4.6-0.9-8.1-2.6-10.4c-1.7-2.3-4.2-3.5-7.5-3.5c-1.8,0-3.5,0.3-5.1,0.8s-3.1,1.3-4.6,2.4c-1.3,0.9-2.4,1.8-3.2,2.8
		s-1.5,1.8-2,2.5v36.4c0,1.6,0.2,2.9,0.7,4s1.2,1.9,2.2,2.4c0.7,0.4,1.6,0.8,2.7,1.1s2.1,0.5,3.2,0.7v5H633v-5
		c1.1-0.1,2.3-0.2,3.4-0.4c1.2-0.2,2.1-0.4,3-0.6c1.4-0.5,2.4-1.3,3-2.3c0.5-1,0.8-2.4,0.8-4.1v-39.5c0-1.4-0.4-2.8-1.1-4.1
		s-1.7-2.5-2.9-3.3c-0.8-0.5-1.8-1-3.1-1.4c-1.2-0.4-2.6-0.6-4.1-0.7v-5l32.4-1.8l1,1v9.8h0.3c1.3-1.1,2.8-2.5,4.6-4.1
		s3.5-2.9,5-3.9c1.7-1.1,3.9-2,6.6-2.8c2.7-0.8,5.6-1.2,8.7-1.2c7.4,0,12.9,2.1,16.6,6.3c3.7,4.2,5.5,9.7,5.5,16.7v33.3
		c0,1.7,0.2,3,0.7,4s1.4,1.8,2.8,2.4c0.7,0.3,1.6,0.6,2.7,1c1.1,0.3,2.3,0.5,3.6,0.7L722.6-206L722.6-206z"/>
	<path class="st1" d="M767.7-203.8c-6.3,0-11.8-0.9-16.7-2.7c-4.8-1.8-8.8-4.3-11.9-7.5c-3.1-3.2-5.5-7-7-11.4s-2.3-9.2-2.3-14.3
		c0-4.7,0.9-9.2,2.8-13.4c1.9-4.3,4.4-8,7.6-11.2c3.3-3.3,7.4-5.9,12.3-7.9c4.9-2,10.3-3,16.3-3c8.3,0,14.9,1.6,19.8,4.7
		c4.8,3.1,7.3,7.4,7.3,12.7c0,3.3-0.9,5.9-2.6,7.9c-1.7,2-4.7,3-8.9,3c-3.4,0-6.2-0.8-8.5-2.4c-2.3-1.6-3.4-3.8-3.4-6.4
		c0-2.2,0.4-4.4,1.1-6.6c0.7-2.2,1.2-3.8,1.3-5c-0.5-0.8-1.1-1.4-1.9-1.9c-0.8-0.4-2-0.6-3.6-0.6c-2,0-3.9,0.5-5.6,1.4
		s-3.2,2.6-4.7,5c-1.4,2.3-2.5,5.3-3.4,9.1c-0.8,3.8-1.3,8.4-1.3,13.7c0,8.1,1.9,14.5,5.7,19.5c3.8,4.9,8.3,7.4,13.5,7.4
		c5,0,9-1.1,12-3.4c3-2.2,5.6-5.4,7.9-9.5l5.1,3.5c-1.4,2.8-3.1,5.3-5,7.6s-4.3,4.3-7,6.1c-2.9,1.9-5.7,3.3-8.7,4.2
		C775-204.3,771.6-203.8,767.7-203.8z"/>
	<path class="st1" d="M875.7-222.2c-1.6,2.6-3.5,5-5.7,7.3s-4.8,4.2-7.6,5.9c-3,1.7-6.1,3-9.2,3.9c-3.1,0.9-6.7,1.3-10.7,1.3
		c-6.7,0-12.5-1-17.3-2.9c-4.9-1.9-8.9-4.5-12-7.7s-5.5-7-7.1-11.4s-2.3-9.1-2.3-14.2c0-4.6,0.8-9,2.5-13.3c1.7-4.2,4.1-8,7.2-11.3
		c3.1-3.2,7-5.8,11.6-7.8s9.9-3,15.7-3c6.3,0,11.5,0.8,15.6,2.3s7.4,3.7,10.1,6.4c2.6,2.6,4.5,5.6,5.6,9.1c1.2,3.5,1.8,7.2,1.8,11
		v4.4H828c0,9.3,1.8,16.3,5.4,21.2c3.6,4.8,9.3,7.3,17,7.3c4.3,0,8.1-1.2,11.5-3.5s6.3-5.3,8.7-8.9L875.7-222.2z M849.8-248
		c0-2.7-0.1-5.5-0.4-8.3s-0.7-5.2-1.4-7c-0.8-2.1-1.8-3.7-3.2-4.8c-1.3-1.1-3-1.6-5.1-1.6c-3.5,0-6.3,1.8-8.3,5.3
		c-2.1,3.5-3.2,9.1-3.4,16.8L849.8-248z"/>
</g>
<g>
	<path class="st0" d="M-961.4-592.3c0,34.3-12.9,63-38.7,86.1s-58.8,34.7-98.9,34.7c-41.9,0-75.5-13.1-100.9-39.4
		s-38.1-61.6-38.1-105.9c0-59.2,20-108.1,59.9-146.8c40-38.7,94.2-62,162.8-70.1l5.6,24l-25.7,4.4c-19.6,5.3-36,12.7-49.1,22
		c-13.2,9.3-24.1,19.9-32.6,31.9c-8.2,11.5-14.7,24.5-19.4,38.9c-4.7,14.5-8.2,28.8-10.7,42.8c14.1-12.6,28-21.1,41.9-25.5
		c13.8-4.4,28.7-6.6,44.5-6.6c27.8,0,51.4,10.2,70.6,30.5C-971.1-651-961.4-624.7-961.4-592.3z M-1051.2-585.8
		c0-25.6-4.5-45.9-13.5-60.9s-21-22.6-36-22.6c-10,0-18.7,1.7-26.1,5.1c-7.4,3.4-14.8,10.5-22.2,21.4c0,0.8,0,2.2-0.1,4.2
		s-0.2,4.7-0.4,7.9c-0.2,3.6-0.3,6.9-0.4,9.9c-0.1,3.1-0.1,5.7-0.1,7.8c0,38.8,4.7,68.5,14.2,89.2c9.5,20.6,21.6,30.9,36.5,30.9
		c14.4,0,26-8.1,34.8-24.3C-1055.6-533.3-1051.2-556.2-1051.2-585.8z"/>
	<path class="st0" d="M-615.7-480H-730c-14.1-24.7-26.9-45.6-38.5-62.8s-22.6-33.1-33-47.8l-14.3,12.1v52.9c0,5.8,0.8,10.6,2.5,14.3
		s5,6.5,9.8,8.2c2.9,1.3,6.3,2.4,10.2,3.4s7.8,1.6,11.6,1.9v17.7h-150.7v-17.7c4.1-0.3,8.1-0.8,12.2-1.3c4.1-0.6,7.7-1.3,10.7-2.3
		c5.2-1.8,8.8-4.5,10.6-8.2c1.9-3.7,2.8-8.6,2.8-14.6v-270.5c0-5.3-1.2-10.9-3.5-16.6c-2.3-5.7-5.8-10.1-10.3-13
		c-3.1-1.9-7.7-3.6-13.8-4.9c-6.1-1.3-11.7-2.1-16.7-2.4v-17.7l120.8-6.3l3.6,3.9v250.4c12-10.7,25.4-23,40.3-37.1
		c14.9-14.1,26.9-25.7,36-34.9c5.3-5.5,8.3-9.7,8.9-12.5c0.6-2.8,0.8-4.6,0.8-5.2c0-2.9-2.6-5.3-7.7-7.3c-5.1-1.9-12.8-3.6-23.1-5.1
		v-17.2h123.3v16.7c-16.2,4.5-28.5,8.8-36.9,12.7c-8.5,4-17.7,9.3-27.7,15.9c-6.6,4.4-13,8.9-19.2,13.7s-13.3,10.7-21.4,17.9
		c15.8,23,30.4,44.2,43.8,63.8c13.4,19.6,27.5,40.3,42.1,62.1c5,7.6,11.2,12.7,18.7,15.3c7.4,2.6,14.9,4.2,22.3,4.9v17.6H-615.7z"/>
	<path class="st0" d="M-318-599.4h-114.8v114.8h-39.8v-114.8h-114.8v-39.8h114.8V-754h39.8v114.8H-318V-599.4z"/>
</g>
<g class="st2">
	<path class="st0" d="M204,448.2H5v-18.3c4.8-0.3,12.5-1.1,23-2.4c10.5-1.3,17.7-2.6,21.6-3.9c4.8-1.6,8.6-4.3,11.3-8.2
		c2.7-3.9,4.1-9.2,4.1-15.9V246.5H4v-22.9h13.3c14,0,26.1-1.5,36.3-4.6c10.2-3.1,18.7-6.8,25.5-11.1c6.9-4.5,12.6-9.2,17-14
		c4.4-4.8,7.9-9.1,10.5-12.8H149c-0.5,10.5-1,22.7-1.4,36.7c-0.5,14-0.7,26.5-0.7,37.6v141.4c0,5.8,1.2,10.8,3.7,15.1
		c2.5,4.3,6.1,7.5,10.7,9.8c4.2,1.9,11.2,3.7,21,5.3c9.8,1.6,17,2.6,21.7,2.9V448.2z"/>
	<path class="st0" d="M513,325.6c0,58.5-19.8,106.4-59.3,143.7s-93.6,60.3-162.1,69.4l-5.5-23.9l25.6-4.3
		c19.8-5.6,36.2-12.9,49.2-21.7c13-8.8,23.7-19.1,32.1-30.9c8.7-12.1,15.3-24.8,19.8-38.4c4.5-13.5,7.9-27.4,10.1-41.7
		c-14.2,12.4-27.9,20.5-41.1,24.5c-13.3,3.9-28.2,5.9-44.8,5.9c-13.8,0-26.8-2.7-38.8-8.2c-12.1-5.5-22.5-12.9-31.4-22.4
		c-9-9.6-16-21.3-21.1-34.9c-5.1-13.6-7.6-28.3-7.6-44.3c0-33.9,13-62,39.1-84.3c26.1-22.3,58.6-33.4,97.7-33.4
		c42.3,0,75.9,13.1,100.8,39.3C500.6,246.2,513,281.4,513,325.6z M425,338.9c0-2.2,0.1-5,0.2-8.2c0.2-3.2,0.2-6.4,0.2-9.4
		c0-38.6-4.6-68.2-13.9-88.7c-9.2-20.5-21.3-30.8-36.1-30.8c-14.3,0-25.9,7.8-34.9,23.4c-8.9,15.6-13.4,38.1-13.4,67.5
		c0,25.7,4.5,46.2,13.6,61.5c9.1,15.3,21,22.9,35.8,22.9c9.3,0,17.9-1.8,25.8-5.5c7.9-3.7,15.2-10.6,22-20.7c0-0.8,0.1-2.2,0.2-4.2
		C424.9,344.7,425,342.1,425,338.9z"/>
	<path class="st0" d="M813.9,217.1L638.2,537.2h-36.1l162.7-283.9H654.2c-14,0-24.9,0.1-32.8,0.2c-7.9,0.2-15.1,1.8-21.7,4.8
		c-5.3,2.4-9.9,8-13.6,16.8c-3.8,8.8-6.8,19.5-9,32.2h-17.6V188.4h254.5V217.1z"/>
	<path class="st0" d="M1097.3,223.4c12.2,12.9,21.3,27.5,27.1,44c5.9,16.5,8.8,33.6,8.8,51.3c0,21.1-3.7,40.1-11,57.1
		c-7.3,17-17.3,31.3-30,43.1c-13.4,12.2-28.9,21.6-46.6,28c-17.7,6.4-38,9.6-61,9.6c-24.3,0-45.7-3.8-64.3-11.3
		s-34.1-17.5-46.4-29.9c-12.2-12.2-21.5-26.6-27.9-43.2c-6.4-16.6-9.5-34.3-9.5-53.3c0-18.8,3-36.3,9-52.3
		c6-16.1,15.3-30.6,27.9-43.7c12.2-12.7,27.7-22.9,46.6-30.5c18.8-7.6,40.4-11.5,64.9-11.5c25.2,0,47.3,3.9,66.1,11.8
		C1069.8,200.4,1085.3,210.7,1097.3,223.4z M1029.3,403.1c4.7-10.8,8-22.8,10-36.1c2-13.3,3-29.4,3-48.4c0-17-0.9-32.4-2.8-46.1
		c-1.9-13.7-4.9-25.8-9.3-36.4c-4.5-10.9-10.5-19.4-17.9-25.3c-7.4-5.9-16.5-8.9-27.3-8.9c-10.9,0-20.1,2.9-27.5,8.8
		c-7.4,5.9-13.4,14.2-18.1,25c-4.2,9.8-7.2,21.8-9.2,36.1c-1.9,14.2-2.9,29.9-2.9,46.9c0,17.9,0.8,33,2.5,45.6
		c1.7,12.5,4.8,24.6,9.3,36.2c4,10.5,9.8,18.9,17.4,25.3c7.6,6.4,16.9,9.6,28,9.6c10.3,0,19.2-2.9,26.8-8.7
		C1019,420.9,1025,413.1,1029.3,403.1z"/>
</g>
<g class="st2">
	<path class="st0" d="M78.2,130.4c-1.6,2.6-3.6,5.1-5.8,7.4s-4.9,4.3-7.8,6c-3.1,1.7-6.2,3.1-9.3,4c-3.1,0.9-6.8,1.3-10.9,1.3
		c-6.8,0-12.7-1-17.6-2.9c-4.9-1.9-9-4.5-12.2-7.8c-3.2-3.3-5.6-7.1-7.2-11.6c-1.6-4.4-2.4-9.3-2.4-14.4c0-4.7,0.9-9.2,2.6-13.5
		c1.7-4.3,4.2-8.1,7.3-11.5c3.1-3.3,7.1-5.9,11.8-7.9c4.8-2,10.1-3,16-3c6.4,0,11.7,0.8,15.9,2.3s7.6,3.7,10.3,6.5
		c2.6,2.6,4.5,5.7,5.7,9.3c1.2,3.6,1.8,7.3,1.8,11.2v4.5H29.8c0,9.4,1.8,16.6,5.4,21.5c3.6,4.9,9.4,7.4,17.3,7.4
		c4.3,0,8.2-1.2,11.7-3.6c3.4-2.4,6.4-5.4,8.8-9L78.2,130.4z M51.9,104.2c0-2.8-0.1-5.6-0.4-8.5c-0.3-2.9-0.8-5.3-1.4-7.1
		c-0.8-2.2-1.9-3.8-3.2-4.9c-1.4-1.1-3.1-1.7-5.1-1.7c-3.5,0-6.4,1.8-8.5,5.4c-2.1,3.6-3.3,9.3-3.4,17L51.9,104.2z"/>
	<path class="st0" d="M116.8,149.3c-4.5,0-8.8-0.7-13.1-2c-4.3-1.3-7.6-2.7-9.9-4.2l-2.1,4.7h-5.4l-0.9-25.7h5
		c0.7,2.1,1.8,4.4,3.4,7c1.6,2.6,3.4,4.9,5.5,7c2.2,2.1,4.6,3.8,7.4,5.2c2.8,1.4,5.8,2.1,8.9,2.1c4.2,0,7.3-0.8,9.3-2.4
		c2-1.6,3.1-4.1,3.1-7.6c0-1.8-0.5-3.4-1.4-4.6c-0.9-1.2-2.2-2.2-3.8-3.1c-1.8-0.9-3.8-1.7-5.9-2.3c-2.1-0.6-4.8-1.4-7.9-2.3
		c-3.1-0.9-5.8-1.8-8-2.8c-2.2-0.9-4.5-2.4-6.9-4.4c-2.1-1.8-3.7-4-5-6.5s-1.9-5.5-1.9-9c0-6.5,2.7-11.7,8.2-15.7
		c5.4-4,12.6-6,21.4-6c4.2,0,8,0.4,11.6,1.3c3.5,0.9,6.5,1.8,8.9,2.8l1.4-4.1h5.2l1.1,23.5h-4.8c-1.6-4.8-4.4-8.9-8.3-12.4
		c-3.9-3.5-8.1-5.2-12.6-5.2c-3.5,0-6.3,0.7-8.3,2.2c-2,1.5-3,3.5-3,6.1c0,3.5,1.5,6,4.4,7.6c3,1.6,7.1,3,12.4,4.4
		c8.2,2.1,14.2,5,18,8.7c3.8,3.7,5.7,8.3,5.7,14c0,7.5-3,13.4-8.9,17.5C134,147.2,126.3,149.3,116.8,149.3z"/>
	<path class="st0" d="M208.6,143.7c-2.9,1.3-6.1,2.4-9.4,3.5c-3.4,1-7.4,1.6-12.3,1.6c-7.2,0-12.5-1.7-16-5.2
		c-3.5-3.5-5.2-8.5-5.2-14.9V86.3h-12.4v-7.5h12.7V57.9h22.3v20.9h19.4v7.5h-19.2V124c0,5.4,0.7,9.2,2.2,11.4
		c1.5,2.2,4.2,3.4,8.1,3.4c1.2,0,3-0.1,5.2-0.3c2.2-0.2,3.8-0.4,4.6-0.6V143.7z"/>
	<path class="st0" d="M246.2,135.5c0,3.6-1.3,6.8-4,9.4c-2.7,2.7-5.9,4-9.6,4c-3.7,0-6.9-1.3-9.6-4c-2.7-2.6-4-5.8-4-9.5
		s1.3-6.9,4-9.6c2.7-2.7,5.9-4,9.6-4c3.7,0,6.9,1.4,9.6,4.1C244.9,128.7,246.2,131.8,246.2,135.5z"/>
</g>
<text transform="matrix(1 0 0 1 1159.4226 -704.9579)" class="st0" style="font-family:'Georgia-Bold'; font-size:494.0601px;">1970</text>
<text transform="matrix(1 0 0 1 1183.7224 -1006.2422)" class="st0" style="font-family:'Georgia-Bold'; font-size:141.2228px;">est.</text>
</svg>
