<?xml version="1.0" encoding="utf-8"?>
<!-- Generator: Adobe Illustrator 23.0.3, SVG Export Plug-In . SVG Version: 6.00 Build 0)  -->
<svg version="1.1" id="Layer_1" xmlns="http://www.w3.org/2000/svg" xmlns:xlink="http://www.w3.org/1999/xlink" x="0px" y="0px"
	 viewBox="0 0 891 597" style="enable-background:new 0 0 891 597;" xml:space="preserve">
<style type="text/css">
	.st0{fill:#98322C;}
</style>
<g>
	<path class="st0" d="M210.5,279H10.3v-18.4c4.9-0.3,12.6-1.1,23.2-2.4c10.6-1.3,17.8-2.6,21.7-3.9c4.9-1.6,8.7-4.4,11.4-8.2
		c2.7-3.9,4.1-9.2,4.1-16V76.1H9.4V53.1h13.3c14.1,0,26.2-1.5,36.5-4.6c10.3-3.1,18.8-6.8,25.6-11.2c7-4.5,12.7-9.2,17.1-14.1
		c4.4-4.9,8-9.1,10.6-12.9h42.7c-0.5,10.5-1,22.8-1.5,36.9C153.2,61.3,153,74,153,85.1v142.2c0,5.8,1.2,10.9,3.8,15.2
		c2.5,4.3,6.1,7.6,10.8,9.8c4.2,1.9,11.2,3.7,21.1,5.3c9.9,1.6,17.1,2.6,21.8,2.9V279z"/>
	<path class="st0" d="M458.2,164c12.1,8.1,22.3,19,30.6,32.6c8.2,13.7,12.4,30.6,12.4,50.8c0,35.6-13.8,64.7-41.4,87.2
		c-27.6,22.6-62.8,33.8-105.7,33.8c-33.2,0-60.8-7.1-83-21.4c-22.2-14.2-33.2-31.1-33.2-50.5c0-11.5,3.7-21.2,11-29.1
		c7.4-7.9,17.2-11.9,29.5-11.9c12.8,0,23.3,3.4,31.4,10.3c8.2,6.9,12.3,16.1,12.3,27.5c0,8.1-1.4,16.9-4.1,26.4
		c-2.8,9.5-5,16.8-6.8,21.8c3.9,1.5,8.4,2.5,13.6,3.3c5.2,0.7,10,1.1,14.6,1.1c9.2,0,18.3-2.1,27.2-6.2c8.9-4.1,16.5-10.2,22.8-18.1
		c7.3-9.1,12.8-19.8,16.5-32.1c3.7-12.4,5.6-26.4,5.6-42.1c0-22.8-6.1-41.5-18.3-56.2c-12.2-14.6-28.1-22-47.5-22
		c-15.1,0-27.7,3-37.9,9.1c-10.2,6.1-19.4,14-27.5,23.9l-18.7-6.3L285,17.7h205v67H302.6l-10.1,80.1c8.7-5.5,20-10.7,33.7-15.8
		c13.7-5,29.9-7.5,48.5-7.5c14.4,0,28.6,1.6,42.6,4.7C431.3,149.3,445,155.2,458.2,164z"/>
	<path class="st0" d="M809.3,52.9c12.3,12.9,21.4,27.7,27.3,44.3c5.9,16.6,8.9,33.8,8.9,51.6c0,21.2-3.7,40.3-11,57.4
		c-7.4,17.1-17.4,31.5-30.2,43.3c-13.4,12.3-29,21.7-46.8,28.1c-17.8,6.5-38.3,9.7-61.4,9.7c-24.4,0-46-3.8-64.7-11.4
		c-18.7-7.6-34.3-17.6-46.7-30.1c-12.3-12.3-21.6-26.8-28-43.4c-6.4-16.7-9.6-34.5-9.6-53.6c0-18.9,3-36.5,9.1-52.7
		c6.1-16.2,15.4-30.8,28-43.9c12.3-12.8,27.9-23,46.8-30.7c18.9-7.7,40.7-11.5,65.3-11.5c25.4,0,47.6,4,66.5,11.9
		C781.7,29.7,797.2,40.1,809.3,52.9z M740.9,233.6c4.7-10.8,8-22.9,10.1-36.3c2-13.3,3-29.6,3-48.6c0-17.1-0.9-32.6-2.8-46.3
		c-1.9-13.7-5-26-9.3-36.6c-4.5-11-10.5-19.5-18-25.5c-7.4-6-16.6-9-27.4-9c-11,0-20.2,3-27.7,8.9c-7.4,5.9-13.5,14.3-18.2,25.1
		c-4.2,9.9-7.3,22-9.2,36.3c-1.9,14.3-2.9,30-2.9,47.2c0,18,0.8,33.2,2.5,45.9c1.7,12.6,4.8,24.7,9.3,36.4c4,10.5,9.9,19,17.5,25.5
		c7.6,6.5,17,9.7,28.1,9.7c10.4,0,19.3-2.9,26.9-8.7C730.6,251.6,736.5,243.7,740.9,233.6z"/>
</g>
<g>
	<path class="st0" d="M575,350.7c-2,0.3-4,1.1-5.9,2.3s-3.5,3.1-4.8,5.7c-3.9,8.2-7.9,17-12,26.3c-4.1,9.3-8.7,19.4-13.7,30.2
		c-2.8,6.1-5.5,10.9-8.1,14.5c-2.6,3.6-5.1,6.4-7.4,8.3c-2.2,1.8-4.3,3.1-6.4,3.9s-4.3,1.2-6.4,1.2c-4.3,0-7.8-1.2-10.4-3.6
		c-2.6-2.4-4-5.1-4-8.1c0-1.3,0.1-2.4,0.4-3.5c0.3-1.1,0.9-2.2,1.9-3.4c0.7-1,1.8-1.8,3.4-2.5c1.5-0.7,3.2-1.1,5.1-1.1
		c2.5,0,5,0.9,7.3,2.6c2.3,1.8,4.7,4.2,7.2,7.3c1.5-1.5,3.3-3.7,5.5-6.7s3.8-6,4.8-9.2c-5.4-11.3-10.2-21.1-14.3-29.4
		c-4.2-8.3-8.8-17.6-14-27.8c-1.1-2.2-2.6-3.9-4.5-5.1c-1.9-1.2-3.9-1.9-6-2.2v-5H534v5c-1.5,0-3.3,0.4-5.3,1c-2,0.6-3,1.4-3,2.4
		c0,0.4,0.1,0.8,0.2,1.2c0.1,0.4,0.4,1.1,0.7,1.9c1.5,3.2,3.7,7.5,6.5,13.2c2.8,5.6,6.1,12.2,9.9,19.7c2.8-6.4,5.2-11.9,7.1-16.5
		c2-4.6,3.9-9.2,5.7-13.6c0.5-1.1,0.7-2,0.8-2.7c0.1-0.7,0.1-1.1,0.1-1.3c0-0.8-0.4-1.5-1.2-2.1c-0.8-0.6-1.7-1.1-2.8-1.6
		c-1.1-0.5-2.2-0.8-3.2-1c-1-0.2-1.9-0.4-2.6-0.5v-5h28V350.7z"/>
	<path class="st0" d="M649.4,396.8c-1.6,2.6-3.5,5-5.7,7.3c-2.2,2.3-4.8,4.2-7.6,5.9c-3,1.7-6.1,3-9.2,3.9
		c-3.1,0.9-6.7,1.3-10.7,1.3c-6.7,0-12.5-1-17.3-2.9s-8.9-4.5-12-7.7s-5.5-7-7.1-11.4c-1.6-4.4-2.3-9.1-2.3-14.2
		c0-4.6,0.8-9,2.5-13.3c1.7-4.2,4.1-8,7.2-11.3c3.1-3.2,7-5.8,11.6-7.8c4.7-2,9.9-3,15.7-3c6.3,0,11.5,0.8,15.6,2.3
		s7.4,3.7,10.1,6.4c2.6,2.6,4.5,5.6,5.6,9.1c1.2,3.5,1.8,7.2,1.8,11v4.4h-45.9c0,9.3,1.8,16.3,5.4,21.2c3.6,4.8,9.3,7.3,17,7.3
		c4.3,0,8.1-1.2,11.5-3.5c3.4-2.3,6.3-5.3,8.7-8.9L649.4,396.8z M623.4,371c0-2.7-0.1-5.5-0.4-8.3s-0.7-5.2-1.4-7
		c-0.8-2.1-1.8-3.7-3.2-4.8c-1.3-1.1-3-1.6-5.1-1.6c-3.5,0-6.3,1.8-8.3,5.3c-2.1,3.5-3.2,9.1-3.4,16.8L623.4,371z"/>
	<path class="st0" d="M733.5,411.6c-2,0.9-4.3,1.7-7,2.4c-2.7,0.7-5.6,1.1-8.6,1.1c-5.6,0-9.6-0.8-12.3-2.5c-2.6-1.7-4.4-4-5.4-7.1
		h-0.4c-1.5,1.5-3,2.9-4.5,3.9s-3,2-4.6,2.8c-2.1,1-4.2,1.7-6.2,2.2c-2,0.5-4.7,0.7-8.3,0.7c-5.3,0-9.7-1.6-13.5-4.7
		c-3.7-3.1-5.6-7.2-5.6-12.3c0-2.9,0.4-5.4,1.2-7.5c0.8-2.1,2-3.9,3.5-5.5c1.4-1.5,2.9-2.7,4.7-3.6c1.8-1,3.8-1.8,5.9-2.7
		c4.1-1.5,9-3,14.7-4.7c5.7-1.6,9.9-3,12.5-4.3v-6.5c0-1.1-0.1-2.6-0.3-4.5c-0.2-1.9-0.6-3.4-1.2-4.7c-0.6-1.4-1.6-2.7-3-3.7
		s-3.1-1.5-5.4-1.5c-2,0-3.7,0.3-5,0.8c-1.3,0.6-2.4,1.1-3.2,1.7c0.1,0.9,0.5,2.3,1.2,4.1c0.6,1.9,1,3.6,1,5.4
		c0,0.8-0.2,1.7-0.6,2.9c-0.4,1.2-1,2.1-1.8,2.7c-1,0.9-2.2,1.6-3.5,2.1c-1.3,0.5-3.3,0.7-6,0.7c-3.8,0-6.7-0.9-8.6-2.7
		c-2-1.8-2.9-4.2-2.9-7.2c0-2.5,1-4.8,3-6.8c2-2,4.5-3.7,7.4-5c2.9-1.4,6.1-2.4,9.8-3.2c3.7-0.7,7.1-1.1,10.3-1.1
		c4.4,0,8.4,0.3,12.1,0.8c3.7,0.5,7,1.6,9.9,3.2c2.8,1.6,5,3.9,6.7,6.9c1.7,3,2.5,6.9,2.5,11.8c0,5.1-0.1,11.2-0.3,18.2
		s-0.3,11.6-0.3,13.8c0,2,0.3,3.6,0.9,4.8c0.6,1.2,1.5,2.1,2.8,2.6c0.8,0.4,2,0.6,3.6,0.6c1.7,0.1,3.2,0.1,4.5,0.1V411.6z
		 M699.8,376.2c-2.5,0.9-5.1,1.8-7.6,3s-4.5,2.3-6.1,3.5c-1.7,1.3-3,2.9-3.9,4.9c-1,2-1.4,4.3-1.4,7c0,3.5,0.8,6.1,2.4,7.7
		c1.6,1.6,3.6,2.4,6,2.4c2.5,0,4.6-0.5,6.2-1.5c1.6-1,3-2.3,4.3-3.8L699.8,376.2z"/>
	<path class="st0" d="M806.3,358.1c0,3.4-1.1,6.5-3.2,9.1c-2.1,2.6-4.9,3.9-8.4,3.9c-3.3,0-6.1-0.8-8.4-2.5
		c-2.3-1.7-3.4-4.1-3.4-7.4c0-1.6,0.1-2.8,0.3-3.7c0.2-0.9,0.4-1.7,0.6-2.5c-2.1,0.1-4.3,0.8-6.6,2.2c-2.3,1.3-4.3,3.1-6.1,5.4v37.3
		c0,1.6,0.2,2.9,0.7,3.9c0.5,1,1.3,1.9,2.5,2.4c1,0.5,2.6,0.9,4.9,1.3c2.2,0.3,3.9,0.5,4.9,0.6v5h-45.4v-5c1.1-0.1,2.3-0.2,3.4-0.4
		c1.2-0.2,2.1-0.4,3-0.6c1.4-0.5,2.4-1.3,3-2.3c0.5-1,0.8-2.4,0.8-4.1v-39.5c0-1.6-0.4-3.1-1.2-4.4c-0.8-1.3-1.7-2.3-2.8-3.1
		c-0.8-0.5-1.8-1-3.1-1.4c-1.2-0.4-2.6-0.6-4.1-0.7v-5l32.4-1.8l1,1v9.8h0.3c3.1-3.6,6.4-6.5,9.9-8.5c3.5-2.1,7.2-3.1,11-3.1
		c4.2,0,7.6,1.3,10.1,3.9C805,350.6,806.3,354,806.3,358.1z"/>
	<path class="st0" d="M842.4,415.3c-4.4,0-8.7-0.6-12.9-1.9c-4.2-1.3-7.4-2.7-9.7-4.1l-2,4.6h-5.3l-0.9-25.3h5
		c0.7,2,1.8,4.3,3.4,6.9c1.6,2.6,3.4,4.9,5.4,6.9c2.1,2,4.6,3.8,7.3,5.2c2.7,1.4,5.7,2.1,8.8,2.1c4.1,0,7.2-0.8,9.2-2.4
		c2-1.6,3-4.1,3-7.4c0-1.8-0.5-3.3-1.4-4.5c-0.9-1.2-2.2-2.2-3.7-3.1c-1.8-0.9-3.7-1.7-5.8-2.3c-2.1-0.6-4.7-1.4-7.8-2.3
		c-3.1-0.9-5.7-1.8-7.9-2.7c-2.2-0.9-4.5-2.4-6.8-4.4c-2-1.8-3.7-3.9-4.9-6.4s-1.8-5.5-1.8-8.9c0-6.4,2.7-11.5,8-15.5
		s12.4-5.9,21.1-5.9c4.1,0,7.9,0.4,11.4,1.3c3.5,0.8,6.4,1.8,8.7,2.7l1.4-4h5.2l1.1,23.1h-4.8c-1.6-4.7-4.3-8.8-8.1-12.2
		c-3.8-3.4-8-5.1-12.4-5.1c-3.5,0-6.2,0.7-8.2,2.2c-2,1.4-3,3.5-3,6c0,3.4,1.5,5.9,4.4,7.5c2.9,1.5,7,3,12.2,4.3
		c8.1,2.1,14,4.9,17.8,8.5c3.7,3.6,5.6,8.2,5.6,13.7c0,7.4-2.9,13.2-8.7,17.2C859.3,413.3,851.8,415.3,842.4,415.3z"/>
	<path class="st0" d="M173,536.8c-1.6,2.6-3.5,5-5.7,7.3c-2.2,2.3-4.8,4.2-7.6,5.9c-3,1.7-6.1,3-9.2,3.9c-3.1,0.9-6.7,1.3-10.7,1.3
		c-6.7,0-12.5-1-17.3-2.9c-4.9-1.9-8.9-4.5-12-7.7c-3.2-3.2-5.5-7-7.1-11.4c-1.6-4.4-2.3-9.1-2.3-14.2c0-4.6,0.8-9,2.5-13.3
		c1.7-4.2,4.1-8,7.2-11.3c3.1-3.2,7-5.8,11.6-7.8c4.7-2,9.9-3,15.7-3c6.3,0,11.5,0.8,15.6,2.3s7.4,3.7,10.1,6.4
		c2.6,2.6,4.5,5.6,5.6,9.1c1.2,3.5,1.8,7.2,1.8,11v4.4h-45.9c0,9.3,1.8,16.3,5.4,21.2s9.3,7.3,17,7.3c4.3,0,8.1-1.2,11.5-3.5
		c3.4-2.3,6.3-5.3,8.7-8.9L173,536.8z M147,511c0-2.7-0.1-5.5-0.4-8.3s-0.7-5.2-1.4-7c-0.8-2.1-1.8-3.7-3.2-4.8
		c-1.3-1.1-3-1.6-5.1-1.6c-3.5,0-6.3,1.8-8.3,5.3c-2.1,3.5-3.2,9.1-3.4,16.8L147,511z"/>
	<path class="st0" d="M256.9,553h-42.4v-5c2.2-0.1,4.1-0.3,5.6-0.6c1.5-0.2,2.2-0.8,2.2-1.5c0-0.4-0.2-0.9-0.6-1.7
		c-0.4-0.8-0.9-1.6-1.5-2.6c-0.9-1.4-2.3-3.6-4.5-6.7c-2.1-3-4.1-5.9-5.9-8.4c-2.6,3-4.8,5.6-6.6,7.8c-1.8,2.2-3.6,4.5-5.6,7
		c-0.7,0.8-1.2,1.6-1.4,2.2s-0.4,1.1-0.4,1.2c0,1,0.7,1.8,2.2,2.4c1.5,0.5,3.2,0.8,5.3,0.8v5h-27.6v-5c3.7-0.8,6.6-2,8.8-3.7
		s3.7-3,4.5-3.9c3.3-3.5,6.1-6.5,8.4-8.8c2.3-2.3,5.4-5.6,9.2-9.9c-2.6-3.6-5.7-7.9-9.4-13.1c-3.7-5.1-6.7-9.4-9.2-12.6
		c-1.2-1.6-2.7-2.9-4.5-3.8c-1.8-0.9-4.1-1.5-6.9-1.7v-5h41.5v5c-1.5,0-3,0.1-4.4,0.3c-1.4,0.2-2.2,0.5-2.2,1c0,0.4,0.1,0.8,0.3,1.4
		s0.5,1.1,0.9,1.7c0.9,1.4,2.2,3.6,4.1,6.4s3.8,5.7,6,8.8c2-2.5,3.7-4.5,5.1-6.1s3.2-3.8,5.3-6.7c0.8-1.1,1.3-1.9,1.5-2.4
		s0.3-0.9,0.3-1c0-0.8-0.5-1.5-1.5-2.1c-1-0.6-2.9-1-5.7-1.1v-5h27v5c-2.2,0.4-4.4,1.1-6.4,2.2c-2.1,1.1-4.3,2.9-6.5,5.3
		c-3.5,3.7-6.1,6.3-7.7,8s-4.3,4.5-8,8.4c2.1,2.9,5.1,7.2,9,12.8c3.9,5.6,7.3,10.3,10.2,14.2c1.2,1.7,2.6,3.1,4.1,4.2
		c1.5,1.1,3.9,1.8,7.2,2.2V553z"/>
	<path class="st0" d="M343.9,520c0,9.5-3.2,17.7-9.6,24.6s-14.4,10.2-24.2,10.2c-4.3,0-7.9-0.4-10.6-1.3c-2.7-0.9-4.9-2-6.7-3.2
		h-0.5v19.1c0,1.6,0.3,3,1.1,4.1c0.7,1.2,1.7,2,3,2.6c1.2,0.5,3,1,5.2,1.4s4.1,0.7,5.6,0.7v5H258v-5c1.1-0.1,2.6-0.3,4.3-0.5
		c1.7-0.2,3-0.5,3.9-0.8c1.4-0.5,2.4-1.3,3-2.5c0.5-1.2,0.8-2.6,0.8-4.1v-69.4c-0.1-1.5-0.5-2.8-1.1-3.9c-0.6-1.1-1.5-2.1-2.7-3
		c-0.9-0.6-2.1-1.1-3.6-1.5c-1.5-0.4-3-0.6-4.4-0.8v-5l33.1-1.8l1,0.9v7.5l0.5,0.1c3-3,6.3-5.4,9.9-7.1c3.6-1.7,7.2-2.5,10.8-2.5
		c9.4,0,16.7,3.3,22.2,9.9C341.2,500.4,343.9,509.2,343.9,520z M319.5,520.2c0-3.4-0.2-6.6-0.7-9.7c-0.5-3.1-1.4-5.9-2.6-8.3
		c-1.2-2.4-2.8-4.4-4.8-5.8c-2-1.4-4.5-2.2-7.3-2.2c-2.9,0-5.3,0.5-7,1.5c-1.8,1-3.3,2.3-4.6,4v38.5c0.3,0.9,0.8,2.1,1.6,3.5
		c0.8,1.4,1.5,2.6,2.3,3.4c1.1,1.2,2.4,2.1,3.9,2.7c1.4,0.6,3,0.9,4.7,0.9c4.5,0,8-2.4,10.7-7.2
		C318.2,536.6,319.5,529.6,319.5,520.2z"/>
	<path class="st0" d="M425.6,536.8c-1.6,2.6-3.5,5-5.7,7.3c-2.2,2.3-4.8,4.2-7.6,5.9c-3,1.7-6.1,3-9.2,3.9
		c-3.1,0.9-6.7,1.3-10.7,1.3c-6.7,0-12.5-1-17.3-2.9c-4.9-1.9-8.9-4.5-12-7.7c-3.2-3.2-5.5-7-7.1-11.4c-1.6-4.4-2.3-9.1-2.3-14.2
		c0-4.6,0.8-9,2.5-13.3c1.7-4.2,4.1-8,7.2-11.3c3.1-3.2,7-5.8,11.6-7.8c4.7-2,9.9-3,15.7-3c6.3,0,11.5,0.8,15.6,2.3
		s7.4,3.7,10.1,6.4c2.6,2.6,4.5,5.6,5.6,9.1c1.2,3.5,1.8,7.2,1.8,11v4.4h-45.9c0,9.3,1.8,16.3,5.4,21.2s9.3,7.3,17,7.3
		c4.3,0,8.1-1.2,11.5-3.5c3.4-2.3,6.3-5.3,8.7-8.9L425.6,536.8z M399.7,511c0-2.7-0.1-5.5-0.4-8.3s-0.7-5.2-1.4-7
		c-0.8-2.1-1.8-3.7-3.2-4.8c-1.3-1.1-3-1.6-5.1-1.6c-3.5,0-6.3,1.8-8.3,5.3c-2.1,3.5-3.2,9.1-3.4,16.8L399.7,511z"/>
	<path class="st0" d="M499.7,498.1c0,3.4-1.1,6.5-3.2,9.1c-2.1,2.6-4.9,3.9-8.4,3.9c-3.3,0-6.1-0.8-8.4-2.5
		c-2.3-1.7-3.4-4.1-3.4-7.4c0-1.6,0.1-2.8,0.3-3.7c0.2-0.9,0.4-1.7,0.6-2.5c-2.1,0.1-4.3,0.8-6.6,2.2c-2.3,1.3-4.3,3.1-6.1,5.4v37.3
		c0,1.6,0.2,2.9,0.7,3.9c0.5,1,1.3,1.9,2.5,2.4c1,0.5,2.6,0.9,4.9,1.3c2.2,0.3,3.9,0.5,4.9,0.6v5h-45.4v-5c1.1-0.1,2.3-0.2,3.4-0.4
		c1.2-0.2,2.1-0.4,3-0.6c1.4-0.5,2.4-1.3,3-2.3c0.5-1,0.8-2.4,0.8-4.1v-39.5c0-1.6-0.4-3.1-1.2-4.4c-0.8-1.3-1.7-2.3-2.8-3.1
		c-0.8-0.5-1.8-1-3.1-1.4c-1.2-0.4-2.6-0.6-4.1-0.7v-5l32.4-1.8l1,1v9.8h0.3c3.1-3.6,6.4-6.5,9.9-8.5c3.5-2.1,7.2-3.1,11-3.1
		c4.2,0,7.6,1.3,10.1,3.9C498.4,490.6,499.7,494,499.7,498.1z"/>
	<path class="st0" d="M547.3,553h-42.9v-5c1.2-0.1,2.3-0.2,3.5-0.3s2.1-0.4,2.9-0.7c1.4-0.5,2.5-1.3,3.1-2.3c0.6-1,0.9-2.4,0.9-4
		v-39.5c0-1.6-0.4-3-1.1-4.2c-0.7-1.2-1.6-2.2-2.7-2.9c-0.8-0.5-2-1.1-3.7-1.6c-1.7-0.5-3.2-0.8-4.5-1v-5l33.3-1.8l1,1v53.9
		c0,1.6,0.3,2.9,1,4c0.7,1.1,1.7,1.9,2.9,2.5c0.9,0.4,1.9,0.8,3,1.1s2.2,0.5,3.4,0.7V553z M537.4,460.5c0,3.4-1.3,6.4-4,8.8
		c-2.6,2.4-5.8,3.6-9.4,3.6c-3.7,0-6.8-1.2-9.5-3.6c-2.6-2.4-4-5.4-4-8.8c0-3.4,1.3-6.4,4-8.8c2.6-2.4,5.8-3.7,9.5-3.7
		s6.8,1.2,9.4,3.7C536.1,454.1,537.4,457,537.4,460.5z"/>
	<path class="st0" d="M626.5,536.8c-1.6,2.6-3.5,5-5.7,7.3c-2.2,2.3-4.8,4.2-7.6,5.9c-3,1.7-6.1,3-9.2,3.9
		c-3.1,0.9-6.7,1.3-10.7,1.3c-6.7,0-12.5-1-17.3-2.9c-4.9-1.9-8.9-4.5-12-7.7c-3.2-3.2-5.5-7-7.1-11.4c-1.6-4.4-2.3-9.1-2.3-14.2
		c0-4.6,0.8-9,2.5-13.3c1.7-4.2,4.1-8,7.2-11.3c3.1-3.2,7-5.8,11.6-7.8s9.9-3,15.7-3c6.3,0,11.5,0.8,15.6,2.3s7.4,3.7,10.1,6.4
		c2.6,2.6,4.5,5.6,5.6,9.1c1.2,3.5,1.8,7.2,1.8,11v4.4h-45.9c0,9.3,1.8,16.3,5.4,21.2c3.6,4.8,9.3,7.3,17,7.3
		c4.3,0,8.1-1.2,11.5-3.5c3.4-2.3,6.3-5.3,8.7-8.9L626.5,536.8z M600.6,511c0-2.7-0.1-5.5-0.4-8.3s-0.7-5.2-1.4-7
		c-0.8-2.1-1.8-3.7-3.2-4.8s-3-1.6-5.1-1.6c-3.5,0-6.3,1.8-8.3,5.3c-2.1,3.5-3.2,9.1-3.4,16.8L600.6,511z"/>
	<path class="st0" d="M722.6,553h-40.8v-5c0.9-0.1,1.9-0.2,3.1-0.3c1.2-0.1,2.1-0.4,2.8-0.7c1-0.5,1.6-1.2,2-2.2s0.6-2.4,0.6-4.2
		v-31.8c0-4.6-0.9-8.1-2.6-10.4c-1.7-2.3-4.2-3.5-7.5-3.5c-1.8,0-3.5,0.3-5.1,0.8c-1.6,0.5-3.1,1.3-4.6,2.4
		c-1.3,0.9-2.4,1.8-3.2,2.8s-1.5,1.8-2,2.5v36.4c0,1.6,0.2,2.9,0.7,4c0.5,1.1,1.2,1.9,2.2,2.4c0.7,0.4,1.6,0.8,2.7,1.1
		s2.1,0.5,3.2,0.7v5H633v-5c1.1-0.1,2.3-0.2,3.4-0.4c1.2-0.2,2.1-0.4,3-0.6c1.4-0.5,2.4-1.3,3-2.3c0.5-1,0.8-2.4,0.8-4.1v-39.5
		c0-1.4-0.4-2.8-1.1-4.1s-1.7-2.5-2.9-3.3c-0.8-0.5-1.8-1-3.1-1.4c-1.2-0.4-2.6-0.6-4.1-0.7v-5l32.4-1.8l1,1v9.8h0.3
		c1.3-1.1,2.8-2.5,4.6-4.1c1.8-1.6,3.5-2.9,5-3.9c1.7-1.1,3.9-2,6.6-2.8c2.7-0.8,5.6-1.2,8.7-1.2c7.4,0,12.9,2.1,16.6,6.3
		c3.7,4.2,5.5,9.7,5.5,16.7v33.3c0,1.7,0.2,3,0.7,4c0.5,1,1.4,1.8,2.8,2.4c0.7,0.3,1.6,0.6,2.7,1c1.1,0.3,2.3,0.5,3.6,0.7V553z"/>
	<path class="st0" d="M767.7,555.2c-6.3,0-11.8-0.9-16.7-2.7c-4.8-1.8-8.8-4.3-11.9-7.5c-3.1-3.2-5.5-7-7-11.4
		c-1.5-4.4-2.3-9.2-2.3-14.3c0-4.7,0.9-9.2,2.8-13.4c1.9-4.3,4.4-8,7.6-11.2c3.3-3.3,7.4-5.9,12.3-7.9c4.9-2,10.3-3,16.3-3
		c8.3,0,14.9,1.6,19.8,4.7c4.8,3.1,7.3,7.4,7.3,12.7c0,3.3-0.9,5.9-2.6,7.9c-1.7,2-4.7,3-8.9,3c-3.4,0-6.2-0.8-8.5-2.4
		c-2.3-1.6-3.4-3.8-3.4-6.4c0-2.2,0.4-4.4,1.1-6.6c0.7-2.2,1.2-3.8,1.3-5c-0.5-0.8-1.1-1.4-1.9-1.9c-0.8-0.4-2-0.6-3.6-0.6
		c-2,0-3.9,0.5-5.6,1.4s-3.2,2.6-4.7,5c-1.4,2.3-2.5,5.3-3.4,9.1c-0.8,3.8-1.3,8.4-1.3,13.7c0,8.1,1.9,14.5,5.7,19.5
		c3.8,4.9,8.3,7.4,13.5,7.4c5,0,9-1.1,12-3.4c3-2.2,5.6-5.4,7.9-9.5l5.1,3.5c-1.4,2.8-3.1,5.3-5,7.6c-1.9,2.3-4.3,4.3-7,6.1
		c-2.9,1.9-5.7,3.3-8.7,4.2C775,554.7,771.6,555.2,767.7,555.2z"/>
	<path class="st0" d="M875.7,536.8c-1.6,2.6-3.5,5-5.7,7.3c-2.2,2.3-4.8,4.2-7.6,5.9c-3,1.7-6.1,3-9.2,3.9
		c-3.1,0.9-6.7,1.3-10.7,1.3c-6.7,0-12.5-1-17.3-2.9c-4.9-1.9-8.9-4.5-12-7.7s-5.5-7-7.1-11.4c-1.6-4.4-2.3-9.1-2.3-14.2
		c0-4.6,0.8-9,2.5-13.3c1.7-4.2,4.1-8,7.2-11.3c3.1-3.2,7-5.8,11.6-7.8s9.9-3,15.7-3c6.3,0,11.5,0.8,15.6,2.3s7.4,3.7,10.1,6.4
		c2.6,2.6,4.5,5.6,5.6,9.1c1.2,3.5,1.8,7.2,1.8,11v4.4H828c0,9.3,1.8,16.3,5.4,21.2c3.6,4.8,9.3,7.3,17,7.3c4.3,0,8.1-1.2,11.5-3.5
		c3.4-2.3,6.3-5.3,8.7-8.9L875.7,536.8z M849.8,511c0-2.7-0.1-5.5-0.4-8.3s-0.7-5.2-1.4-7c-0.8-2.1-1.8-3.7-3.2-4.8
		c-1.3-1.1-3-1.6-5.1-1.6c-3.5,0-6.3,1.8-8.3,5.3c-2.1,3.5-3.2,9.1-3.4,16.8L849.8,511z"/>
</g>
</svg>
