<?xml version="1.0" encoding="utf-8"?>
<!-- Generator: Adobe Illustrator 23.0.3, SVG Export Plug-In . SVG Version: 6.00 Build 0)  -->
<svg version="1.1" id="Layer_1" xmlns="http://www.w3.org/2000/svg" xmlns:xlink="http://www.w3.org/1999/xlink" x="0px" y="0px"
	 viewBox="0 0 943 530" style="enable-background:new 0 0 943 530;" xml:space="preserve">
<style type="text/css">
	.st0{fill:#98322C;}
</style>
<g>
	<path class="st0" d="M325.1,516h-42.9v-5c1.2-0.1,2.3-0.2,3.5-0.3c1.1-0.1,2.1-0.4,2.9-0.7c1.4-0.5,2.5-1.3,3.1-2.3
		c0.6-1,0.9-2.4,0.9-4v-39.5c0-1.6-0.4-3-1.1-4.2c-0.7-1.2-1.6-2.2-2.7-2.9c-0.8-0.5-2-1.1-3.7-1.6s-3.2-0.8-4.5-1v-5l33.3-1.8l1,1
		v53.9c0,1.6,0.3,2.9,1,4c0.7,1.1,1.7,1.9,2.9,2.5c0.9,0.4,1.9,0.8,3,1.1s2.2,0.5,3.4,0.7V516z M315.2,423.5c0,3.4-1.3,6.4-4,8.8
		s-5.8,3.6-9.4,3.6c-3.7,0-6.8-1.2-9.5-3.6s-4-5.4-4-8.8c0-3.4,1.3-6.4,4-8.8s5.8-3.7,9.5-3.7c3.7,0,6.8,1.2,9.4,3.7
		C313.9,417.1,315.2,420,315.2,423.5z"/>
	<path class="st0" d="M421,516h-40.8v-5c0.9-0.1,1.9-0.2,3.1-0.3c1.2-0.1,2.1-0.4,2.8-0.7c1-0.5,1.6-1.2,2-2.2s0.6-2.4,0.6-4.2
		v-31.8c0-4.6-0.9-8.1-2.6-10.4c-1.7-2.3-4.2-3.5-7.5-3.5c-1.8,0-3.5,0.3-5.1,0.8c-1.6,0.5-3.1,1.3-4.6,2.4
		c-1.3,0.9-2.4,1.8-3.2,2.8c-0.8,1-1.5,1.8-2,2.5v36.4c0,1.6,0.2,2.9,0.7,4c0.5,1.1,1.2,1.9,2.2,2.4c0.7,0.4,1.6,0.8,2.7,1.1
		s2.1,0.5,3.2,0.7v5h-41.3v-5c1.1-0.1,2.3-0.2,3.4-0.4c1.2-0.2,2.1-0.4,3-0.6c1.4-0.5,2.4-1.3,3-2.3c0.5-1,0.8-2.4,0.8-4.1v-39.5
		c0-1.4-0.4-2.8-1.1-4.1c-0.7-1.4-1.7-2.5-2.9-3.3c-0.8-0.5-1.8-1-3.1-1.4c-1.2-0.4-2.6-0.6-4.1-0.7v-5l32.4-1.8l1,1v9.8h0.3
		c1.3-1.1,2.8-2.5,4.6-4.1c1.8-1.6,3.5-2.9,5-3.9c1.7-1.1,3.9-2,6.6-2.8c2.7-0.8,5.6-1.2,8.7-1.2c7.4,0,12.9,2.1,16.6,6.3
		c3.7,4.2,5.5,9.7,5.5,16.7v33.3c0,1.7,0.2,3,0.7,4c0.5,1,1.4,1.8,2.8,2.4c0.7,0.3,1.6,0.6,2.7,1s2.3,0.5,3.6,0.7V516z"/>
	<path class="st0" d="M504.6,453.7c-2,0.3-4,1.1-5.9,2.3s-3.5,3.1-4.8,5.7c-3.2,6.6-6.3,13.3-9.3,20c-3.1,6.7-6.1,13.2-9,19.5
		c-0.9,1.9-1.9,4.3-3.1,7.3c-1.2,3-2.1,5.7-2.9,8.1h-12.5c-5.2-12.1-9.6-22.1-13.3-30.1c-3.7-8-7.6-16.5-11.7-25.7
		c-0.9-2.1-2.4-3.8-4.4-5s-4.1-2-6.1-2.2v-5h41.8v5c-1.5,0-3.3,0.4-5.4,1c-2.1,0.6-3.1,1.4-3.1,2.4c0,0.3,0.1,0.7,0.3,1.2
		c0.2,0.5,0.4,1.2,0.7,1.8c1.5,3.4,3.6,8.4,6.6,14.9s6,13.3,9.3,20.4c2.3-4.9,4.4-9.8,6.5-14.5s4.6-10.8,7.6-18.1
		c0.4-1.1,0.6-2,0.7-2.6c0.1-0.7,0.1-1.1,0.1-1.4c0-0.8-0.4-1.5-1.2-2.1c-0.8-0.6-1.7-1.1-2.8-1.6c-1.1-0.5-2.2-0.8-3.3-1
		c-1-0.2-1.9-0.4-2.6-0.5v-5h28V453.7z"/>
	<path class="st0" d="M579,499.8c-1.6,2.6-3.5,5-5.7,7.3c-2.2,2.3-4.8,4.2-7.6,5.9c-3,1.7-6.1,3-9.2,3.9c-3.1,0.9-6.7,1.3-10.7,1.3
		c-6.7,0-12.5-1-17.3-2.9c-4.9-1.9-8.9-4.5-12-7.7c-3.2-3.2-5.5-7-7.1-11.4c-1.6-4.4-2.3-9.1-2.3-14.2c0-4.6,0.8-9,2.5-13.3
		c1.7-4.2,4.1-8,7.2-11.3c3.1-3.2,7-5.8,11.6-7.8s9.9-3,15.7-3c6.3,0,11.5,0.8,15.6,2.3s7.4,3.7,10.1,6.4c2.6,2.6,4.5,5.6,5.6,9.1
		c1.2,3.5,1.8,7.2,1.8,11v4.4h-45.9c0,9.3,1.8,16.3,5.4,21.2c3.6,4.8,9.3,7.3,17,7.3c4.3,0,8.1-1.2,11.5-3.5
		c3.4-2.3,6.3-5.3,8.7-8.9L579,499.8z M553.1,474c0-2.7-0.1-5.5-0.4-8.3s-0.7-5.2-1.4-7c-0.8-2.1-1.8-3.7-3.2-4.8s-3-1.6-5.1-1.6
		c-3.5,0-6.3,1.8-8.3,5.3c-2.1,3.5-3.2,9.1-3.4,16.8L553.1,474z"/>
	<path class="st0" d="M617,518.3c-4.4,0-8.7-0.6-12.9-1.9c-4.2-1.3-7.4-2.7-9.7-4.1l-2,4.6H587l-0.9-25.3h5c0.7,2,1.8,4.3,3.4,6.9
		c1.6,2.6,3.4,4.9,5.4,6.9c2.1,2,4.6,3.8,7.3,5.2c2.7,1.4,5.7,2.1,8.8,2.1c4.1,0,7.2-0.8,9.2-2.4c2-1.6,3-4.1,3-7.4
		c0-1.8-0.5-3.3-1.4-4.5c-0.9-1.2-2.1-2.2-3.7-3.1c-1.8-0.9-3.7-1.7-5.8-2.3c-2.1-0.6-4.7-1.4-7.8-2.3c-3.1-0.9-5.7-1.8-7.9-2.7
		c-2.2-0.9-4.5-2.4-6.8-4.4c-2-1.8-3.7-3.9-4.9-6.4s-1.8-5.5-1.8-8.9c0-6.4,2.7-11.5,8-15.5s12.4-5.9,21.1-5.9
		c4.1,0,7.9,0.4,11.4,1.3c3.5,0.8,6.4,1.8,8.7,2.7l1.4-4h5.2L645,470h-4.8c-1.6-4.7-4.3-8.8-8.1-12.2c-3.8-3.4-8-5.1-12.4-5.1
		c-3.5,0-6.2,0.7-8.2,2.2c-2,1.4-3,3.5-3,6c0,3.4,1.5,5.9,4.4,7.5c2.9,1.5,7,3,12.2,4.3c8.1,2.1,14,4.9,17.8,8.5
		c3.7,3.6,5.6,8.2,5.6,13.7c0,7.4-2.9,13.2-8.7,17.2C633.9,516.3,626.3,518.3,617,518.3z"/>
	<path class="st0" d="M707.3,512.9c-2.9,1.3-6,2.4-9.3,3.4c-3.3,1-7.3,1.5-12.1,1.5c-7.1,0-12.3-1.7-15.7-5.2
		c-3.4-3.4-5.1-8.3-5.1-14.7v-41.6h-12.2V449h12.5v-20.6h22V449h19.1v7.4h-18.9v37.1c0,5.3,0.7,9,2.2,11.3c1.5,2.2,4.1,3.3,7.9,3.3
		c1.2,0,2.9-0.1,5.1-0.3c2.2-0.2,3.7-0.4,4.6-0.6V512.9z"/>
	<path class="st0" d="M781.3,456.7c3.3,3.1,5.9,6.9,7.7,11.2c1.8,4.3,2.6,9,2.6,14.1c0,5-0.9,9.8-2.6,14.2
		c-1.7,4.5-4.3,8.3-7.6,11.4c-3.6,3.4-7.8,6-12.8,7.8s-10.6,2.7-17,2.7c-5.5,0-10.6-0.8-15.2-2.4c-4.6-1.6-8.7-4-12.3-7.1
		c-3.4-3-6.2-6.8-8.1-11.2c-2-4.5-3-9.4-3-15c0-5.4,0.9-10.3,2.6-14.5c1.7-4.2,4.4-8,7.8-11.3c3.3-3.2,7.5-5.6,12.4-7.4
		c4.9-1.7,10.4-2.6,16.5-2.6c6.3,0,11.9,0.9,16.7,2.6C773.8,451.1,777.9,453.5,781.3,456.7z M764,503.7c1-2.5,1.7-5.6,2.2-9.2
		s0.7-7.8,0.7-12.6c0-3.2-0.2-6.8-0.7-10.9c-0.5-4.1-1.1-7.3-2-9.6c-1.1-2.9-2.6-5.1-4.5-6.7c-1.9-1.6-4.4-2.4-7.3-2.4
		c-3.2,0-5.8,0.9-7.7,2.6c-1.9,1.8-3.4,4-4.4,6.9c-1,2.6-1.6,5.6-2,9.1c-0.4,3.5-0.5,7.1-0.5,10.8c0,4.9,0.2,9,0.5,12.2
		c0.3,3.2,1.1,6.5,2.3,9.7c1,2.8,2.5,5,4.5,6.7s4.4,2.4,7.4,2.4c2.7,0,5-0.8,7-2.3C761.3,508.9,762.8,506.7,764,503.7z"/>
	<path class="st0" d="M868,461.1c0,3.4-1.1,6.5-3.2,9.1c-2.1,2.6-4.9,3.9-8.4,3.9c-3.3,0-6.1-0.8-8.4-2.5c-2.3-1.7-3.4-4.1-3.4-7.4
		c0-1.6,0.1-2.8,0.3-3.7c0.2-0.9,0.4-1.7,0.6-2.5c-2.1,0.1-4.3,0.8-6.6,2.2c-2.3,1.3-4.3,3.1-6.1,5.4v37.3c0,1.6,0.2,2.9,0.7,3.9
		c0.5,1,1.3,1.9,2.5,2.4c1,0.5,2.6,0.9,4.9,1.3c2.2,0.3,3.9,0.5,4.9,0.6v5h-45.4v-5c1.1-0.1,2.3-0.2,3.4-0.4c1.2-0.2,2.1-0.4,3-0.6
		c1.4-0.5,2.4-1.3,3-2.3c0.5-1,0.8-2.4,0.8-4.1v-39.5c0-1.6-0.4-3.1-1.2-4.4c-0.8-1.3-1.7-2.3-2.8-3.1c-0.8-0.5-1.8-1-3.1-1.4
		c-1.2-0.4-2.6-0.6-4.1-0.7v-5l32.4-1.8l1,1v9.8h0.3c3.1-3.6,6.4-6.5,9.9-8.5c3.5-2.1,7.2-3.1,11-3.1c4.2,0,7.6,1.3,10.1,3.9
		C866.7,453.6,868,457,868,461.1z"/>
	<path class="st0" d="M904.1,518.3c-4.4,0-8.7-0.6-12.9-1.9c-4.2-1.3-7.4-2.7-9.7-4.1l-2,4.6h-5.3l-0.9-25.3h5
		c0.7,2,1.8,4.3,3.4,6.9c1.6,2.6,3.4,4.9,5.4,6.9c2.1,2,4.6,3.8,7.3,5.2c2.7,1.4,5.7,2.1,8.8,2.1c4.1,0,7.2-0.8,9.2-2.4
		c2-1.6,3-4.1,3-7.4c0-1.8-0.5-3.3-1.4-4.5c-0.9-1.2-2.1-2.2-3.7-3.1c-1.8-0.9-3.7-1.7-5.8-2.3c-2.1-0.6-4.7-1.4-7.8-2.3
		c-3.1-0.9-5.7-1.8-7.9-2.7c-2.2-0.9-4.5-2.4-6.8-4.4c-2-1.8-3.7-3.9-4.9-6.4c-1.2-2.5-1.8-5.5-1.8-8.9c0-6.4,2.7-11.5,8-15.5
		c5.4-3.9,12.4-5.9,21.1-5.9c4.1,0,7.9,0.4,11.4,1.3c3.5,0.8,6.4,1.8,8.7,2.7l1.4-4h5.2l1.1,23.1h-4.8c-1.6-4.7-4.3-8.8-8.1-12.2
		c-3.8-3.4-8-5.1-12.4-5.1c-3.5,0-6.2,0.7-8.2,2.2c-2,1.4-3,3.5-3,6c0,3.4,1.5,5.9,4.4,7.5c2.9,1.5,7,3,12.2,4.3
		c8.1,2.1,14,4.9,17.8,8.5c3.8,3.6,5.6,8.2,5.6,13.7c0,7.4-2.9,13.2-8.7,17.2S913.5,518.3,904.1,518.3z"/>
</g>
<g>
	<path class="st0" d="M286.6,269.7c0,34.3-12.9,63-38.7,86.1c-25.8,23.1-58.8,34.7-98.9,34.7c-41.9,0-75.5-13.1-100.9-39.4
		C22.7,324.8,10,289.5,10,245.1c0-59.2,20-108.1,59.9-146.8c40-38.7,94.2-62,162.8-70.1l5.6,24l-25.7,4.4c-19.6,5.3-36,12.7-49.1,22
		c-13.2,9.3-24.1,19.9-32.6,31.9c-8.2,11.5-14.7,24.5-19.4,38.9c-4.7,14.5-8.2,28.8-10.7,42.8c14.1-12.6,28-21.1,41.9-25.5
		c13.8-4.4,28.7-6.6,44.5-6.6c27.8,0,51.4,10.2,70.6,30.5C276.9,211,286.6,237.3,286.6,269.7z M196.8,276.2
		c0-25.6-4.5-45.9-13.5-60.9c-9-15-21-22.6-36-22.6c-10,0-18.7,1.7-26.1,5.1c-7.4,3.4-14.8,10.5-22.2,21.4c0,0.8,0,2.2-0.1,4.2
		c-0.1,2-0.2,4.7-0.4,7.9c-0.2,3.6-0.3,6.9-0.4,9.9c-0.1,3.1-0.1,5.7-0.1,7.8c0,38.8,4.7,68.5,14.2,89.2
		c9.5,20.6,21.6,30.9,36.5,30.9c14.4,0,26-8.1,34.8-24.3C192.4,328.7,196.8,305.8,196.8,276.2z"/>
	<path class="st0" d="M632.3,382H518c-14.1-24.7-26.9-45.6-38.5-62.8c-11.6-17.2-22.6-33.1-33-47.8l-14.3,12.1v52.9
		c0,5.8,0.8,10.6,2.5,14.3c1.7,3.7,5,6.5,9.8,8.2c2.9,1.3,6.3,2.4,10.2,3.4s7.8,1.6,11.6,1.9V382H315.7v-17.7
		c4.1-0.3,8.1-0.8,12.2-1.3c4.1-0.6,7.7-1.3,10.7-2.3c5.2-1.8,8.8-4.5,10.6-8.2c1.9-3.7,2.8-8.6,2.8-14.6V67.3
		c0-5.3-1.2-10.9-3.5-16.6c-2.3-5.7-5.8-10.1-10.3-13c-3.1-1.9-7.7-3.6-13.8-4.9c-6.1-1.3-11.7-2.1-16.7-2.4V12.7l120.8-6.3l3.6,3.9
		v250.4c12-10.7,25.4-23,40.3-37.1c14.9-14.1,26.9-25.7,36-34.9c5.3-5.5,8.3-9.7,8.9-12.5c0.6-2.8,0.8-4.6,0.8-5.2
		c0-2.9-2.6-5.3-7.7-7.3c-5.1-1.9-12.8-3.6-23.1-5.1v-17.2h123.3V158c-16.2,4.5-28.5,8.8-36.9,12.7c-8.5,4-17.7,9.3-27.7,15.9
		c-6.6,4.4-13,8.9-19.2,13.7c-6.2,4.8-13.3,10.7-21.4,17.9c15.8,23,30.4,44.2,43.8,63.8c13.4,19.6,27.5,40.3,42.1,62.1
		c5,7.6,11.2,12.7,18.7,15.3c7.4,2.6,14.9,4.2,22.3,4.9V382z"/>
	<path class="st0" d="M930,262.6H815.3v114.8h-39.8V262.6H660.7v-39.8h114.8V108.1h39.8v114.8H930V262.6z"/>
</g>
</svg>
