<?xml version="1.0" encoding="utf-8"?>
<!-- Generator: Adobe Illustrator 23.0.3, SVG Export Plug-In . SVG Version: 6.00 Build 0)  -->
<svg version="1.1" id="Layer_1" xmlns="http://www.w3.org/2000/svg" xmlns:xlink="http://www.w3.org/1999/xlink" x="0px" y="0px"
	 viewBox="0 0 832.5 272.1" style="enable-background:new 0 0 832.5 272.1;" xml:space="preserve">
<style type="text/css">
	.st0{fill:#C7CCD2;}
	.st1{fill:#E3E3E3;}
	.st2{fill:#FEFEFE;}
</style>
<path class="st0" d="M271.5,272c-90.3,0-180.7,0-271,0c-0.5-0.9-0.2-1.8-0.2-2.7c0-88.6,0-177.3,0-265.9c0-3.5-0.4-3.1,3-3.1
	c88.5,0,177,0,265.4,0c3.4,0,3-0.4,3,3.1c0,88.6,0,177.1,0,265.7C271.8,270.1,272,271.1,271.5,272z"/>
<path class="st1" d="M271.5,272c0-89.3,0-178.6,0-267.9c0-4,0.4-3.6-3.6-3.6c-87.9,0-175.8,0-263.7,0c-4.1,0-3.6-0.5-3.6,3.6
	c0,89.3,0,178.6,0,267.9c-0.2-0.1-0.5,0.3-0.5-0.3c0-0.7,0-1.3,0-2c0-89.2,0-178.3,0-267.5C0,0.4,0.4,0,2.3,0
	C92.2,0.1,182.1,0,272,0c0,90.7,0,181.3,0,272C271.9,272,271.7,272,271.5,272z"/>
<path class="st0" d="M351.3,132.9c2.3,1.5,4.5,2.8,6.3,4.7c3.7,4.1,5.1,9,5.1,14.2c0.1,13.3,0.5,26.7-1.1,39.9
	c-1.3,10.9-7.3,16.5-18.2,17.3c-12.2,0.9-24.5,0.2-36.7,0.3c-1.6,0-1.7-0.8-1.6-2c0-5.4,0-10.8,0-16.2c0-39.5,0-79-0.1-118.5
	c0-2.3,0.6-2.9,2.9-2.9c11.9,0,23.8-0.2,35.7,0.2c10.3,0.3,16.5,7.9,17,16.5c0.6,10.6,0.6,21.1,0,31.7
	C360.3,124.6,357.2,129.5,351.3,132.9z"/>
<path class="st0" d="M577.5,140.3c0-1.2,0-2,0-2.8c0-21.7,0-43.3-0.1-65c0-2.2,0.6-2.6,2.6-2.5c4.9,0.2,9.8,0.1,14.7,0
	c1.6,0,1.9,0.4,1.9,1.9c0,45.2,0,90.5,0,135.7c0,1.6-0.4,2-1.9,1.9c-3.7-0.1-7.3,0-11-0.1c-3.4-0.1-4.3-0.8-5.2-4.1
	c-2-7.6-4-15.3-5.9-22.9c-3.9-15.2-7.7-30.4-11.6-45.6c-0.3-1.2-0.7-2.4-1.6-3.5c-0.5,0.9-0.3,1.8-0.3,2.6c0,23.6-0.1,47.2,0.1,70.7
	c0,2.3-0.7,2.7-2.7,2.6c-4.7-0.2-9.5-0.1-14.2,0c-1.5,0-2.1-0.2-2.1-2c0.1-45.2,0.1-90.3,0-135.5c0-1.6,0.3-2.2,2-2.1
	c4.6,0.2,9.2,0.2,13.7,0.2c2.8,0,3.8,2.1,4.4,4.3c3.5,14,7,28.1,10.4,42.1c1.7,6.9,3.3,13.7,5,20.6
	C575.9,137.9,576,139.2,577.5,140.3z"/>
<path class="st0" d="M372.8,128.6c0-18.7,0-37.5,0-56.2c0-2,0.5-2.7,2.6-2.6c5.3,0.2,10.7,0.2,16,0c2.4-0.1,3,0.5,3,2.9
	c-0.1,34.2-0.1,68.3-0.1,102.5c0,3.2,0.1,6.3,0.7,9.4c0.7,3.5,2.9,5.4,6.4,5.4c3.3-0.1,5.5-2,6.1-5.5c0.3-1.8,0.4-3.6,0.4-5.5
	c0-35.4,0-70.8,0-106.2c0-2.1,0.4-2.8,2.7-2.8c5.7,0.2,11.3,0.1,17,0c1.6,0,2.2,0.5,2.2,2c0,5.9,0.2,11.8,0.2,17.7
	c0,20.4,0,40.8,0,61.2c0,9.9-0.2,19.8-0.3,29.7c-0.1,5.7-1.3,11.2-3.3,16.6c-2.6,6.9-7.6,11.2-14.9,12.7c-6.4,1.3-12.9,1.6-19.4,0.4
	c-10.2-1.9-15.6-8.8-18-18.4c-1.1-4.5-1.2-9.1-1.3-13.6C372.8,161.7,372.8,145.2,372.8,128.6z"/>
<path class="st0" d="M663.8,174.5c0-5.4,0.1-10.8,0-16.2c0-1.6,0.3-2.3,2.1-2.3c5.7,0.1,11.3,0.1,17,0c1.6,0,2,0.4,2,2
	c0,8.7,0.1,17.5,0.1,26.2c0,4.8,1.6,6.7,5.6,6.8c3.8,0.2,5.8-1.7,6.4-6.1c1.7-13.6-1.8-25.8-10.8-36.1c-5.9-6.7-11.1-13.9-16.3-21.2
	c-4.5-6.4-6.7-13.5-6.1-21.3c0.4-5.7-0.2-11.5,0-17.2c0.6-11.9,7.3-19.4,19.1-21.5c7.2-1.3,14.3-0.6,21.2,1.6
	c8.7,2.8,13.8,10.1,13.9,20.1c0.1,9.4,0,18.8,0.1,28.2c0,1.4-0.2,2.1-1.9,2c-5.7-0.1-11.5-0.1-17.2,0c-1.6,0-1.9-0.5-1.9-2
	c0.1-8,0.1-16,0-24c0-4.9-2.5-7.1-7.2-6.5c-2.4,0.3-4.2,1.6-4.5,4c-1.7,12.1-0.8,23.8,7.7,33.4c6.7,7.6,12.5,15.9,18.6,24.1
	c4.7,6.3,7.2,13.2,6.5,21.2c-0.5,6,0.1,12,0,18c-0.2,9.2-3.3,16.7-12.2,20.9c-4,1.9-8.3,2.3-12.7,2.4c-4.8,0.1-9.7-0.3-14.3-1.6
	c-9.3-2.5-14.8-10.4-14.9-21.1C663.7,183.6,663.8,179,663.8,174.5z"/>
<path class="st0" d="M441.6,174.1c0-5.3,0.1-10.7,0-16c0-1.6,0.3-2.2,2-2.1c5.5,0.1,11,0.1,16.5,0c1.6,0,1.9,0.5,1.9,2
	c0,8.7,0,17.5,0.1,26.2c0.1,5.2,3.4,7.6,8.3,6.5c2.3-0.5,3.3-2.1,3.8-4.1c2.1-8.1,1.3-16-1.8-23.7c-2.5-6.1-6.3-11.3-10.5-16.3
	c-5.7-6.9-11.9-13.5-16.1-21.5c-3.4-6.5-4.9-13.3-4.4-20.7c0.3-4.6,0.2-9.2,0.2-13.7c0-12.7,5.3-19.6,17.6-22.7
	c8.7-2.2,17.2-1.4,25.2,2.6c6.7,3.3,10.1,8.8,10.6,16.3c0.6,9.7,0.4,19.5,0.4,29.2c0,3.5-0.1,3.5-3.6,3.5c-4.8,0-9.7-0.1-14.5,0
	c-2,0.1-2.7-0.4-2.7-2.6c0.1-7.9,0.1-15.8-0.2-23.7c-0.2-4.9-3-7-7.8-6.2c-2.2,0.4-3.8,1.6-4.1,3.8c-0.7,6.3-1.5,12.6-0.2,18.9
	c0.8,3.6,2.3,6.7,4.5,9.6c7.3,9.6,14.6,19.2,21.9,28.8c4.5,6,7.2,12.7,6.8,20.4c-0.5,7.8,0.6,15.7-0.5,23.5
	c-1.4,10.4-7.7,16.6-18,18c-7.4,1.1-14.8,0.5-22-1.5c-7.5-2-12.2-7.5-13.1-15.2c-0.1-1.2-0.3-2.3-0.3-3.5
	C441.6,184.6,441.6,179.4,441.6,174.1z"/>
<path class="st0" d="M726.8,174.8c0-5.6,0-11.2,0-16.7c0-1.5,0.2-2.2,2-2.2c5.7,0.1,11.3,0.1,17,0c1.7,0,2.1,0.5,2.1,2.1
	c0,8.7,0.1,17.5,0.1,26.2c0,4.6,1.5,6.5,5.5,6.7c3.9,0.3,6.1-1.7,6.6-6.1c1.6-14.3-2.2-26.9-12-37.5c-6.3-6.9-11.7-14.5-16.8-22.3
	c-3.5-5.4-4.8-11.6-4.5-18.1c0.4-6.4-0.2-12.8,0.1-19.2c0.6-11.1,7.9-18.2,18.6-20.2c7.4-1.4,14.8-0.6,21.9,1.7
	c8.1,2.6,12.7,9,13.2,17.5c0.6,10.2,0.1,20.5,0.2,30.7c0,1.5-0.3,2-1.9,2c-5.7-0.1-11.3-0.1-17,0c-1.8,0-2-0.7-2-2.2
	c0-8-0.1-16-0.2-24c-0.1-5.2-3.2-7.6-8-6.2c-2.3,0.7-3.8,2.2-3.8,4.7c-0.1,5.2-0.3,10.3-0.1,15.5c0.2,4.1,1.5,7.6,3.9,10.8
	c6.5,8.7,12.8,17.7,19.7,26.1c7.9,9.7,10.2,20.8,9.7,32.9c-0.4,9.6-3.7,17.8-11.4,24c-2,1.7-3.6,3.9-5.4,5.9
	c-1.8,2.1-3.9,3.4-6.8,3.8c-9.6,1.1-18.5-0.2-25.6-7.5c-3.2-3.3-5-7.2-5.1-11.8c-0.1-5.6,0-11.1,0-16.7
	C727,174.8,726.9,174.8,726.8,174.8z"/>
<path class="st0" d="M609,139.6c0-22.3,0-44.7-0.1-67c0-2,0.4-2.6,2.5-2.6c14.3,0.1,28.7,0.1,43,0c1.8,0,2.2,0.5,2.2,2.2
	c-0.1,5.1-0.2,10.2,0,15.2c0.1,2-0.6,2.3-2.4,2.2c-7.3-0.1-14.7,0-22-0.1c-1.6,0-2.2,0.3-2.1,2c0.1,10.9,0.1,21.8,0,32.7
	c0,1.9,0.7,2.1,2.3,2.1c5.4-0.1,10.8,0,16.2-0.1c1.5,0,2,0.3,2,1.9c-0.1,5.8-0.1,11.7,0,17.5c0,1.7-0.6,1.9-2,1.8
	c-5.5-0.1-11,0-16.5-0.1c-1.8,0-2,0.6-2,2.2c0.1,12,0.1,24,0,36c0,1.7,0.5,2.1,2.1,2.1c7.7-0.1,15.3,0,23-0.1c1.7,0,2.5,0.2,2.4,2.2
	c-0.2,5.8-0.1,11.7,0,17.5c0,1.4-0.3,1.8-1.8,1.8c-15-0.1-30-0.1-45,0c-2,0-1.8-1-1.8-2.3C609,184.6,609,162.1,609,139.6z"/>
<path class="st0" d="M507.1,139.8c0-22.5,0-45,0-67.5c0-2.1,0.5-2.7,2.6-2.6c5.2,0.2,10.5,0.1,15.7,0c1.5,0,2.2,0.1,2.2,2
	c-0.1,45.2-0.1,90.5,0,135.7c0,1.6-0.4,2.1-2,2.1c-5.3-0.1-10.7-0.1-16,0c-2,0.1-2.5-0.5-2.5-2.5
	C507.2,184.6,507.1,162.2,507.1,139.8z"/>
<path class="st0" d="M781.3,209.4c3.6-4,6.8-7.6,10.1-11.3c4.8-5.3,9.6-10.6,14.3-16c0.8-0.9,1.3-1.6,2.5-0.3c7.9,9,16,17.9,24,26.8
	c0.1,0.2,0.2,0.4,0.3,0.8C815.5,209.4,798.7,209.4,781.3,209.4z"/>
<path class="st2" d="M183,141.5c0,8.4,0,16.8,0,25.2c-0.1,9.6-5.2,16.4-13.9,18.6c-7.5,1.9-14.6-0.7-19.1-7.4
	c-6.7-9.7-12.4-20.1-18.4-30.2c-1.5-2.5-2.7-5.1-5.1-7c-0.7,0.6-0.3,1.4-0.3,2.1c0,8.2,0.1,16.5-0.1,24.7
	c-0.1,9.6-5.2,15.6-14.3,17.3c-2.5,0.5-5.1,0.5-7.7,0.5c-10.4,0-20.8,0.2-31.2-0.2c-21.5-0.8-40.9-17.3-45-39
	C23,121.2,37,96.8,61.9,89.3c3.8-1.1,7.6-1.8,11.5-1.8c5.3,0,10.7,0.1,16,0c1.8,0,2.3,0.5,2.2,2.2c-0.1,2.5-0.1,5,0,7.5
	c0.1,1.5-0.5,1.8-1.8,1.8c-5.8,0.1-11.6-0.3-17.5,0.4c-16.7,2-29.8,14.2-32.8,30.9c-3.3,17.9,8.4,36.7,25.8,41.3
	c5.3,1.4,10.7,1.2,16.1,1.5c7.7,0.4,15.3,0.3,23,0.3c6.7,0,9.5-2.6,9.5-9.3c0.1-18.6,0-37.2,0-55.7c0-2.2,0.3-4.6,2.5-5.2
	c1.9-0.5,3.1,1.6,4,3.1c8.3,14.3,16.6,28.6,24.9,42.9c3.6,6.2,7.2,12.4,10.7,18.6c0.8,1.5,1.8,2.8,3,4c2.3,2.2,5,2.4,7.9,1.3
	c2.7-1,3.7-3.2,3.7-5.9c0-4.6,0-9.2,0-13.7c0-13.9,0.1-27.8,0.1-41.7c0-3.1,0.8-5.8,2.1-8.6c2.4,1.6,4.3,3.5,5.7,5.9
	c11.2,19.4,22.5,38.8,33.8,58.2c0.8,1.3,1.6,2.6,2.5,3.7c2,2.5,4.6,3.5,7.7,2.5c3-1,4.7-3.1,5-6.5c0.1-1,0.1-2,0.1-3
	c0-24.5,0-49,0-73.5c0-2,0.4-2.8,2.6-2.6c2.1,0.2,4.2,0.2,6.2,0c2.3-0.3,2.8,0.7,2.7,2.8c-0.1,19.3,0,38.7,0,58
	c0,6.7,0.1,13.5,0,20.2c-0.1,7.5-4.1,12.5-10.7,15.5c-6.5,3-12.5,1.7-17.9-2.7c-3.8-3-6.4-7-8.9-11c-5.3-8.6-10.5-17.2-15.7-25.8
	c-0.7-1.2-1.6-2.4-2.4-3.5C183.3,141.4,183.2,141.4,183,141.5z"/>
<path class="st2" d="M154.6,132.8c0-8.2,0-15.8,0-23.3c0-3.2-0.1-6.5,0.7-9.7c2.8-11.1,16.2-16.2,26.2-10.1
	c4.1,2.5,6.9,6.2,9.3,10.2c6.1,10.1,11.9,20.4,18.4,30.2c0.3,0.4,0.6,0.8,1,1.4c0.6-0.9,0.3-1.8,0.3-2.7c0-12.8,0.1-25.7,0-38.5
	c0-1.9,0.5-2.5,2.3-2.3c2.6,0.2,5.2,0.2,7.7,0c2-0.1,2.5,0.7,2.4,2.4c-0.1,0.8,0,1.7,0,2.5c0,23.4,0,46.8,0,70.2
	c0,2.3-0.4,5.4-2.1,5.9c-1.7,0.5-3.7-1.9-4.9-4c-11.4-19.7-22.9-39.4-34.4-59c-1.1-2-2.4-3.8-4.1-5.3c-4-3.5-8.9-2.3-10.8,2.7
	c-0.6,1.6-0.8,3.2-0.8,4.9c0,18.5,0,37,0,55.5c0,0.7,0.1,1.5-0.1,2.2c-0.3,1.2-0.4,3-1.5,3.2c-1.3,0.2-2.9-0.6-3.7-2
	c-2.3-3.8-4.5-7.6-6.7-11.4c-9.8-16.9-19.6-33.8-29.5-50.6c-0.8-1.4-1.8-2.8-2.9-4c-1.8-2-4.2-3.2-6.9-2.4c-3,0.9-4.2,3.4-4.6,6.2
	c-0.1,0.9-0.1,1.8-0.1,2.7c0,18,0,36,0,54c0,6.6-0.7,7.3-7.3,7.3c-8.7,0-17.3,0.1-26,0c-17.3-0.2-30.6-11.2-32.9-28.3
	c-2.6-18.9,10.4-34,27.5-36.6c6.3-1,12.6-0.3,19-0.5c1.2,0,1.6,0.4,1.6,1.6c0,3.1-0.1,6.2,0,9.2c0,1.4-0.6,1.6-1.8,1.6
	c-4.6,0-9.2,0-13.7,0c-10.4-0.1-20.3,7-20.6,20.7c-0.3,11,9.9,20.6,20.8,19.9c4.9-0.3,9.8-0.2,14.7,0c5.3,0.2,6.5-0.7,6.5-6.2
	c0-14.7-0.1-29.3-0.1-44c0-10.1,4.9-16.7,13.9-19c7.6-2,13.5,0.9,18.2,6.7c6,7.4,10.2,15.9,15.3,24
	C148,122.8,150.8,127.7,154.6,132.8z"/>
<path class="st2" d="M326.5,167.6c0-6.6,0-13.1,0-19.7c0-1.5,0.2-2.3,2-2.1c2.2,0.2,4.5,0,6.7,0.2c3.3,0.3,5.3,2.1,5.4,5.4
	c0.3,6.9,0.3,13.8,0.3,20.7c0,3.3-0.1,6.6-0.1,10c-0.1,4.7-2.2,7-6.9,7.4c-7.3,0.6-7.3,0.6-7.3-6.7
	C326.5,177.7,326.5,172.6,326.5,167.6z"/>
<path class="st2" d="M326.5,106.6c0-5.3,0-10.7,0-16c0-1.4,0.3-1.9,1.8-1.8c2.2,0.2,4.5,0,6.7,0.2c2.7,0.3,4.4,1.8,4.5,4.5
	c0.6,8.7,0.7,17.4-0.1,26.1c-0.3,2.7-2.2,4.2-4.7,4.8c-2.3,0.5-4.6,0.2-7,0.1c-1.4-0.1-1.2-1-1.2-1.9
	C326.5,117.2,326.5,111.9,326.5,106.6z"/>
</svg>
